<svg viewBox="0 0 100 31" fill="none" xmlns="http://www.w3.org/2000/svg">
<path d="M6.55859 24.8587V6.31665H22.2411L20.6996 10.1904H11.3682V13.8738H19.2403L17.7861 17.5371H11.3682V24.8587H6.55859Z" fill="white"/>
<path d="M18.8496 24.8587L26.2233 6.31665H30.7091L38.1856 24.8587H33.1293L31.8242 21.5662H25.0774L23.8288 24.8587H18.8496ZM26.1102 17.8027H30.7348L28.4791 11.2879L26.1102 17.8027Z" fill="white"/>
<path d="M48.7654 6.00073C51.8125 6.00073 53.8268 7.03307 55.7845 8.59662L53.4465 11.9141C52.1871 10.7405 50.5073 10.0931 48.7654 10.11C45.2867 10.11 43.1131 12.5255 43.1131 15.5724C43.1131 18.6193 45.2867 21.0398 48.7654 21.0398C50.5073 21.0567 52.1871 20.4094 53.4465 19.2357L55.7845 22.5482C53.8268 24.1168 51.8125 25.1491 48.7654 25.1491C42.3218 25.1491 38.2676 20.7341 38.2676 15.5724C38.2676 10.4107 42.3218 6.00073 48.7654 6.00073Z" fill="white"/>
<path d="M58.5332 24.8587V6.31665H71.6465V10.1904H63.3479V13.8738H70.5417V17.5371H63.3479V20.9849H71.6465V24.8587H58.5332Z" fill="white"/>
<path d="M79.909 24.8586H75.084V6.31656H79.8936V14.5903L85.104 6.2915H89.9855V6.92795L84.4514 15.2819L86.5735 19.2609C87.6012 21.1702 88.0688 21.3557 89.0503 21.3557C89.5311 21.3046 89.9899 21.1318 90.3811 20.8545C90.895 21.967 91.4448 23.0294 91.9586 24.1169C90.802 24.7937 89.474 25.1409 88.1254 25.1192C85.8388 25.1192 83.7731 23.9766 82.4731 21.2755L79.9038 16.209L79.909 24.8586Z" fill="white"/>
<path d="M1.98432 9.63409H1.78906V3.73071H7.84215V3.92114H1.98432V9.63409Z" fill="#F8B427" stroke="#F8B427" stroke-width="1.85" stroke-miterlimit="10"/>
<path d="M7.84215 27.1539H1.78906V21.2505H1.98432V26.9634H7.84215V27.1539Z" fill="#F8B427" stroke="#F8B427" stroke-width="1.85" stroke-miterlimit="10"/>
<path d="M25.8121 27.1539H19.7539V26.9634H25.6169V21.2505H25.8121V27.1539Z" fill="#F8B427" stroke="#F8B427" stroke-width="1.85" stroke-miterlimit="10"/>
<path d="M25.8121 9.63409H25.6169V3.92114H19.7539V3.73071H25.8121V9.63409Z" fill="#F8B427" stroke="#F8B427" stroke-width="1.85" stroke-miterlimit="10"/>
<path d="M98.6285 24.9289H93.8086V6.3418H98.6285V24.9289Z" fill="white"/>
</svg>
