<svg width="254" height="85" viewBox="0 0 254 85" fill="none" xmlns="http://www.w3.org/2000/svg">
<mask id="mask0_273_751" style="mask-type:luminance" maskUnits="userSpaceOnUse" x="0" y="0" width="254" height="85">
<path d="M254 0.0891113H0.191406V84.996H254V0.0891113Z" fill="white"/>
</mask>
<g mask="url(#mask0_273_751)">
<path d="M100.256 71.951C100.194 71.7298 100.059 71.536 99.8722 71.4007C99.6858 71.2655 99.4591 71.1966 99.2286 71.2052C99.0865 71.1913 98.9431 71.206 98.8068 71.2484C98.6705 71.2908 98.5442 71.3601 98.4353 71.452C98.3264 71.544 98.2372 71.6568 98.1729 71.7838C98.1086 71.9107 98.0706 72.0493 98.061 72.1912C98.061 72.7221 98.5052 72.9749 98.9494 73.1139L99.9012 73.4173C101.031 73.7839 101.437 74.4538 101.437 75.1617C101.418 75.4346 101.344 75.7009 101.219 75.9444C101.094 76.1879 100.92 76.4037 100.709 76.5785C100.498 76.7534 100.253 76.8838 99.9902 76.9619C99.727 77.0399 99.4506 77.0639 99.1778 77.0325C98.6688 77.071 98.1611 76.9423 97.7325 76.666C97.3039 76.3898 96.978 75.9813 96.8047 75.503L97.655 75.2881C97.7863 75.5748 98.0027 75.8144 98.275 75.9749C98.5472 76.1354 98.8623 76.2089 99.1778 76.1856C99.9012 76.1856 100.447 75.7811 100.447 75.1743C100.447 74.5676 100.092 74.4159 99.5331 74.2389L98.6321 73.9482C97.7184 73.6575 97.0712 73.1392 97.0712 72.2417C97.1157 71.7712 97.3203 71.3299 97.6511 70.991C97.9818 70.6521 98.4189 70.436 98.8899 70.3785C99.3609 70.3209 99.8375 70.4254 100.241 70.6746C100.644 70.9239 100.949 71.3028 101.107 71.7487L100.256 71.951Z" fill="#222A41"/>
<path d="M103.492 67.6405C103.59 67.6315 103.689 67.6433 103.782 67.675C103.875 67.7068 103.96 67.7577 104.032 67.8245C104.104 67.8914 104.161 67.9726 104.199 68.0629C104.237 68.1531 104.256 68.2504 104.253 68.3483C104.255 68.4418 104.238 68.5346 104.203 68.6212C104.168 68.7079 104.115 68.7866 104.049 68.8527C103.983 68.9188 103.904 68.9709 103.817 69.0058C103.73 69.0408 103.637 69.0579 103.543 69.0562C103.45 69.058 103.357 69.0408 103.271 69.0057C103.184 68.9706 103.106 68.9183 103.041 68.852C102.975 68.7858 102.924 68.7069 102.891 68.6203C102.857 68.5337 102.841 68.4412 102.845 68.3483C102.84 68.2545 102.854 68.1606 102.887 68.0725C102.92 67.9843 102.97 67.904 103.036 67.8363C103.101 67.7687 103.18 67.7152 103.267 67.6794C103.355 67.6435 103.448 67.6259 103.543 67.6278M104.038 76.8807H102.984V70.4972H103.949L104.038 76.8807Z" fill="#222A41"/>
<path d="M110.688 73.2529C110.688 71.6981 109.888 71.2177 109.063 71.2177C108.238 71.2177 107.109 71.7234 107.084 73.7459V76.8555H106.119V70.4972H107.084V71.8498C107.235 71.406 107.525 71.0219 107.91 70.7536C108.296 70.4853 108.758 70.3468 109.228 70.3582C109.71 70.3379 110.185 70.4735 110.583 70.7446C110.981 71.0157 111.281 71.4079 111.436 71.8624C111.607 71.4072 111.917 71.0169 112.322 70.7469C112.727 70.4769 113.208 70.3409 113.695 70.3582C115.155 70.3582 116.233 71.1419 116.233 73.2529V76.8807H115.269V73.2529C115.269 71.6981 114.469 71.2177 113.645 71.2177C112.82 71.2177 111.728 71.6602 111.665 73.6827V76.8934H110.7L110.688 73.2529Z" fill="#222A41"/>
<path d="M118.213 70.4972H119.177V71.7613C119.43 71.3167 119.8 70.9496 120.248 70.7C120.695 70.4504 121.203 70.3278 121.715 70.3456C122.604 70.3456 123.456 70.6971 124.084 71.323C124.713 71.9488 125.066 72.7976 125.066 73.6827C125.066 74.5677 124.713 75.4165 124.084 76.0424C123.456 76.6682 122.604 77.0198 121.715 77.0198C121.203 77.0375 120.695 76.9149 120.248 76.6653C119.8 76.4157 119.43 76.0486 119.177 75.604V79.7249H118.213V70.4972ZM121.639 71.2178C121.066 71.3338 120.55 71.6439 120.179 72.0954C119.809 72.5469 119.606 73.1121 119.606 73.6953C119.606 74.2785 119.809 74.8437 120.179 75.2952C120.55 75.7468 121.066 76.0568 121.639 76.1729C122.213 76.0568 122.729 75.7468 123.099 75.2952C123.47 74.8437 123.672 74.2785 123.672 73.6953C123.672 73.1121 123.47 72.5469 123.099 72.0954C122.729 71.6439 122.213 71.3338 121.639 71.2178Z" fill="#222A41"/>
<path d="M127.541 67.6025H126.576V76.8807H127.541V67.6025Z" fill="#222A41"/>
<path d="M130.219 67.6405C130.31 67.6421 130.401 67.6617 130.485 67.6982C130.569 67.7347 130.645 67.7873 130.708 67.853C130.772 67.9187 130.822 67.9963 130.856 68.0813C130.889 68.1663 130.906 68.257 130.904 68.3483C130.907 68.4422 130.891 68.5359 130.857 68.6234C130.823 68.7109 130.77 68.7903 130.704 68.8568C130.637 68.9232 130.557 68.9752 130.469 69.0096C130.381 69.0439 130.287 69.0598 130.193 69.0562C130.1 69.058 130.007 69.0408 129.921 69.0057C129.835 68.9706 129.756 68.9183 129.691 68.852C129.626 68.7858 129.575 68.7069 129.541 68.6203C129.507 68.5337 129.492 68.4412 129.495 68.3483C129.49 68.2545 129.504 68.1606 129.537 68.0725C129.57 67.9843 129.621 67.904 129.686 67.8363C129.752 67.7687 129.831 67.7152 129.918 67.6794C130.005 67.6435 130.099 67.6259 130.193 67.6278M130.688 76.8807H129.724V70.4972H130.688V76.8807Z" fill="#222A41"/>
<path d="M135.979 70.3582C136.793 70.3697 137.583 70.635 138.238 71.1167L137.781 71.7866C137.263 71.4165 136.642 71.2175 136.004 71.2178C135.636 71.1432 135.255 71.1512 134.89 71.2412C134.525 71.3311 134.184 71.5008 133.893 71.7379C133.602 71.975 133.367 72.2736 133.206 72.6122C133.045 72.9507 132.961 73.3207 132.961 73.6953C132.961 74.07 133.045 74.44 133.206 74.7785C133.367 75.1171 133.602 75.4157 133.893 75.6528C134.184 75.8899 134.525 76.0596 134.89 76.1495C135.255 76.2395 135.636 76.2475 136.004 76.1729C136.642 76.1731 137.263 75.9742 137.781 75.6041L138.238 76.274C137.583 76.7557 136.793 77.0209 135.979 77.0325C135.515 77.0728 135.047 77.0164 134.605 76.867C134.164 76.7176 133.758 76.4784 133.415 76.1646C133.071 75.8508 132.797 75.4693 132.609 75.0442C132.421 74.6191 132.324 74.1597 132.324 73.6953C132.324 73.2309 132.421 72.7716 132.609 72.3465C132.797 71.9214 133.071 71.5399 133.415 71.2261C133.758 70.9122 134.164 70.673 134.605 70.5236C135.047 70.3742 135.515 70.3179 135.979 70.3582Z" fill="#222A41"/>
<path d="M140.205 67.6405C140.3 67.6387 140.394 67.6563 140.482 67.692C140.57 67.7277 140.649 67.781 140.716 67.8484C140.782 67.9158 140.834 67.9961 140.869 68.0842C140.903 68.1724 140.919 68.2666 140.916 68.361C140.919 68.4549 140.903 68.5486 140.869 68.6361C140.834 68.7236 140.782 68.803 140.715 68.8695C140.649 68.9359 140.569 68.9879 140.481 69.0223C140.393 69.0566 140.299 69.0725 140.205 69.0689C140.112 69.0707 140.019 69.0535 139.933 69.0184C139.846 68.9833 139.768 68.931 139.703 68.8647C139.637 68.7985 139.586 68.7196 139.553 68.633C139.519 68.5464 139.503 68.4539 139.507 68.361C139.502 68.2672 139.516 68.1733 139.549 68.0852C139.582 67.997 139.632 67.9166 139.698 67.849C139.764 67.7814 139.842 67.7279 139.93 67.6921C140.017 67.6562 140.111 67.6386 140.205 67.6405ZM140.7 76.8934H139.786V70.4973H140.751L140.7 76.8934Z" fill="#222A41"/>
<path d="M144.088 74.9594C144.088 75.8821 144.57 76.2234 145.04 76.2234C145.157 76.2359 145.276 76.2236 145.388 76.1873C145.5 76.1509 145.603 76.0915 145.69 76.0127C145.778 75.934 145.848 75.8377 145.895 75.7303C145.943 75.6228 145.967 75.5066 145.966 75.3892C145.965 75.2333 145.935 75.079 145.877 74.9341H146.766C146.833 75.1206 146.867 75.3174 146.867 75.5156C146.864 75.7442 146.812 75.9695 146.715 76.1767C146.618 76.3839 146.478 76.5682 146.304 76.7175C146.13 76.8668 145.926 76.9777 145.706 77.0429C145.486 77.108 145.255 77.126 145.027 77.0956C144.075 77.0956 143.124 76.6406 143.124 74.972V71.2683H142.045V70.4972H143.124L143.352 68.5632H144.088V70.4972H146.131V71.2683H144.05L144.088 74.9594Z" fill="#222A41"/>
<path d="M152.438 70.4973H153.555L149.608 79.7502H148.631L149.862 76.7923L147.096 70.4973H148.2L150.383 75.7052L152.438 70.4973Z" fill="#222A41"/>
<path d="M162.629 73.2529C162.629 71.6981 161.83 71.2177 161.005 71.2177C160.18 71.2177 159.05 71.7234 159.025 73.7459V76.8555H158.061V70.4972H159.025V71.8498C159.176 71.406 159.466 71.0219 159.852 70.7536C160.238 70.4853 160.699 70.3468 161.17 70.3582C161.649 70.3407 162.122 70.4775 162.517 70.7485C162.913 71.0194 163.21 71.41 163.365 71.8624C163.535 71.4072 163.845 71.0169 164.251 70.7469C164.656 70.4769 165.137 70.3409 165.624 70.3582C167.083 70.3582 168.162 71.1419 168.162 73.2529V76.8807H167.198V73.2529C167.198 71.6981 166.398 71.2177 165.573 71.2177C164.748 71.2177 163.657 71.6602 163.594 73.6827V76.8934H162.629V73.2529Z" fill="#222A41"/>
<path d="M175.956 75.9328C175.602 76.299 175.176 76.5872 174.704 76.7788C174.231 76.9705 173.724 77.0612 173.214 77.0452C172.774 77.0551 172.337 76.9787 171.927 76.8202C171.516 76.6617 171.141 76.4242 170.823 76.1214C170.505 75.8185 170.25 75.4562 170.072 75.0552C169.895 74.6541 169.798 74.2221 169.788 73.7839C169.778 73.3456 169.855 72.9097 170.014 72.5011C170.173 72.0924 170.411 71.7189 170.715 71.402C171.019 71.085 171.383 70.8309 171.786 70.654C172.188 70.4771 172.622 70.3809 173.062 70.3709C173.5 70.3517 173.938 70.4254 174.345 70.5872C174.753 70.749 175.121 70.9953 175.426 71.3096C175.731 71.6239 175.965 71.9992 176.113 72.4105C176.261 72.8218 176.32 73.2598 176.285 73.6954H170.587V73.7965C170.586 74.132 170.655 74.4641 170.79 74.7714C170.925 75.0787 171.124 75.3543 171.372 75.5806C171.621 75.8069 171.915 75.9787 172.234 76.0851C172.554 76.1915 172.892 76.23 173.227 76.1982C174.041 76.2095 174.828 75.9059 175.423 75.3513L175.956 75.9328ZM170.676 72.9622H175.321C175.234 72.4545 174.962 71.9967 174.557 71.677C174.151 71.3573 173.642 71.1982 173.126 71.2305C172.588 71.2115 172.059 71.3714 171.622 71.685C171.186 71.9985 170.866 72.4479 170.714 72.9622" fill="#222A41"/>
<path d="M183.62 75.9328C183.266 76.299 182.84 76.5872 182.368 76.7788C181.895 76.9705 181.388 77.0612 180.878 77.0452C180.439 77.0551 180.001 76.9787 179.591 76.8202C179.18 76.6617 178.805 76.4242 178.487 76.1214C178.169 75.8185 177.914 75.4562 177.736 75.0552C177.559 74.6541 177.462 74.2221 177.452 73.7839C177.442 73.3456 177.519 72.9097 177.678 72.5011C177.837 72.0924 178.075 71.7189 178.379 71.402C178.684 71.085 179.047 70.8309 179.45 70.654C179.853 70.4771 180.286 70.3809 180.726 70.3709C181.164 70.3517 181.602 70.4254 182.009 70.5872C182.417 70.749 182.785 70.9953 183.09 71.3096C183.395 71.6239 183.629 71.9992 183.777 72.4105C183.925 72.8218 183.984 73.2598 183.95 73.6954H178.239V73.7965C178.237 74.132 178.306 74.4641 178.442 74.7714C178.577 75.0787 178.775 75.3543 179.024 75.5806C179.273 75.8069 179.566 75.9787 179.885 76.0851C180.205 76.1915 180.543 76.23 180.878 76.1982C181.693 76.2095 182.48 75.9059 183.074 75.3513L183.62 75.9328ZM178.34 72.9622H182.934C182.848 72.4545 182.575 71.9967 182.17 71.677C181.765 71.3573 181.255 71.1982 180.739 71.2305C180.201 71.2115 179.672 71.3714 179.235 71.685C178.799 71.9985 178.48 72.4479 178.328 72.9622" fill="#222A41"/>
<path d="M186.641 74.9594C186.641 75.8821 187.123 76.2234 187.593 76.2234C187.71 76.2359 187.828 76.2236 187.94 76.1873C188.053 76.1509 188.156 76.0915 188.243 76.0127C188.331 75.934 188.4 75.8377 188.448 75.7303C188.495 75.6228 188.52 75.5066 188.519 75.3892C188.518 75.2333 188.488 75.079 188.43 74.9341H189.319C189.386 75.1206 189.42 75.3174 189.42 75.5156C189.417 75.7442 189.365 75.9695 189.268 76.1767C189.17 76.3839 189.03 76.5682 188.856 76.7175C188.683 76.8668 188.479 76.9777 188.259 77.0429C188.039 77.108 187.807 77.126 187.58 77.0956C186.628 77.0956 185.676 76.6406 185.676 74.972V71.2683H184.598V70.4972H185.676L185.905 68.5632H186.641V70.4972H188.722V71.2683H186.641V74.9594Z" fill="#222A41"/>
<path d="M193.455 71.951C193.392 71.7298 193.257 71.536 193.07 71.4008C192.884 71.2655 192.657 71.1966 192.427 71.2052C192.285 71.1913 192.141 71.206 192.005 71.2485C191.869 71.2909 191.742 71.3601 191.634 71.4521C191.525 71.544 191.435 71.6568 191.371 71.7838C191.307 71.9108 191.269 72.0493 191.259 72.1912C191.259 72.7221 191.703 72.9749 192.148 73.1139L193.087 73.4047C194.216 73.7712 194.622 74.4412 194.622 75.1491C194.602 75.4209 194.526 75.6858 194.401 75.9278C194.275 76.1699 194.101 76.3841 193.89 76.5577C193.679 76.7312 193.435 76.8605 193.173 76.9378C192.911 77.015 192.635 77.0387 192.363 77.0072C191.854 77.0457 191.347 76.917 190.918 76.6408C190.489 76.3645 190.164 75.956 189.99 75.4777L190.84 75.2628C190.972 75.5495 191.188 75.7892 191.461 75.9496C191.733 76.1101 192.048 76.1836 192.363 76.1603C193.087 76.1603 193.632 75.7558 193.632 75.1491C193.632 74.5423 193.277 74.3906 192.719 74.2137L191.818 73.9229C190.904 73.6322 190.257 73.1139 190.257 72.2165C190.301 71.7459 190.506 71.3046 190.837 70.9657C191.167 70.6268 191.604 70.4107 192.075 70.3532C192.546 70.2957 193.023 70.4002 193.426 70.6494C193.829 70.8986 194.135 71.2776 194.292 71.7235L193.455 71.951Z" fill="#222A41"/>
<path d="M202.528 71.9509C202.465 71.7298 202.33 71.536 202.144 71.4007C201.957 71.2654 201.731 71.1965 201.5 71.2051C201.358 71.1913 201.215 71.206 201.078 71.2484C200.942 71.2908 200.816 71.36 200.707 71.452C200.598 71.5439 200.509 71.6568 200.444 71.7837C200.38 71.9107 200.342 72.0492 200.333 72.1911C200.333 72.722 200.777 72.9748 201.221 73.1139L202.173 73.4172C203.302 73.7838 203.708 74.4538 203.708 75.1616C203.688 75.4334 203.612 75.6983 203.487 75.9404C203.361 76.1825 203.187 76.3967 202.976 76.5703C202.765 76.7438 202.521 76.8731 202.259 76.9504C201.996 77.0276 201.721 77.0512 201.449 77.0198C200.94 77.0583 200.433 76.9296 200.004 76.6533C199.575 76.3771 199.249 75.9686 199.076 75.4903L199.926 75.2754C200.058 75.5621 200.274 75.8017 200.546 75.9622C200.819 76.1227 201.134 76.1962 201.449 76.1729C202.173 76.1729 202.718 75.7684 202.718 75.1616C202.718 74.5549 202.363 74.4032 201.805 74.2262L200.904 73.9355C199.99 73.6448 199.343 73.1265 199.343 72.229C199.387 71.7585 199.592 71.3172 199.923 70.9783C200.253 70.6394 200.69 70.4233 201.161 70.3658C201.632 70.3082 202.109 70.4127 202.512 70.6619C202.915 70.9112 203.221 71.2901 203.378 71.736L202.528 71.9509Z" fill="#222A41"/>
<path d="M211.082 75.9328C210.729 76.299 210.303 76.5872 209.83 76.7788C209.358 76.9705 208.851 77.0612 208.341 77.0452C207.901 77.0551 207.464 76.9787 207.053 76.8202C206.643 76.6617 206.268 76.4242 205.95 76.1214C205.632 75.8185 205.377 75.4562 205.199 75.0552C205.021 74.6541 204.925 74.2221 204.915 73.7839C204.905 73.3456 204.982 72.9097 205.141 72.5011C205.3 72.0924 205.538 71.7189 205.842 71.402C206.146 71.085 206.51 70.8309 206.913 70.654C207.315 70.4771 207.749 70.3809 208.189 70.3709C208.627 70.3517 209.065 70.4254 209.472 70.5872C209.88 70.749 210.248 70.9953 210.553 71.3096C210.858 71.6239 211.092 71.9992 211.24 72.4105C211.388 72.8218 211.447 73.2598 211.412 73.6954H205.714V73.7965C205.715 74.1275 205.785 74.4547 205.918 74.7577C206.052 75.0606 206.247 75.3328 206.491 75.5572C206.735 75.7815 207.024 75.9531 207.338 76.0612C207.652 76.1694 207.985 76.2117 208.316 76.1856C209.13 76.1968 209.917 75.8933 210.511 75.3387L211.082 75.9328ZM205.778 72.937H210.372C210.285 72.4292 210.013 71.9714 209.608 71.6517C209.202 71.332 208.692 71.1729 208.176 71.2052C207.638 71.1862 207.11 71.3461 206.673 71.6597C206.236 71.9732 205.917 72.4226 205.765 72.937" fill="#222A41"/>
<path d="M216.032 70.3582C216.846 70.3697 217.636 70.635 218.291 71.1167L217.834 71.7866C217.316 71.4165 216.695 71.2175 216.057 71.2178C215.689 71.1432 215.308 71.1512 214.943 71.2412C214.578 71.3311 214.237 71.5008 213.946 71.7379C213.655 71.975 213.42 72.2736 213.259 72.6122C213.098 72.9507 213.014 73.3207 213.014 73.6953C213.014 74.07 213.098 74.44 213.259 74.7785C213.42 75.1171 213.655 75.4157 213.946 75.6528C214.237 75.8899 214.578 76.0596 214.943 76.1495C215.308 76.2395 215.689 76.2475 216.057 76.1729C216.695 76.1731 217.316 75.9742 217.834 75.6041L218.291 76.274C217.636 76.7557 216.846 77.0209 216.032 77.0325C215.567 77.0728 215.1 77.0164 214.658 76.867C214.217 76.7176 213.811 76.4784 213.467 76.1646C213.124 75.8508 212.849 75.4693 212.662 75.0442C212.474 74.6191 212.377 74.1597 212.377 73.6953C212.377 73.2309 212.474 72.7716 212.662 72.3465C212.849 71.9214 213.124 71.5399 213.467 71.2261C213.811 70.9122 214.217 70.673 214.658 70.5236C215.1 70.3742 215.567 70.3179 216.032 70.3582Z" fill="#222A41"/>
<path d="M220.599 74.1252C220.599 75.6926 221.424 76.1603 222.249 76.1603C222.562 76.1465 222.87 76.069 223.152 75.9324C223.434 75.7959 223.685 75.6033 223.889 75.3664C224.094 75.1296 224.247 74.8535 224.341 74.5552C224.434 74.257 224.465 73.9428 224.432 73.6322V70.4973H225.396V76.8808H224.432V75.5283C224.268 75.988 223.96 76.3828 223.553 76.6539C223.146 76.925 222.662 77.0578 222.173 77.0325C220.777 77.0325 219.635 76.2361 219.635 74.1378V70.4973H220.599V74.1252Z" fill="#222A41"/>
<path d="M228.455 72.0395C228.515 71.5801 228.74 71.1577 229.087 70.8492C229.434 70.5406 229.88 70.3664 230.346 70.3583C230.528 70.3559 230.71 70.3903 230.879 70.4594V71.4074C230.693 71.3176 230.488 71.2743 230.282 71.281C229.419 71.281 228.455 72.0268 228.455 74.4538V76.8935H227.49V70.4973H228.455V72.0395Z" fill="#222A41"/>
<path d="M232.566 67.6405C232.661 67.6387 232.755 67.6563 232.843 67.692C232.931 67.7277 233.011 67.781 233.077 67.8484C233.144 67.9158 233.196 67.9961 233.23 68.0842C233.264 68.1724 233.28 68.2666 233.277 68.361C233.28 68.4549 233.265 68.5486 233.23 68.6361C233.196 68.7236 233.143 68.803 233.077 68.8695C233.01 68.9359 232.93 68.9879 232.842 69.0223C232.755 69.0566 232.661 69.0725 232.566 69.0689C232.473 69.0707 232.38 69.0535 232.294 69.0184C232.208 68.9833 232.129 68.931 232.064 68.8647C231.999 68.7985 231.948 68.7196 231.914 68.633C231.88 68.5464 231.865 68.4539 231.868 68.361C231.863 68.2672 231.877 68.1733 231.91 68.0852C231.943 67.997 231.994 67.9166 232.059 67.849C232.125 67.7814 232.204 67.7279 232.291 67.6921C232.378 67.6562 232.472 67.6386 232.566 67.6405ZM233.061 76.8934H232.097V70.4973H233.061V76.8934Z" fill="#222A41"/>
<path d="M236.449 74.9594C236.449 75.8821 236.932 76.2234 237.401 76.2234C237.518 76.2359 237.637 76.2236 237.749 76.1873C237.861 76.1509 237.964 76.0915 238.052 76.0127C238.139 75.934 238.209 75.8377 238.257 75.7303C238.304 75.6228 238.328 75.5066 238.328 75.3892C238.326 75.2333 238.296 75.079 238.239 74.9341H239.127C239.194 75.1206 239.229 75.3174 239.229 75.5156C239.225 75.7442 239.173 75.9695 239.076 76.1767C238.979 76.3839 238.839 76.5682 238.665 76.7175C238.491 76.8668 238.288 76.9777 238.067 77.0429C237.847 77.108 237.616 77.126 237.389 77.0956C236.437 77.0956 235.485 76.6406 235.485 74.972V71.2683H234.406V70.4972H235.485L235.713 68.5632H236.449V70.4972H238.531V71.2683H236.449V74.9594Z" fill="#222A41"/>
<path d="M244.8 70.4973H245.916L241.97 79.7502H240.98L242.224 76.7923L239.457 70.4973H240.561L242.731 75.7052L244.8 70.4973Z" fill="#222A41"/>
<path d="M18.7578 61.0421V14.2213H57.5017L53.7073 23.9799H30.6488V33.2833H50.0905L46.4991 42.511H30.6488V61.0421H18.7578Z" fill="#222A41"/>
<path d="M49.127 61.0548L67.325 14.2845H78.4038L96.8684 61.0548H84.3937L81.1703 52.7625H64.5078L61.4113 61.0548H49.127ZM67.0585 43.2568H78.4799L72.9088 26.824L67.0585 43.2568Z" fill="#222A41"/>
<path d="M123.011 13.4882C130.536 13.4882 135.498 16.0921 140.333 20.0486L134.559 28.4167C131.457 25.4514 127.31 23.8173 123.011 23.8661C114.419 23.8661 109.051 29.9589 109.051 37.6443C109.051 45.3298 114.432 51.4226 123.011 51.4226C127.31 51.4714 131.457 49.8373 134.559 46.872L140.333 55.2401C135.498 59.1839 130.523 61.8005 123.011 61.8005C107.097 61.7879 97.084 50.6515 97.084 37.6317C97.084 24.6119 107.097 13.4882 123.011 13.4882Z" fill="#222A41"/>
<path d="M147.135 61.0421V14.2213H179.508V23.9799H159.026V33.2833H176.818V42.511H159.026V51.2836H179.508V61.0421H147.135Z" fill="#222A41"/>
<path d="M199.926 61.0547H188.01V14.2845H199.901V35.1668L212.756 14.2213H224.812V15.8267L211.144 36.8986L216.386 46.9352C218.924 51.7513 220.078 52.219 222.502 52.219C223.69 52.0907 224.823 51.6549 225.789 50.9549C227.058 53.7611 228.403 56.4409 229.685 59.1839C226.83 60.8942 223.549 61.7702 220.218 61.7121C214.571 61.7121 209.469 58.8426 206.259 52.0167L199.913 39.2371L199.926 61.0547Z" fill="#222A41"/>
<path d="M7.47638 22.6526H6.99414V7.76196H21.9435V8.22967H7.47638V22.6526Z" fill="#F8B427"/>
<path d="M7.47638 22.6526H6.99414V7.76196H21.9435V8.22967H7.47638V22.6526Z" stroke="#F8B427" stroke-width="2.85" stroke-miterlimit="10"/>
<path d="M21.9435 66.8441H6.99414V51.9535H7.47638V66.3638H21.9435V66.8441Z" fill="#F8B427"/>
<path d="M21.9435 66.8441H6.99414V51.9535H7.47638V66.3638H21.9435V66.8441Z" stroke="#F8B427" stroke-width="2.85" stroke-miterlimit="10"/>
<path d="M66.3087 66.8441H51.3594V66.3638H65.8265V51.9535H66.3087V66.8441Z" fill="#F8B427"/>
<path d="M66.3087 66.8441H51.3594V66.3638H65.8265V51.9535H66.3087V66.8441Z" stroke="#F8B427" stroke-width="2.85" stroke-miterlimit="10"/>
<path d="M66.3087 22.6526H65.8265V8.22967H51.3594V7.76196H66.3087V22.6526Z" fill="#F8B427"/>
<path d="M66.3087 22.6526H65.8265V8.22967H51.3594V7.76196H66.3087V22.6526Z" stroke="#F8B427" stroke-width="2.85" stroke-miterlimit="10"/>
<path d="M246.146 14.3478H234.242V61.2318H246.146V14.3478Z" fill="#222A41"/>
</g>
</svg>
