<svg width="97" height="43" viewBox="0 0 97 43" fill="none" xmlns="http://www.w3.org/2000/svg">
<path d="M5.70455 14V3.09091H8.90057C9.51136 3.09091 10.0511 3.22763 10.5199 3.50107C10.9922 3.7745 11.3615 4.15092 11.6278 4.63033C11.8977 5.10973 12.0327 5.66193 12.0327 6.28693C12.0327 6.90483 11.8977 7.45348 11.6278 7.93288C11.3615 8.40874 10.9922 8.78338 10.5199 9.05682C10.0511 9.3267 9.51136 9.46165 8.90057 9.46165H5.875V9.12074H8.90057C9.44744 9.12074 9.9304 9 10.3494 8.75852C10.7685 8.51705 11.0969 8.18324 11.3349 7.7571C11.5728 7.33097 11.6918 6.84091 11.6918 6.28693C11.6918 5.7294 11.5728 5.2358 11.3349 4.80611C11.0969 4.37642 10.7685 4.04084 10.3494 3.79936C9.9304 3.55433 9.44744 3.43182 8.90057 3.43182H6.04545V14H5.70455ZM17.3554 14.1705C16.7126 14.1705 16.1356 13.9858 15.6242 13.6165C15.1128 13.2436 14.708 12.7376 14.4097 12.0984C14.115 11.4556 13.9676 10.733 13.9676 9.9304C13.9676 9.12429 14.115 8.40163 14.4097 7.76243C14.708 7.12322 15.1128 6.61896 15.6242 6.24964C16.1356 5.87678 16.7126 5.69034 17.3554 5.69034C17.9981 5.69034 18.5734 5.87678 19.0812 6.24964C19.5926 6.62251 19.9974 7.12855 20.2957 7.76776C20.594 8.40696 20.7432 9.12784 20.7432 9.9304C20.7432 10.733 20.594 11.4556 20.2957 12.0984C20.001 12.7376 19.5979 13.2436 19.0866 13.6165C18.5752 13.9858 17.9981 14.1705 17.3554 14.1705ZM17.3554 13.8295C17.9342 13.8295 18.4527 13.6591 18.9108 13.3182C19.3724 12.9773 19.7364 12.5121 20.0028 11.9226C20.2691 11.3331 20.4023 10.669 20.4023 9.9304C20.4023 9.19176 20.2673 8.52947 19.9974 7.94354C19.7311 7.35405 19.3689 6.88885 18.9108 6.54794C18.4527 6.20348 17.9342 6.03125 17.3554 6.03125C16.7801 6.03125 16.2616 6.20348 15.8 6.54794C15.3419 6.88885 14.9779 7.35405 14.708 7.94354C14.4417 8.52947 14.3085 9.19176 14.3085 9.9304C14.3085 10.669 14.4417 11.3331 14.708 11.9226C14.9743 12.5121 15.3366 12.9773 15.7947 13.3182C16.2563 13.6591 16.7765 13.8295 17.3554 13.8295ZM24.613 14L22.184 5.81818H22.5463L24.8261 13.5312H24.8687L27.1698 5.81818H27.5107L29.8119 13.5312H29.8545L32.1343 5.81818H32.4965L30.0676 14H29.5988L27.3616 6.45739H27.319L25.0818 14H24.613ZM37.5063 14.1705C36.7925 14.1705 36.1675 13.984 35.6313 13.6112C35.0986 13.2383 34.6849 12.7322 34.3902 12.093C34.0954 11.4538 33.9481 10.733 33.9481 9.9304C33.9481 9.12784 34.0954 8.40696 34.3902 7.76776C34.6885 7.12855 35.0933 6.62251 35.6047 6.24964C36.116 5.87678 36.6931 5.69034 37.3358 5.69034C37.8117 5.69034 38.252 5.79155 38.6569 5.99396C39.0653 6.19638 39.4204 6.47692 39.7222 6.83558C40.0241 7.19425 40.2584 7.60795 40.4253 8.0767C40.5958 8.5419 40.681 9.03906 40.681 9.56818V9.90909H34.1185V9.56818H40.3401C40.3401 8.91122 40.2052 8.31641 39.9353 7.78374C39.6654 7.24751 39.3032 6.82138 38.8486 6.50533C38.3941 6.18928 37.8898 6.03125 37.3358 6.03125C36.7748 6.03125 36.267 6.19815 35.8124 6.53196C35.3579 6.86577 34.9939 7.32031 34.7204 7.8956C34.447 8.47088 34.3032 9.12074 34.289 9.84517V9.88778C34.289 10.6016 34.4133 11.2585 34.6618 11.8587C34.914 12.4553 35.2797 12.9329 35.7591 13.2915C36.2385 13.6502 36.8209 13.8295 37.5063 13.8295C38.0106 13.8295 38.4331 13.7408 38.7741 13.5632C39.1185 13.3857 39.3937 13.1815 39.5997 12.9506C39.8092 12.7198 39.9637 12.5227 40.0631 12.3594L40.3401 12.5511C40.2194 12.7571 40.0383 12.9862 39.7968 13.2383C39.5553 13.4904 39.2464 13.7088 38.8699 13.8935C38.4935 14.0781 38.039 14.1705 37.5063 14.1705ZM43.0953 14V5.81818H43.4363V7.1179H43.4789C43.6706 6.69176 43.9849 6.35085 44.4217 6.09517C44.862 5.83949 45.3645 5.71165 45.9292 5.71165C45.9718 5.71165 46.0002 5.71165 46.0144 5.71165C46.0286 5.71165 46.057 5.71165 46.0996 5.71165V6.05256C46.057 6.05256 46.0286 6.05256 46.0144 6.05256C46.0002 6.05256 45.9718 6.05256 45.9292 6.05256C45.4462 6.05256 45.0165 6.15732 44.6401 6.36683C44.2672 6.57635 43.9725 6.86577 43.7559 7.23508C43.5428 7.6044 43.4363 8.02699 43.4363 8.50284V14H43.0953ZM50.7924 14.1705C50.0787 14.1705 49.4537 13.984 48.9174 13.6112C48.3848 13.2383 47.9711 12.7322 47.6763 12.093C47.3816 11.4538 47.2342 10.733 47.2342 9.9304C47.2342 9.12784 47.3816 8.40696 47.6763 7.76776C47.9746 7.12855 48.3794 6.62251 48.8908 6.24964C49.4022 5.87678 49.9792 5.69034 50.622 5.69034C51.0978 5.69034 51.5382 5.79155 51.943 5.99396C52.3514 6.19638 52.7065 6.47692 53.0083 6.83558C53.3102 7.19425 53.5446 7.60795 53.7115 8.0767C53.8819 8.5419 53.9672 9.03906 53.9672 9.56818V9.90909H47.4047V9.56818H53.6262C53.6262 8.91122 53.4913 8.31641 53.2214 7.78374C52.9515 7.24751 52.5893 6.82138 52.1348 6.50533C51.6802 6.18928 51.176 6.03125 50.622 6.03125C50.0609 6.03125 49.5531 6.19815 49.0985 6.53196C48.644 6.86577 48.28 7.32031 48.0066 7.8956C47.7331 8.47088 47.5893 9.12074 47.5751 9.84517V9.88778C47.5751 10.6016 47.6994 11.2585 47.948 11.8587C48.2001 12.4553 48.5659 12.9329 49.0453 13.2915C49.5247 13.6502 50.1071 13.8295 50.7924 13.8295C51.2967 13.8295 51.7193 13.7408 52.0602 13.5632C52.4047 13.3857 52.6799 13.1815 52.8858 12.9506C53.0953 12.7198 53.2498 12.5227 53.3493 12.3594L53.6262 12.5511C53.5055 12.7571 53.3244 12.9862 53.0829 13.2383C52.8414 13.4904 52.5325 13.7088 52.1561 13.8935C51.7797 14.0781 51.3251 14.1705 50.7924 14.1705ZM59.0448 14.1705C58.3985 14.1705 57.8392 13.9858 57.3669 13.6165C56.8946 13.2436 56.5306 12.7376 56.2749 12.0984C56.0193 11.4592 55.8914 10.7365 55.8914 9.9304C55.8914 9.12784 56.021 8.40696 56.2803 7.76776C56.5395 7.12855 56.9053 6.62251 57.3776 6.24964C57.8499 5.87678 58.4056 5.69034 59.0448 5.69034C59.4781 5.69034 59.8776 5.78089 60.2433 5.962C60.6091 6.13956 60.9269 6.39524 61.1968 6.72905C61.4667 7.0593 61.6727 7.4517 61.8147 7.90625H61.8573V3.09091H62.1982V14H61.8573V11.9545H61.8147C61.6656 12.4055 61.4578 12.7979 61.1915 13.1317C60.9252 13.462 60.6091 13.7177 60.2433 13.8988C59.8811 14.0799 59.4816 14.1705 59.0448 14.1705ZM59.0448 13.8295C59.6237 13.8295 60.1226 13.6591 60.5416 13.3182C60.9642 12.9737 61.2892 12.5085 61.5164 11.9226C61.7437 11.3331 61.8573 10.669 61.8573 9.9304C61.8573 9.19176 61.7419 8.52947 61.5111 7.94354C61.2838 7.35405 60.9589 6.88885 60.5363 6.54794C60.1173 6.20348 59.6201 6.03125 59.0448 6.03125C58.4695 6.03125 57.9706 6.20348 57.548 6.54794C57.129 6.88885 56.8041 7.35405 56.5732 7.94354C56.346 8.52947 56.2323 9.19176 56.2323 9.9304C56.2323 10.669 56.346 11.3331 56.5732 11.9226C56.8005 12.5085 57.1237 12.9737 57.5427 13.3182C57.9653 13.6591 58.466 13.8295 59.0448 13.8295ZM69.8208 14V3.09091H70.1617V7.90625H70.2043C70.3463 7.4517 70.5523 7.0593 70.8222 6.72905C71.0921 6.39524 71.4099 6.13956 71.7757 5.962C72.1414 5.78089 72.5409 5.69034 72.9742 5.69034C73.6134 5.69034 74.1691 5.87678 74.6414 6.24964C75.1137 6.62251 75.4795 7.12855 75.7387 7.76776C75.998 8.40696 76.1276 9.12784 76.1276 9.9304C76.1276 10.7365 75.998 11.4592 75.7387 12.0984C75.483 12.7376 75.1191 13.2436 74.6468 13.6165C74.178 13.9858 73.6205 14.1705 72.9742 14.1705C72.5374 14.1705 72.1361 14.0799 71.7703 13.8988C71.4081 13.7177 71.0938 13.462 70.8275 13.1317C70.5612 12.7979 70.3534 12.4055 70.2043 11.9545H70.1617V14H69.8208ZM70.1617 9.9304C70.1617 10.669 70.2753 11.3331 70.5026 11.9226C70.7298 12.5085 71.053 12.9737 71.472 13.3182C71.8946 13.6591 72.3953 13.8295 72.9742 13.8295C73.553 13.8295 74.0519 13.6591 74.471 13.3182C74.8936 12.9737 75.2185 12.5085 75.4458 11.9226C75.673 11.3331 75.7867 10.669 75.7867 9.9304C75.7867 9.19176 75.6713 8.52947 75.4404 7.94354C75.2132 7.35405 74.8882 6.88885 74.4656 6.54794C74.0466 6.20348 73.5494 6.03125 72.9742 6.03125C72.3989 6.03125 71.8999 6.20348 71.4774 6.54794C71.0583 6.88885 70.7334 7.35405 70.5026 7.94354C70.2753 8.52947 70.1617 9.19176 70.1617 9.9304ZM78.6098 17.0682C78.4713 17.0682 78.324 17.0487 78.1677 17.0096C78.0115 16.9741 77.8534 16.9226 77.6936 16.8551L77.8215 16.5568C78.173 16.706 78.4926 16.7592 78.7803 16.7166C79.0715 16.6776 79.3271 16.5444 79.5473 16.3171C79.771 16.0898 79.9557 15.772 80.1013 15.3636L80.5381 14.1491L77.5551 5.81818H77.9173L80.6872 13.5739H80.7298L83.4997 5.81818H83.8619L80.4209 15.4915C80.3002 15.8324 80.1492 16.12 79.9681 16.3544C79.787 16.5888 79.5811 16.7663 79.3502 16.8871C79.123 17.0078 78.8762 17.0682 78.6098 17.0682Z" fill="#747171"/>
<path d="M5.17188 39.9393V23.2958H18.8841L17.5405 26.7674H9.38121V30.0721H16.2615L14.9916 33.3534H9.38211V39.9393H5.17367H5.17188Z" fill="#504F4F"/>
<path d="M15.9198 39.9393L22.363 23.2958H26.286L32.8244 39.9393H28.4015L27.2598 36.991H21.3632L20.2691 39.9393H15.918H15.9198ZM22.2679 33.6145H26.3103L24.3366 27.7655L22.2679 33.6145Z" fill="#504F4F"/>
<path d="M42.0725 23.0346C44.7354 23.0346 46.4954 23.9618 48.207 25.3646L46.1625 28.3363C44.9975 27.2664 43.6656 26.7198 42.0725 26.7198C39.029 26.7198 37.1272 28.8837 37.1272 31.6176C37.1272 34.3514 39.029 36.5153 42.0725 36.5153C43.6656 36.5153 44.9975 35.9687 46.1625 34.8989L48.207 37.8705C46.4954 39.2734 44.7354 40.2005 42.0725 40.2005C36.4379 40.2005 32.8945 36.2532 32.8945 31.6167C32.8945 26.9801 36.437 23.0338 42.0725 23.0338V23.0346Z" fill="#504F4F"/>
<path d="M50.6133 39.9393V23.2958H62.0736V26.7674H54.8217V30.0721H61.1223V33.3534H54.8217V36.4677H62.0736V39.9393H50.6133Z" fill="#504F4F"/>
<path d="M69.2983 39.9393H65.0898V23.2958H69.2983V30.738L73.8397 23.2958H78.0957V23.8667L73.2689 31.3564L75.1231 34.9231C76.0027 36.6347 76.4308 36.8016 77.287 36.8016C77.5958 36.8016 78.0481 36.6356 78.452 36.3735C78.9035 37.3724 79.3792 38.3229 79.8315 39.2985C78.5947 39.9645 77.7394 40.2023 76.4793 40.2023C74.4823 40.2023 72.6747 39.18 71.5573 36.7549L69.2983 32.2135V39.9411V39.9393Z" fill="#504F4F"/>
<path d="M1.17053 26.2926H1V21H6.29264V21.1705H1.17053V26.2926Z" fill="#504F4F" stroke="#A5A2A2" stroke-width="2" stroke-miterlimit="10"/>
<path d="M6.29264 42H1V36.7074H1.17053V41.8295H6.29264V42Z" fill="#504F4F" stroke="#A5A2A2" stroke-width="2" stroke-miterlimit="10"/>
<path d="M21.9997 42H16.707V41.8295H21.8291V36.7074H21.9997V42Z" fill="#504F4F" stroke="#A5A2A2" stroke-width="2" stroke-miterlimit="10"/>
<path d="M21.9997 26.2926H21.8291V21.1705H16.707V21H21.9997V26.2926Z" fill="#504F4F" stroke="#A5A2A2" stroke-width="2" stroke-miterlimit="10"/>
<path d="M85.6621 40.0031H81.4492V23.3425H85.6621V40.0031Z" fill="#504F4F"/>
</svg>
