<svg width="108" height="66" viewBox="0 0 108 66" fill="none" xmlns="http://www.w3.org/2000/svg">
<g clip-path="url(#clip0_289_1225)">
<path d="M102.721 44.3451H5.51562V48.4974H102.721V44.3451Z" fill="#4C4E64"/>
<path d="M102.721 49.9017H5.51562V54.054H102.721V49.9017Z" fill="#4C4E64"/>
<path d="M102.721 55.3557H5.51562V59.508H102.721V55.3557Z" fill="#4C4E64"/>
<path d="M101.746 0.701366H5.25037C2.46324 0.701366 0.203125 2.91439 0.203125 5.64344V60.3576C0.203125 63.0866 2.46324 65.2997 5.25037 65.2997H101.746C104.533 65.2997 106.793 63.0866 106.793 60.3565V5.64239C106.793 2.91334 104.533 0.700317 101.746 0.700317V0.701366Z" stroke="#4C4E64" stroke-width="3" stroke-miterlimit="10"/>
<path d="M101.747 65.3416H5.25131C2.44384 65.3416 0.160157 63.1065 0.160157 60.3576V5.6434C0.159085 2.89442 2.44277 0.658325 5.25024 0.658325H101.746C104.553 0.658325 106.837 2.89338 106.837 5.64235V60.3565C106.837 63.1055 104.553 65.3416 101.746 65.3416H101.747ZM5.25024 0.745378C2.49204 0.745378 0.247991 2.94267 0.247991 5.6434V60.3576C0.247991 63.0583 2.49204 65.2556 5.25131 65.2556H101.747C104.505 65.2556 106.749 63.0572 106.749 60.3565V5.64235C106.749 2.94162 104.505 0.744329 101.746 0.744329H5.25024V0.745378Z" stroke="#4C4E64" stroke-width="3" stroke-miterlimit="10"/>
<path d="M69.6213 22.8484C66.3189 24.6168 62.9052 26.2047 59.349 27.4234C55.8356 28.6285 52.1744 29.4739 48.4522 29.7025C46.6206 29.8147 44.7439 29.8137 42.924 29.5599C41.2391 29.3249 39.4899 28.7439 38.4916 27.306C38.0439 26.6609 37.7772 25.89 37.8564 25.1045C37.9261 24.4112 38.271 23.7735 38.7476 23.2648C39.7631 22.1814 41.2787 21.55 42.7055 21.1787C44.188 20.7938 46.0025 20.7508 47.0137 22.0849C47.8684 23.2134 47.8117 24.7783 47.6381 26.1019C47.5921 26.4533 47.5321 26.8025 47.4646 27.1507C47.4453 27.2525 47.5085 27.3458 47.6199 27.35C48.8378 27.392 49.6894 26.361 50.4777 25.6016C50.8676 25.2272 51.294 24.8328 51.8156 24.644C52.0941 24.5433 52.3908 24.5077 52.6854 24.5528C53.1342 24.622 53.5487 24.8255 53.9986 24.8937C54.4217 24.9576 54.8298 24.8601 55.1469 24.5685C55.4232 24.3157 55.5496 23.9382 55.3493 23.6025C55.2604 23.4547 54.9862 23.5533 55.0558 23.7242C55.4671 24.7384 56.5651 25.3918 57.6726 25.3488C58.8198 25.3037 59.7292 24.4594 59.9938 23.3886C60.1406 22.795 60.0838 22.1667 59.7957 21.6213C59.7474 21.5301 59.6136 21.5217 59.5429 21.5898C58.1579 22.9365 58.1557 25.0835 58.9901 26.7134C59.439 27.5902 60.1352 28.3055 61.0039 28.7911C61.9926 29.3438 63.1323 29.5945 64.2666 29.6071C65.5702 29.6218 66.8652 29.3291 68.0574 28.8205C68.247 28.7397 68.0831 28.4681 67.8957 28.5488C65.9376 29.3858 63.5372 29.6333 61.5588 28.7187C60.6858 28.3149 59.9563 27.7056 59.4582 26.8927C59.0009 26.146 58.7406 25.2775 58.7374 24.4059C58.7341 23.4431 59.0662 22.4981 59.771 21.8122L59.5182 21.7807C59.9627 22.625 59.7453 23.7179 59.0898 24.3986C58.4342 25.0793 57.3288 25.2052 56.459 24.772C55.9759 24.5308 55.5678 24.1395 55.3654 23.6424L55.0719 23.7641C55.2519 24.063 54.968 24.3567 54.7098 24.4941C54.3574 24.6807 53.9729 24.5874 53.6098 24.4804C53.2285 24.3671 52.8493 24.2266 52.4444 24.2214C52.1905 24.2182 51.9356 24.2654 51.6989 24.3546C50.6641 24.7458 50.0011 25.7117 49.1817 26.3935C48.7371 26.7627 48.2187 27.0584 47.6189 27.0375L47.7742 27.2367C48.0452 25.824 48.2701 24.2539 47.7795 22.8621C47.546 22.2003 47.1347 21.6203 46.5477 21.2154C45.8729 20.7497 45.0331 20.5945 44.2201 20.626C43.36 20.6595 42.5127 20.8756 41.7051 21.1588C40.9735 21.4157 40.2569 21.7356 39.6067 22.1562C38.9843 22.559 38.4124 23.0593 38.0214 23.6875C37.6304 24.3158 37.4483 25.0866 37.5522 25.8334C37.7868 27.5178 39.1889 28.7628 40.7367 29.3543C41.5969 29.6826 42.5138 29.842 43.4285 29.9385C44.3819 30.0381 45.3437 30.0791 46.3024 30.0833C48.2369 30.0906 50.1693 29.9207 52.077 29.6102C53.9847 29.2998 55.8763 28.8446 57.7283 28.2814C59.5911 27.715 61.4174 27.0375 63.2094 26.2833C65.01 25.525 66.7742 24.687 68.5073 23.7934C68.9347 23.5732 69.3588 23.3498 69.783 23.1232C69.964 23.0257 69.8023 22.754 69.6213 22.8516V22.8484Z" fill="#222A41"/>
</g>
<defs>
<clipPath id="clip0_289_1225">
<rect y="0.5" width="107" height="65" rx="4" fill="white"/>
</clipPath>
</defs>
</svg>
