<svg width="105" height="65" viewBox="0 0 105 65" fill="none" xmlns="http://www.w3.org/2000/svg">
<g clip-path="url(#clip0_292_3071)">
<path d="M71.1984 16.3982H41.6797V20.4866H71.1984V16.3982Z" fill="#4C4E64"/>
<path d="M81.2314 21.9375H41.6797V26.0259H81.2314V21.9375Z" fill="#4C4E64"/>
<path d="M76.4509 27.4758H41.6797V31.5643H76.4509V27.4758Z" fill="#4C4E64"/>
<path d="M80.9345 46.149H41.3828V50.2375H80.9345V46.149Z" fill="#4C4E64"/>
<path d="M80.9345 51.6202H41.3828V55.7087H80.9345V51.6202Z" fill="#4C4E64"/>
<path d="M99.8476 0.698176H5.15602C2.421 0.698176 0.203125 2.87715 0.203125 5.56422V59.4366C0.203125 62.1237 2.421 64.3027 5.15602 64.3027H99.8476C102.583 64.3027 104.801 62.1237 104.801 59.4356V5.56318C104.801 2.87612 102.583 0.697144 99.8476 0.697144V0.698176Z" stroke="#4C4E64" stroke-width="3" stroke-miterlimit="10"/>
<path d="M99.8478 64.344H5.15615C2.40115 64.344 0.160157 62.1434 0.160157 59.4367V5.56427C0.159105 2.85758 2.4001 0.655884 5.1551 0.655884H99.8467C102.602 0.655884 104.843 2.85655 104.843 5.56323V59.4356C104.843 62.1423 102.602 64.344 99.8467 64.344H99.8478ZM5.1551 0.741597C2.44845 0.741597 0.246349 2.90509 0.246349 5.56427V59.4367C0.246349 62.0958 2.44845 64.2593 5.15615 64.2593H99.8478C102.554 64.2593 104.757 62.0948 104.757 59.4356V5.56323C104.757 2.90405 102.554 0.740564 99.8467 0.740564H5.1551V0.741597Z" stroke="#4C4E64" stroke-width="3" stroke-miterlimit="10"/>
<path d="M33.042 15.9026H9.15625V41.9171H33.042V15.9026Z" fill="#CCCCCC"/>
<path d="M33.0431 41.917L31.6398 36.2899C31.3844 35.2644 30.5466 34.4796 29.4934 34.271C25.6116 33.5037 21.2505 33.7929 21.2505 33.7929C21.2505 33.7929 16.6066 33.4676 12.6018 34.3794C11.5991 34.6076 10.817 35.3811 10.5679 36.3622L9.15625 41.916H33.042L33.0431 41.917Z" fill="#4C4E64"/>
<path d="M26.3014 26.3993C26.3103 22.8187 23.9749 19.9105 21.085 19.9036C18.1952 19.8966 15.8453 22.7936 15.8364 26.3742C15.8275 29.9548 18.163 32.863 21.0528 32.87C23.9426 32.8769 26.2925 29.9799 26.3014 26.3993Z" fill="#4C4E64"/>
<path d="M39.6523 10.323H40.6972V7.08656H39.6523V6.6394H42.2802V7.08656H41.2353V10.323H42.2802V10.7702H39.6523V10.323Z" fill="#383737"/>
<path d="M43.4453 6.6394H44.4838C45.7462 6.6394 46.4326 7.37571 46.4326 8.6862C46.4326 9.99668 45.7473 10.7702 44.5101 10.7702H43.4464V6.6394H43.4453ZM44.4449 10.3354C45.4004 10.3354 45.8745 9.73128 45.8745 8.68517C45.8745 7.63905 45.4004 7.07313 44.4449 7.07313H43.9835V10.3344H44.4449V10.3354Z" fill="#383737"/>
<path d="M50.9961 8.70376C50.9961 7.37468 51.7844 6.56299 52.8808 6.56299C53.3874 6.56299 53.7847 6.80257 54.0349 7.06694L53.7269 7.4005C53.5093 7.17331 53.2329 7.02873 52.8808 7.02873C52.0798 7.02873 51.5542 7.66487 51.5542 8.69136C51.5542 9.71786 52.0798 10.3788 52.8808 10.3788C53.2655 10.3788 53.5598 10.2146 53.8226 9.92543L54.1305 10.2466C53.8036 10.6246 53.3874 10.8445 52.8293 10.8445C51.7907 10.8445 50.9961 10.0514 50.9961 8.70376Z" fill="#383737"/>
<path d="M56.037 6.6394H56.6519L58.0677 10.7702H57.4907L56.7664 8.4652C56.6193 8.00565 56.4784 7.5523 56.3502 7.07313H56.325C56.1904 7.55127 56.0559 8.00462 55.9087 8.4652L55.1719 10.7702H54.6211L56.037 6.6394ZM55.3705 9.08895H57.2994V9.51751H55.3705V9.08895Z" fill="#383737"/>
<path d="M58.9023 6.6394H60.2162C61.0687 6.6394 61.6899 6.94198 61.6899 7.80428C61.6899 8.66658 61.0687 9.02595 60.2162 9.02595H59.4468V10.7702H58.9023V6.6394ZM60.1395 8.59739C60.7933 8.59739 61.1518 8.33302 61.1518 7.80428C61.1518 7.27554 60.7923 7.06797 60.1395 7.06797H59.4468V8.59842H60.1395V8.59739ZM60.5305 8.60358L61.8129 10.7702H61.2043L60.108 8.88138L60.5305 8.60462V8.60358Z" fill="#383737"/>
<path d="M62.6719 6.6394H63.7104C64.9728 6.6394 65.6592 7.37571 65.6592 8.6862C65.6592 9.99668 64.9738 10.7702 63.7367 10.7702H62.6729V6.6394H62.6719ZM63.6715 10.3354C64.627 10.3354 65.101 9.73128 65.101 8.68517C65.101 7.63905 64.627 7.07313 63.6715 7.07313H63.2101V10.3344H63.6715V10.3354Z" fill="#383737"/>
</g>
<defs>
<clipPath id="clip0_292_3071">
<rect y="0.5" width="105" height="64" rx="4" fill="white"/>
</clipPath>
</defs>
</svg>
