<svg width="167" height="166" viewBox="0 0 167 166" fill="none" xmlns="http://www.w3.org/2000/svg">
<path d="M34 149V20H141L130.521 46.8866H66.8395V72.5194H120.532L110.614 97.9433H66.8395V149H34Z" fill="white"/>
<path d="M3.35484 43H2V2H44V3.28778H3.35484V43Z" fill="#F8B427"/>
<path d="M3.35484 43H2V2H44V3.28778H3.35484V43Z" stroke="#F8B427" stroke-width="2.85" stroke-miterlimit="10"/>
<path d="M44 164H2V124H3.35484V162.71H44V164Z" fill="#F8B427"/>
<path d="M44 164H2V124H3.35484V162.71H44V164Z" stroke="#F8B427" stroke-width="2.85" stroke-miterlimit="10"/>
<path d="M165 164H124V162.71H163.677V124H165V164Z" fill="#F8B427"/>
<path d="M165 164H124V162.71H163.677V124H165V164Z" stroke="#F8B427" stroke-width="2.85" stroke-miterlimit="10"/>
<path d="M165 43H163.677V3.28778H124V2H165V43Z" fill="#F8B427"/>
<path d="M165 43H163.677V3.28778H124V2H165V43Z" stroke="#F8B427" stroke-width="2.85" stroke-miterlimit="10"/>
</svg>
