<svg width="59" height="66" viewBox="0 0 59 66" fill="none" xmlns="http://www.w3.org/2000/svg">
<path d="M58.9974 0.872314H0V65.1277H58.9974V0.872314Z" fill="#CCCCCC"/>
<path d="M59 65.1278L55.534 51.2288C54.9031 48.696 52.8339 46.7574 50.2324 46.2422C40.6444 44.347 29.8726 45.0612 29.8726 45.0612C29.8726 45.0612 18.4023 44.2577 8.51054 46.51C6.03371 47.0737 4.10209 48.9842 3.48678 51.4074L0 65.1252H58.9974L59 65.1278Z" fill="#4C4E64"/>
<path d="M42.3451 26.7991C42.3671 17.9551 36.5986 10.7718 29.4608 10.7547C22.323 10.7375 16.5189 17.8931 16.4969 26.7371C16.4749 35.581 22.2434 42.7644 29.3812 42.7815C36.519 42.7986 42.3231 35.6431 42.3451 26.7991Z" fill="#4C4E64"/>
</svg>
