<svg width="547" height="384" viewBox="0 0 547 384" fill="none" xmlns="http://www.w3.org/2000/svg">
<path d="M77.5897 372.4C10.6201 327.435 -31.4533 230.162 29.5472 182.371C90.5476 134.581 -27.5983 69.5556 165.406 18.0069C302.321 -18.569 330.535 82.5471 402.865 73.4711C492.037 62.2826 550.392 140.222 546.847 234.112C543.911 311.918 510.08 373 510.08 373L77.5897 372.4Z" fill="#FFEABE"/>
<path d="M180.36 348.573C182.917 348.573 184.989 346.5 184.989 343.944C184.989 341.387 182.917 339.314 180.36 339.314C177.803 339.314 175.73 341.387 175.73 343.944C175.73 346.5 177.803 348.573 180.36 348.573Z" fill="white"/>
<path opacity="0.5" d="M422.196 110.664H225.456C218.704 110.664 213.208 115.237 213.208 120.879V195.329C208.473 197.215 203.622 199.305 200.356 200.685C193.163 203.739 170.235 209.243 166.822 214.297C163.409 219.351 160.788 221.466 160.086 233.828C159.433 245.463 158.387 277.675 153.276 299.378L147.944 296.749L142.718 307.364L141.722 309.372L138.072 307.568L108 368.464V371.338H198.723L212.155 344.14L207.436 341.812L209.477 337.681L213.658 329.214L207.125 326.005C212.996 318.885 219.071 311.609 225.742 302.097C229.653 296.52 231.939 281.643 231.939 281.643C231.939 281.643 234.618 287.832 239.778 284.403C244.938 280.974 246.081 271.845 246.081 271.845C246.081 271.845 253.046 275.307 255.676 270.171C258.305 265.035 257.513 251.701 257.513 251.701C257.513 251.701 262.453 247.039 267.458 241.642H422.196C428.949 241.642 434.444 237.069 434.444 231.427V120.879C434.411 115.237 428.982 110.664 422.196 110.664Z" fill="#D4D4D4"/>
<path fill-rule="evenodd" clip-rule="evenodd" d="M193.473 315.104C199.801 307.396 206.333 299.713 213.568 289.4C217.479 283.823 219.765 268.946 219.765 268.946C219.765 268.946 222.443 275.136 227.604 271.706C232.764 268.277 233.907 259.148 233.907 259.148C233.907 259.148 240.872 262.61 243.501 257.474C246.13 252.338 245.338 239.005 245.338 239.005C245.338 239.005 252.622 232.13 258.452 225.426C260.7 222.881 262.758 220.174 264.608 217.326C265.253 216.395 265.866 215.473 266.429 214.542C267.874 214.142 274.782 212.027 274.235 207.822C273.966 205.748 272.104 203.739 269.728 201.861C269.206 200.227 268.184 198.799 266.805 197.779C265.365 196.69 263.586 196.146 261.783 196.244C261.301 195.892 260.852 195.541 260.436 195.19C256.043 191.524 248.188 187.646 238.545 185.172C228.902 182.697 219.512 176.737 214.948 177.676C210.383 178.615 195.351 184.967 188.149 188.021C180.948 191.075 158.02 196.554 154.631 201.608C151.243 206.662 148.597 208.777 147.895 221.139C147.193 233.501 146.066 269.118 140.073 290.649C138.538 296.063 193.473 315.104 193.473 315.104Z" fill="#E2A379"/>
<g opacity="0.4">
<path fill-rule="evenodd" clip-rule="evenodd" d="M246.196 187.784C246.963 187.98 247.714 188.193 248.458 188.405C245.225 187.094 241.908 186.003 238.529 185.139L237.916 184.967C240.614 186.08 243.379 187.021 246.196 187.784Z" fill="#C48B65"/>
<path fill-rule="evenodd" clip-rule="evenodd" d="M227.505 271.763L227.424 271.584V271.837L227.505 271.763Z" fill="#C48B65"/>
<path fill-rule="evenodd" clip-rule="evenodd" d="M147.707 293.295C153.701 271.763 154.835 236.139 155.53 223.785C156.224 211.431 158.845 209.308 162.266 204.254C165.687 199.199 188.615 193.696 195.8 190.642C202.986 187.588 218.034 181.236 222.598 180.297C223.579 180.142 224.58 180.181 225.546 180.411C221.12 178.59 217.381 177.145 214.931 177.66C210.359 178.599 195.335 184.951 188.133 188.005C180.931 191.059 158.02 196.554 154.631 201.608C151.243 206.662 148.597 208.777 147.895 221.139C147.193 233.501 146.066 269.118 140.073 290.649C138.562 296.063 193.498 315.104 193.498 315.104L193.555 315.031C178.506 309.576 146.556 297.435 147.707 293.295Z" fill="#C48B65"/>
</g>
<path fill-rule="evenodd" clip-rule="evenodd" d="M195.367 247.79C197.074 243.577 173.525 249.783 187.414 240.025C192.216 236.653 165.532 222.405 173.052 220.633C182.785 218.347 190.705 218.608 188.019 208.802C186.443 203.037 208.162 206.074 212.318 203.633C216.474 201.192 217.283 200.636 222.525 199.836C226.836 199.175 233.956 199.836 237.394 199.746C241.256 199.648 241.476 198.636 246.114 199.942C251.209 201.379 248.817 199.191 230.6 215.905C223.251 222.65 218.205 228.97 213.625 232.848C206.202 239.119 201.001 241.642 195.367 247.79Z" fill="#C48B65"/>
<path d="M422.188 218.722C422.188 224.364 416.718 228.937 409.941 228.937H213.233C206.481 228.937 200.985 224.364 200.985 218.722V108.215C200.985 102.573 206.456 98 213.233 98H409.965C416.718 98 422.213 102.573 422.213 108.215L422.188 218.722Z" fill="#D3D3D3"/>
<g opacity="0.3">
<mask id="mask0_131_68" style="mask-type:luminance" maskUnits="userSpaceOnUse" x="200" y="98" width="223" height="131">
<path d="M422.188 218.722C422.188 224.364 416.718 228.937 409.941 228.937H213.233C206.481 228.937 200.985 224.364 200.985 218.722V108.215C200.985 102.573 206.456 98 213.233 98H409.965C416.718 98 422.213 102.573 422.213 108.215L422.188 218.722Z" fill="white"/>
</mask>
<g mask="url(#mask0_131_68)">
<path d="M190.387 100.45C195.931 100.45 195.931 104.279 201.483 104.279C207.036 104.279 207.028 100.45 212.572 100.45C218.116 100.45 218.116 104.279 223.66 104.279C229.204 104.279 229.204 100.45 234.748 100.45C240.292 100.45 240.292 104.279 245.837 104.279C251.381 104.279 251.381 100.45 256.925 100.45C262.469 100.45 262.469 104.279 268.021 104.279C273.574 104.279 273.566 100.45 279.11 100.45C284.654 100.45 284.654 104.279 290.198 104.279C295.742 104.279 295.742 100.45 301.286 100.45C306.831 100.45 306.831 104.279 312.375 104.279C317.919 104.279 317.919 100.45 323.463 100.45C329.007 100.45 329.007 104.279 334.56 104.279C340.112 104.279 340.104 100.45 345.648 100.45C351.192 100.45 351.192 104.279 356.744 104.279C362.297 104.279 362.289 100.45 367.841 100.45C373.393 100.45 373.385 104.279 378.937 104.279C384.49 104.279 384.482 100.45 390.026 100.45C395.57 100.45 395.57 104.279 401.122 104.279C406.674 104.279 406.666 100.45 412.219 100.45C417.771 100.45 417.763 104.279 423.315 104.279C428.867 104.279 428.859 100.45 434.412 100.45" stroke="#F9F9F9" stroke-width="1.69" stroke-miterlimit="10"/>
<path d="M190.387 106.843C195.931 106.843 195.931 110.672 201.483 110.672C207.036 110.672 207.028 106.843 212.572 106.843C218.116 106.843 218.116 110.672 223.66 110.672C229.204 110.672 229.204 106.843 234.748 106.843C240.292 106.843 240.292 110.672 245.837 110.672C251.381 110.672 251.381 106.843 256.925 106.843C262.469 106.843 262.469 110.672 268.021 110.672C273.574 110.672 273.566 106.843 279.11 106.843C284.654 106.843 284.67 110.664 290.174 110.664C295.677 110.664 295.718 106.835 301.262 106.835C306.806 106.835 306.806 110.664 312.35 110.664C317.894 110.664 317.894 106.835 323.439 106.835C328.983 106.835 328.983 110.664 334.535 110.664C340.087 110.664 340.079 106.835 345.623 106.835C351.168 106.835 351.168 110.664 356.72 110.664C362.272 110.664 362.264 106.835 367.816 106.835C373.369 106.835 373.361 110.664 378.913 110.664C384.465 110.664 384.457 106.835 390.001 106.835C395.545 106.835 395.586 110.664 401.138 110.664C406.691 110.664 406.683 106.835 412.235 106.835C417.787 106.835 417.779 110.664 423.331 110.664C428.884 110.664 428.876 106.835 434.428 106.835" stroke="#F9F9F9" stroke-width="1.69" stroke-miterlimit="10"/>
<path d="M190.387 114.51C195.931 114.51 195.931 118.339 201.483 118.339C207.036 118.339 207.028 114.51 212.572 114.51C218.116 114.51 218.116 118.339 223.66 118.339C229.204 118.339 229.204 114.51 234.748 114.51C240.292 114.51 240.292 118.339 245.837 118.339C251.381 118.339 251.381 114.51 256.925 114.51C262.469 114.51 262.469 118.339 268.021 118.339C273.574 118.339 273.566 114.51 279.11 114.51C284.654 114.51 284.654 118.339 290.198 118.339C295.742 118.339 295.742 114.51 301.286 114.51C306.831 114.51 306.831 118.339 312.375 118.339C317.919 118.339 317.919 114.51 323.463 114.51C329.007 114.51 329.007 118.339 334.56 118.339C340.112 118.339 340.104 114.51 345.648 114.51C351.192 114.51 351.192 118.339 356.744 118.339C362.297 118.339 362.289 114.51 367.841 114.51C373.393 114.51 373.385 118.339 378.937 118.339C384.49 118.339 384.482 114.51 390.026 114.51C395.57 114.51 395.57 118.339 401.122 118.339C406.674 118.339 406.666 114.51 412.219 114.51C417.771 114.51 417.763 118.339 423.315 118.339C428.867 118.339 428.859 114.51 434.412 114.51" stroke="#F9F9F9" stroke-width="1.69" stroke-miterlimit="10"/>
<path d="M190.387 120.895C195.931 120.895 195.931 124.725 201.483 124.725C207.036 124.725 207.028 120.895 212.572 120.895C218.116 120.895 218.116 124.725 223.66 124.725C229.204 124.725 229.204 120.895 234.748 120.895C240.292 120.895 240.292 124.725 245.837 124.725C251.381 124.725 251.381 120.895 256.925 120.895C262.469 120.895 262.469 124.725 268.021 124.725C273.574 124.725 273.566 120.895 279.11 120.895C284.654 120.895 284.654 124.725 290.198 124.725C295.742 124.725 295.742 120.895 301.286 120.895C306.831 120.895 306.831 124.725 312.375 124.725C317.919 124.725 317.919 120.895 323.463 120.895C329.007 120.895 329.007 124.725 334.56 124.725C340.112 124.725 340.104 120.895 345.648 120.895C351.192 120.895 351.192 124.725 356.744 124.725C362.297 124.725 362.289 120.895 367.841 120.895C373.393 120.895 373.385 124.725 378.937 124.725C384.49 124.725 384.482 120.895 390.026 120.895C395.57 120.895 395.57 124.725 401.122 124.725C406.674 124.725 406.666 120.895 412.219 120.895C417.771 120.895 417.763 124.725 423.315 124.725C428.867 124.725 428.859 120.895 434.412 120.895" stroke="#F9F9F9" stroke-width="1.69" stroke-miterlimit="10"/>
<path d="M190.387 127.925C195.931 127.925 195.931 131.755 201.483 131.755C207.036 131.755 207.028 127.925 212.572 127.925C218.116 127.925 218.116 131.755 223.66 131.755C229.204 131.755 229.204 127.925 234.748 127.925C240.292 127.925 240.292 131.755 245.837 131.755C251.381 131.755 251.381 127.925 256.925 127.925C262.469 127.925 262.469 131.755 268.021 131.755C273.574 131.755 273.566 127.925 279.11 127.925C284.654 127.925 284.654 131.755 290.198 131.755C295.742 131.755 295.742 127.925 301.286 127.925C306.831 127.925 306.831 131.755 312.375 131.755C317.919 131.755 317.919 127.925 323.463 127.925C329.007 127.925 329.007 131.755 334.56 131.755C340.112 131.755 340.104 127.925 345.648 127.925C351.192 127.925 351.192 131.755 356.744 131.755C362.297 131.755 362.289 127.925 367.841 127.925C373.393 127.925 373.385 131.755 378.937 131.755C384.49 131.755 384.482 127.925 390.026 127.925C395.57 127.925 395.57 131.755 401.122 131.755C406.674 131.755 406.666 127.925 412.219 127.925C417.771 127.925 417.763 131.755 423.315 131.755C428.867 131.755 428.859 127.925 434.412 127.925" stroke="#F9F9F9" stroke-width="1.69" stroke-miterlimit="10"/>
<path d="M190.387 134.343C195.931 134.343 195.931 138.173 201.483 138.173C207.036 138.173 207.027 134.343 212.604 134.343C218.181 134.343 218.148 138.173 223.693 138.173C229.237 138.173 229.237 134.343 234.781 134.343C240.325 134.343 240.325 138.173 245.869 138.173C251.413 138.173 251.389 134.343 256.933 134.343C262.477 134.343 262.477 138.173 268.03 138.173C273.582 138.173 273.574 134.343 279.118 134.343C284.662 134.343 284.662 138.173 290.206 138.173C295.75 138.173 295.75 134.343 301.295 134.343C306.839 134.343 306.839 138.173 312.383 138.173C317.927 138.173 317.935 134.343 323.488 134.343C329.04 134.343 329.032 138.173 334.584 138.173C340.136 138.173 340.128 134.343 345.697 134.343C351.266 134.343 351.241 138.173 356.793 138.173C362.346 138.173 362.338 134.343 367.89 134.343C373.442 134.343 373.434 138.173 378.986 138.173C384.539 138.173 384.53 134.343 390.075 134.343C395.619 134.343 395.619 138.173 401.171 138.173C406.723 138.173 406.715 134.343 412.268 134.343C417.82 134.343 417.812 138.173 423.364 138.173C428.916 138.173 428.908 134.343 434.461 134.343" stroke="#F9F9F9" stroke-width="1.69" stroke-miterlimit="10"/>
<path d="M190.387 141.978C195.931 141.978 195.931 145.807 201.483 145.807C207.036 145.807 207.028 141.978 212.572 141.978C218.116 141.978 218.116 145.807 223.66 145.807C229.204 145.807 229.204 141.978 234.748 141.978C240.292 141.978 240.292 145.807 245.837 145.807C251.381 145.807 251.381 141.978 256.925 141.978C262.469 141.978 262.469 145.807 268.021 145.807C273.574 145.807 273.566 141.978 279.11 141.978C284.654 141.978 284.67 145.775 290.174 145.775C295.677 145.775 295.718 141.945 301.262 141.945C306.806 141.945 306.806 145.775 312.35 145.775C317.894 145.775 317.894 141.945 323.439 141.945C328.983 141.945 328.983 145.775 334.535 145.775C340.087 145.775 340.079 141.945 345.623 141.945C351.168 141.945 351.168 145.775 356.72 145.775C362.272 145.775 362.264 141.945 367.816 141.945C373.369 141.945 373.361 145.775 378.913 145.775C384.465 145.775 384.457 141.945 390.001 141.945C395.545 141.945 395.586 145.775 401.138 145.775C406.691 145.775 406.683 141.945 412.235 141.945C417.787 141.945 417.779 145.775 423.331 145.775C428.884 145.775 428.876 141.945 434.428 141.945" stroke="#F9F9F9" stroke-width="1.69" stroke-miterlimit="10"/>
<path d="M190.387 148.363C195.931 148.363 195.931 152.192 201.483 152.192C207.036 152.192 207.028 148.363 212.572 148.363C218.116 148.363 218.116 152.192 223.66 152.192C229.204 152.192 229.204 148.363 234.748 148.363C240.292 148.363 240.292 152.192 245.837 152.192C251.381 152.192 251.381 148.363 256.925 148.363C262.469 148.363 262.469 152.192 268.021 152.192C273.574 152.192 273.566 148.363 279.11 148.363C284.654 148.363 284.654 152.192 290.198 152.192C295.742 152.192 295.742 148.363 301.286 148.363C306.831 148.363 306.831 152.192 312.375 152.192C317.919 152.192 317.919 148.363 323.463 148.363C329.007 148.363 329.007 152.192 334.56 152.192C340.112 152.192 340.104 148.363 345.648 148.363C351.192 148.363 351.192 152.192 356.744 152.192C362.297 152.192 362.289 148.363 367.841 148.363C373.393 148.363 373.385 152.192 378.937 152.192C384.49 152.192 384.482 148.363 390.026 148.363C395.57 148.363 395.57 152.192 401.122 152.192C406.674 152.192 406.666 148.363 412.219 148.363C417.771 148.363 417.763 152.192 423.315 152.192C428.867 152.192 428.859 148.363 434.412 148.363" stroke="#F9F9F9" stroke-width="1.69" stroke-miterlimit="10"/>
<path d="M190.387 154.756C195.931 154.756 195.931 158.586 201.483 158.586C207.036 158.586 207.027 154.756 212.604 154.756C218.181 154.756 218.148 158.586 223.693 158.586C229.237 158.586 229.237 154.756 234.781 154.756C240.325 154.756 240.325 158.586 245.869 158.586C251.413 158.586 251.389 154.756 256.933 154.756C262.477 154.756 262.477 158.586 268.03 158.586C273.582 158.586 273.574 154.756 279.118 154.756C284.662 154.756 284.662 158.586 290.206 158.586C295.75 158.586 295.75 154.756 301.295 154.756C306.839 154.756 306.839 158.586 312.383 158.586C317.927 158.586 317.935 154.756 323.488 154.756C329.04 154.756 329.032 158.586 334.584 158.586C340.136 158.586 340.128 154.756 345.697 154.756C351.266 154.756 351.241 158.586 356.793 158.586C362.346 158.586 362.338 154.756 367.89 154.756C373.442 154.756 373.434 158.586 378.986 158.586C384.539 158.586 384.53 154.756 390.075 154.756C395.619 154.756 395.619 158.586 401.171 158.586C406.723 158.586 406.715 154.756 412.268 154.756C417.82 154.756 417.812 158.586 423.364 158.586C428.916 158.586 428.908 154.756 434.461 154.756" stroke="#F9F9F9" stroke-width="1.69" stroke-miterlimit="10"/>
<path d="M190.387 161.141C195.931 161.141 195.931 164.971 201.483 164.971C207.036 164.971 207.028 161.141 212.572 161.141C218.116 161.141 218.116 164.971 223.66 164.971C229.204 164.971 229.204 161.141 234.748 161.141C240.292 161.141 240.292 164.971 245.837 164.971C251.381 164.971 251.381 161.141 256.925 161.141C262.469 161.141 262.469 164.971 268.021 164.971C273.574 164.971 273.566 161.141 279.11 161.141C284.654 161.141 284.654 164.971 290.198 164.971C295.742 164.971 295.742 161.141 301.286 161.141C306.831 161.141 306.831 164.971 312.375 164.971C317.919 164.971 317.919 161.141 323.463 161.141C329.007 161.141 329.007 164.971 334.56 164.971C340.112 164.971 340.104 161.141 345.648 161.141C351.192 161.141 351.192 164.971 356.744 164.971C362.297 164.971 362.289 161.141 367.841 161.141C373.393 161.141 373.385 164.971 378.937 164.971C384.49 164.971 384.482 161.141 390.026 161.141C395.57 161.141 395.57 164.971 401.122 164.971C406.674 164.971 406.666 161.141 412.219 161.141C417.771 161.141 417.763 164.971 423.315 164.971C428.867 164.971 428.859 161.141 434.412 161.141" stroke="#F9F9F9" stroke-width="1.69" stroke-miterlimit="10"/>
<path d="M190.387 168.809C195.931 168.809 195.931 172.638 201.483 172.638C207.036 172.638 207.028 168.809 212.572 168.809C218.116 168.809 218.116 172.638 223.66 172.638C229.204 172.638 229.204 168.809 234.748 168.809C240.292 168.809 240.292 172.638 245.837 172.638C251.381 172.638 251.381 168.809 256.925 168.809C262.469 168.809 262.469 172.638 268.021 172.638C273.574 172.638 273.566 168.809 279.11 168.809C284.654 168.809 284.654 172.638 290.198 172.638C295.742 172.638 295.742 168.809 301.286 168.809C306.831 168.809 306.831 172.638 312.375 172.638C317.919 172.638 317.919 168.809 323.463 168.809C329.007 168.809 329.007 172.638 334.56 172.638C340.112 172.638 340.104 168.809 345.648 168.809C351.192 168.809 351.192 172.638 356.744 172.638C362.297 172.638 362.289 168.809 367.841 168.809C373.393 168.809 373.385 172.638 378.937 172.638C384.49 172.638 384.482 168.809 390.026 168.809C395.57 168.809 395.57 172.638 401.122 172.638C406.674 172.638 406.666 168.809 412.219 168.809C417.771 168.809 417.763 172.638 423.315 172.638C428.867 172.638 428.859 168.809 434.412 168.809" stroke="#F9F9F9" stroke-width="1.69" stroke-miterlimit="10"/>
<path d="M190.387 175.169C195.931 175.169 195.931 178.999 201.483 178.999C207.036 178.999 207.027 175.169 212.604 175.169C218.181 175.169 218.148 178.999 223.693 178.999C229.237 178.999 229.237 175.169 234.781 175.169C240.325 175.169 240.325 178.999 245.869 178.999C251.413 178.999 251.389 175.169 256.933 175.169C262.477 175.169 262.477 178.999 268.03 178.999C273.582 178.999 273.574 175.169 279.118 175.169C284.662 175.169 284.662 178.999 290.206 178.999C295.75 178.999 295.75 175.169 301.295 175.169C306.839 175.169 306.839 178.999 312.383 178.999C317.927 178.999 317.935 175.169 323.488 175.169C329.04 175.169 329.032 178.999 334.584 178.999C340.136 178.999 340.128 175.169 345.697 175.169C351.266 175.169 351.241 178.999 356.793 178.999C362.346 178.999 362.338 175.169 367.89 175.169C373.442 175.169 373.434 178.999 378.986 178.999C384.539 178.999 384.53 175.169 390.075 175.169C395.619 175.169 395.619 178.999 401.171 178.999C406.723 178.999 406.715 175.169 412.268 175.169C417.82 175.169 417.812 178.999 423.364 178.999C428.916 178.999 428.908 175.169 434.461 175.169" stroke="#F9F9F9" stroke-width="1.69" stroke-miterlimit="10"/>
<path d="M190.387 182.224C195.931 182.224 195.931 186.053 201.483 186.053C207.036 186.053 207.028 182.224 212.572 182.224C218.116 182.224 218.116 186.053 223.66 186.053C229.204 186.053 229.204 182.224 234.748 182.224C240.292 182.224 240.292 186.053 245.837 186.053C251.381 186.053 251.381 182.224 256.925 182.224C262.469 182.224 262.469 186.053 268.021 186.053C273.574 186.053 273.566 182.224 279.11 182.224C284.654 182.224 284.654 186.053 290.198 186.053C295.742 186.053 295.742 182.224 301.286 182.224C306.831 182.224 306.831 186.053 312.375 186.053C317.919 186.053 317.919 182.224 323.463 182.224C329.007 182.224 329.007 186.053 334.56 186.053C340.112 186.053 340.104 182.224 345.648 182.224C351.192 182.224 351.192 186.053 356.744 186.053C362.297 186.053 362.289 182.224 367.841 182.224C373.393 182.224 373.385 186.053 378.937 186.053C384.49 186.053 384.482 182.224 390.026 182.224C395.57 182.224 395.57 186.053 401.122 186.053C406.674 186.053 406.666 182.224 412.219 182.224C417.771 182.224 417.763 186.053 423.315 186.053C428.867 186.053 428.859 182.224 434.412 182.224" stroke="#F9F9F9" stroke-width="1.69" stroke-miterlimit="10"/>
<path d="M190.387 188.609C195.931 188.609 195.931 192.439 201.483 192.439C207.036 192.439 207.028 188.609 212.572 188.609C218.116 188.609 218.116 192.439 223.66 192.439C229.204 192.439 229.204 188.609 234.748 188.609C240.292 188.609 240.292 192.439 245.837 192.439C251.381 192.439 251.381 188.609 256.925 188.609C262.469 188.609 262.469 192.439 268.021 192.439C273.574 192.439 273.566 188.609 279.11 188.609C284.654 188.609 284.654 192.439 290.198 192.439C295.742 192.439 295.742 188.609 301.286 188.609C306.831 188.609 306.831 192.439 312.375 192.439C317.919 192.439 317.919 188.609 323.463 188.609C329.007 188.609 329.007 192.439 334.56 192.439C340.112 192.439 340.104 188.609 345.648 188.609C351.192 188.609 351.192 192.439 356.744 192.439C362.297 192.439 362.289 188.609 367.841 188.609C373.393 188.609 373.385 192.439 378.937 192.439C384.49 192.439 384.482 188.609 390.026 188.609C395.57 188.609 395.57 192.439 401.122 192.439C406.674 192.439 406.666 188.609 412.219 188.609C417.771 188.609 417.763 192.439 423.315 192.439C428.867 192.439 428.859 188.609 434.412 188.609" stroke="#F9F9F9" stroke-width="1.69" stroke-miterlimit="10"/>
<path d="M190.387 196.276C195.931 196.276 195.931 200.106 201.483 200.106C207.036 200.106 207.028 196.276 212.572 196.276C218.116 196.276 218.116 200.106 223.66 200.106C229.204 200.106 229.204 196.276 234.748 196.276C240.292 196.276 240.292 200.106 245.837 200.106C251.381 200.106 251.381 196.276 256.925 196.276C262.469 196.276 262.469 200.106 268.021 200.106C273.574 200.106 273.566 196.276 279.11 196.276C284.654 196.276 284.654 200.106 290.198 200.106C295.742 200.106 295.742 196.276 301.286 196.276C306.831 196.276 306.831 200.106 312.375 200.106C317.919 200.106 317.919 196.276 323.463 196.276C329.007 196.276 329.007 200.106 334.56 200.106C340.112 200.106 340.104 196.276 345.648 196.276C351.192 196.276 351.192 200.106 356.744 200.106C362.297 200.106 362.289 196.276 367.841 196.276C373.393 196.276 373.385 200.106 378.937 200.106C384.49 200.106 384.482 196.276 390.026 196.276C395.57 196.276 395.57 200.106 401.122 200.106C406.674 200.106 406.666 196.276 412.219 196.276C417.771 196.276 417.763 200.106 423.315 200.106C428.867 200.106 428.859 196.276 434.412 196.276" stroke="#F9F9F9" stroke-width="1.69" stroke-miterlimit="10"/>
<path d="M190.387 202.67C195.931 202.67 195.931 206.499 201.483 206.499C207.036 206.499 207.028 202.67 212.572 202.67C218.116 202.67 218.116 206.499 223.66 206.499C229.204 206.499 229.204 202.67 234.748 202.67C240.292 202.67 240.292 206.499 245.837 206.499C251.381 206.499 251.381 202.67 256.925 202.67C262.469 202.67 262.469 206.499 268.021 206.499C273.574 206.499 273.566 202.67 279.11 202.67C284.654 202.67 284.654 206.499 290.198 206.499C295.742 206.499 295.742 202.67 301.286 202.67C306.831 202.67 306.831 206.499 312.375 206.499C317.919 206.499 317.919 202.67 323.463 202.67C329.007 202.67 329.007 206.499 334.56 206.499C340.112 206.499 340.104 202.67 345.648 202.67C351.192 202.67 351.192 206.499 356.744 206.499C362.297 206.499 362.289 202.67 367.841 202.67C373.393 202.67 373.385 206.499 378.937 206.499C384.49 206.499 384.482 202.67 390.026 202.67C395.57 202.67 395.57 206.499 401.122 206.499C406.674 206.499 406.666 202.67 412.219 202.67C417.771 202.67 417.763 206.499 423.315 206.499C428.867 206.499 428.859 202.67 434.412 202.67" stroke="#F9F9F9" stroke-width="1.69" stroke-miterlimit="10"/>
<path d="M190.387 209.692C195.931 209.692 195.931 213.521 201.483 213.521C207.036 213.521 207.028 209.692 212.572 209.692C218.116 209.692 218.116 213.521 223.66 213.521C229.204 213.521 229.204 209.692 234.748 209.692C240.292 209.692 240.292 213.521 245.837 213.521C251.381 213.521 251.381 209.692 256.925 209.692C262.469 209.692 262.469 213.521 268.021 213.521C273.574 213.521 273.566 209.692 279.11 209.692C284.654 209.692 284.67 213.546 290.174 213.546C295.677 213.546 295.718 209.716 301.262 209.716C306.806 209.716 306.806 213.546 312.35 213.546C317.894 213.546 317.894 209.716 323.439 209.716C328.983 209.716 328.983 213.546 334.535 213.546C340.087 213.546 340.079 209.716 345.623 209.716C351.168 209.716 351.168 213.546 356.72 213.546C362.272 213.546 362.264 209.716 367.816 209.716C373.369 209.716 373.361 213.546 378.913 213.546C384.465 213.546 384.457 209.716 390.001 209.716C395.545 209.716 395.586 213.546 401.138 213.546C406.691 213.546 406.683 209.716 412.235 209.716C417.787 209.716 417.779 213.546 423.331 213.546C428.884 213.546 428.876 209.716 434.428 209.716" stroke="#F9F9F9" stroke-width="1.69" stroke-miterlimit="10"/>
<path d="M190.387 216.722C195.931 216.722 195.931 220.551 201.483 220.551C207.036 220.551 207.028 216.722 212.572 216.722C218.116 216.722 218.116 220.551 223.66 220.551C229.204 220.551 229.204 216.722 234.748 216.722C240.292 216.722 240.292 220.551 245.837 220.551C251.381 220.551 251.381 216.722 256.925 216.722C262.469 216.722 262.469 220.551 268.021 220.551C273.574 220.551 273.566 216.722 279.11 216.722C284.654 216.722 284.654 220.551 290.198 220.551C295.742 220.551 295.742 216.722 301.286 216.722C306.831 216.722 306.831 220.551 312.375 220.551C317.919 220.551 317.919 216.722 323.463 216.722C329.007 216.722 329.007 220.551 334.56 220.551C340.112 220.551 340.104 216.722 345.648 216.722C351.192 216.722 351.192 220.551 356.744 220.551C362.297 220.551 362.289 216.722 367.841 216.722C373.393 216.722 373.385 220.551 378.937 220.551C384.49 220.551 384.482 216.722 390.026 216.722C395.57 216.722 395.57 220.551 401.122 220.551C406.674 220.551 406.666 216.722 412.219 216.722C417.771 216.722 417.763 220.551 423.315 220.551C428.867 220.551 428.859 216.722 434.412 216.722" stroke="#F9F9F9" stroke-width="1.69" stroke-miterlimit="10"/>
<path d="M190.387 223.107C195.931 223.107 195.931 226.936 201.483 226.936C207.036 226.936 207.028 223.107 212.572 223.107C218.116 223.107 218.116 226.936 223.66 226.936C229.204 226.936 229.204 223.107 234.748 223.107C240.292 223.107 240.292 226.936 245.837 226.936C251.381 226.936 251.381 223.107 256.925 223.107C262.469 223.107 262.469 226.936 268.021 226.936C273.574 226.936 273.566 223.107 279.11 223.107C284.654 223.107 284.654 226.936 290.198 226.936C295.742 226.936 295.742 223.107 301.286 223.107C306.831 223.107 306.831 226.936 312.375 226.936C317.919 226.936 317.919 223.107 323.463 223.107C329.007 223.107 329.007 226.936 334.56 226.936C340.112 226.936 340.104 223.107 345.648 223.107C351.192 223.107 351.192 226.936 356.744 226.936C362.297 226.936 362.289 223.107 367.841 223.107C373.393 223.107 373.385 226.936 378.937 226.936C384.49 226.936 384.482 223.107 390.026 223.107C395.57 223.107 395.57 226.936 401.122 226.936C406.674 226.936 406.666 223.107 412.219 223.107C417.771 223.107 417.763 226.936 423.315 226.936C428.867 226.936 428.859 223.107 434.412 223.107" stroke="#F9F9F9" stroke-width="1.69" stroke-miterlimit="10"/>
</g>
</g>
<path d="M418.13 109.399H206.676V141.341H418.13V109.399Z" fill="#8EA3A8"/>
<path d="M414.195 141.341V116.755C414.195 115.041 412.562 113.661 410.594 113.661H214.237C212.253 113.661 210.636 115.049 210.636 116.755V141.341H414.195Z" fill="#EE9E6A"/>
<path d="M279.828 126.007H222.754C220.99 126.007 219.561 127.436 219.561 129.199V190.536C219.561 192.299 220.99 193.729 222.754 193.729H279.828C281.591 193.729 283.021 192.299 283.021 190.536V129.199C283.021 127.436 281.591 126.007 279.828 126.007Z" fill="#D9D9DB"/>
<path d="M276.758 129.64H225.815C224.242 129.64 222.966 130.916 222.966 132.49V187.237C222.966 188.811 224.242 190.087 225.815 190.087H276.758C278.332 190.087 279.608 188.811 279.608 187.237V132.49C279.608 130.916 278.332 129.64 276.758 129.64Z" fill="#F2F1F2"/>
<path d="M270.748 200.481C270.748 200.756 270.639 201.02 270.445 201.214C270.25 201.409 269.986 201.518 269.711 201.518C269.436 201.518 269.173 201.409 268.978 201.214C268.784 201.02 268.674 200.756 268.674 200.481V195.819C268.674 195.544 268.784 195.28 268.978 195.086C269.173 194.891 269.436 194.782 269.711 194.782C269.986 194.782 270.25 194.891 270.445 195.086C270.639 195.28 270.748 195.544 270.748 195.819V200.481Z" fill="#EE9E6A"/>
<path d="M269.712 204.915C270.379 204.915 270.92 204.374 270.92 203.706C270.92 203.039 270.379 202.498 269.712 202.498C269.044 202.498 268.503 203.039 268.503 203.706C268.503 204.374 269.044 204.915 269.712 204.915Z" fill="#EE9E6A"/>
<path d="M270.748 211.398C270.748 211.673 270.639 211.937 270.445 212.131C270.25 212.326 269.986 212.435 269.711 212.435C269.436 212.435 269.173 212.326 268.978 212.131C268.784 211.937 268.674 211.673 268.674 211.398V206.736C268.674 206.6 268.701 206.465 268.753 206.339C268.805 206.213 268.882 206.099 268.978 206.003C269.074 205.906 269.189 205.83 269.315 205.778C269.44 205.726 269.575 205.699 269.711 205.699C269.848 205.699 269.982 205.726 270.108 205.778C270.234 205.83 270.348 205.906 270.445 206.003C270.541 206.099 270.617 206.213 270.669 206.339C270.722 206.465 270.748 206.6 270.748 206.736V211.398Z" fill="#EE9E6A"/>
<path d="M270.748 222.282C270.748 222.557 270.639 222.821 270.445 223.016C270.25 223.21 269.986 223.319 269.711 223.319C269.436 223.319 269.173 223.21 268.978 223.016C268.784 222.821 268.674 222.557 268.674 222.282V217.628C268.674 217.353 268.784 217.089 268.978 216.895C269.173 216.7 269.436 216.591 269.711 216.591C269.986 216.591 270.25 216.7 270.445 216.895C270.639 217.089 270.748 217.353 270.748 217.628V222.282Z" fill="#EE9E6A"/>
<path d="M269.712 215.799C270.379 215.799 270.92 215.258 270.92 214.591C270.92 213.923 270.379 213.382 269.712 213.382C269.044 213.382 268.503 213.923 268.503 214.591C268.503 215.258 269.044 215.799 269.712 215.799Z" fill="#EE9E6A"/>
<path d="M323.137 200.481C323.137 200.756 323.027 201.02 322.833 201.214C322.638 201.409 322.375 201.518 322.1 201.518C321.825 201.518 321.561 201.409 321.366 201.214C321.172 201.02 321.063 200.756 321.063 200.481V195.819C321.063 195.544 321.172 195.28 321.366 195.086C321.561 194.891 321.825 194.782 322.1 194.782C322.375 194.782 322.638 194.891 322.833 195.086C323.027 195.28 323.137 195.544 323.137 195.819V200.481Z" fill="#EE9E6A"/>
<path d="M322.099 204.915C322.767 204.915 323.308 204.374 323.308 203.706C323.308 203.039 322.767 202.498 322.099 202.498C321.432 202.498 320.891 203.039 320.891 203.706C320.891 204.374 321.432 204.915 322.099 204.915Z" fill="#EE9E6A"/>
<path d="M323.137 211.398C323.137 211.673 323.027 211.937 322.833 212.131C322.638 212.326 322.375 212.435 322.1 212.435C321.825 212.435 321.561 212.326 321.366 212.131C321.172 211.937 321.063 211.673 321.063 211.398V206.736C321.063 206.6 321.089 206.465 321.142 206.339C321.194 206.213 321.27 206.099 321.366 206.003C321.463 205.906 321.577 205.83 321.703 205.778C321.829 205.726 321.963 205.699 322.1 205.699C322.375 205.699 322.638 205.808 322.833 206.003C323.027 206.197 323.137 206.461 323.137 206.736V211.398Z" fill="#EE9E6A"/>
<path d="M323.137 222.282C323.14 222.421 323.115 222.558 323.065 222.687C323.014 222.815 322.938 222.933 322.842 223.031C322.745 223.13 322.63 223.209 322.502 223.263C322.375 223.316 322.238 223.344 322.1 223.344C321.825 223.344 321.561 223.235 321.366 223.04C321.172 222.846 321.063 222.582 321.063 222.307V217.628C321.063 217.353 321.172 217.089 321.366 216.895C321.561 216.7 321.825 216.591 322.1 216.591C322.375 216.591 322.638 216.7 322.833 216.895C323.027 217.089 323.137 217.353 323.137 217.628V222.282Z" fill="#EE9E6A"/>
<path d="M322.099 215.799C322.767 215.799 323.308 215.258 323.308 214.591C323.308 213.923 322.767 213.382 322.099 213.382C321.432 213.382 320.891 213.923 320.891 214.591C320.891 215.258 321.432 215.799 322.099 215.799Z" fill="#EE9E6A"/>
<path d="M384.465 200.481C384.465 200.756 384.356 201.02 384.161 201.214C383.967 201.409 383.703 201.518 383.428 201.518C383.153 201.518 382.889 201.409 382.695 201.214C382.5 201.02 382.391 200.756 382.391 200.481V195.819C382.391 195.544 382.5 195.28 382.695 195.086C382.889 194.891 383.153 194.782 383.428 194.782C383.703 194.782 383.967 194.891 384.161 195.086C384.356 195.28 384.465 195.544 384.465 195.819V200.481Z" fill="#EE9E6A"/>
<path d="M383.428 204.915C384.095 204.915 384.636 204.374 384.636 203.706C384.636 203.039 384.095 202.498 383.428 202.498C382.761 202.498 382.22 203.039 382.22 203.706C382.22 204.374 382.761 204.915 383.428 204.915Z" fill="#EE9E6A"/>
<path d="M384.465 211.398C384.465 211.673 384.356 211.937 384.161 212.131C383.967 212.326 383.703 212.435 383.428 212.435C383.153 212.435 382.889 212.326 382.695 212.131C382.5 211.937 382.391 211.673 382.391 211.398V206.736C382.391 206.6 382.418 206.465 382.47 206.339C382.522 206.213 382.599 206.099 382.695 206.003C382.791 205.906 382.906 205.83 383.031 205.778C383.157 205.726 383.292 205.699 383.428 205.699C383.564 205.699 383.699 205.726 383.825 205.778C383.951 205.83 384.065 205.906 384.161 206.003C384.258 206.099 384.334 206.213 384.386 206.339C384.438 206.465 384.465 206.6 384.465 206.736V211.398Z" fill="#EE9E6A"/>
<path d="M384.465 222.282C384.465 222.557 384.356 222.821 384.161 223.016C383.967 223.21 383.703 223.319 383.428 223.319C383.153 223.319 382.889 223.21 382.695 223.016C382.5 222.821 382.391 222.557 382.391 222.282V217.628C382.391 217.353 382.5 217.089 382.695 216.895C382.889 216.7 383.153 216.591 383.428 216.591C383.703 216.591 383.967 216.7 384.161 216.895C384.356 217.089 384.465 217.353 384.465 217.628V222.282Z" fill="#EE9E6A"/>
<path d="M383.428 215.799C384.095 215.799 384.636 215.258 384.636 214.591C384.636 213.923 384.095 213.382 383.428 213.382C382.761 213.382 382.22 213.923 382.22 214.591C382.22 215.258 382.761 215.799 383.428 215.799Z" fill="#EE9E6A"/>
<path d="M254.059 203.739H219.561C217.798 203.739 216.368 205.169 216.368 206.932V207.789C216.368 209.552 217.798 210.982 219.561 210.982H254.059C255.822 210.982 257.251 209.552 257.251 207.789V206.932C257.251 205.169 255.822 203.739 254.059 203.739Z" fill="#8EA3A8"/>
<path d="M254.059 213.962H219.561C217.798 213.962 216.368 215.391 216.368 217.155V218.012C216.368 219.775 217.798 221.205 219.561 221.205H254.059C255.822 221.205 257.251 219.775 257.251 218.012V217.155C257.251 215.391 255.822 213.962 254.059 213.962Z" fill="#8EA3A8"/>
<path d="M311.876 207.781C311.876 209.545 310.872 210.974 309.631 210.974H285.372C284.131 210.974 283.127 209.545 283.127 207.781V206.964C283.127 205.201 284.131 203.772 285.372 203.772H309.631C310.872 203.772 311.876 205.201 311.876 206.964V207.781Z" fill="#8EA3A8"/>
<path d="M311.876 218.004C311.876 219.767 310.872 221.196 309.631 221.196H285.372C284.131 221.196 283.127 219.767 283.127 218.004V217.187C283.127 215.424 284.131 213.995 285.372 213.995H309.631C310.872 213.995 311.876 215.424 311.876 217.187V218.004Z" fill="#8EA3A8"/>
<path d="M371.18 209.912H336.682C334.919 209.912 333.49 211.341 333.49 213.105V213.962C333.49 215.725 334.919 217.155 336.682 217.155H371.18C372.943 217.155 374.373 215.725 374.373 213.962V213.105C374.373 211.341 372.943 209.912 371.18 209.912Z" fill="#8EA3A8"/>
<path d="M411.002 200.334H396.092C394.329 200.334 392.9 201.764 392.9 203.527V218.861C392.9 220.624 394.329 222.054 396.092 222.054H411.002C412.765 222.054 414.194 220.624 414.194 218.861V203.527C414.194 201.764 412.765 200.334 411.002 200.334Z" fill="#8EA3A8"/>
<path d="M406.397 164.554C406.397 166.318 404.266 167.747 401.636 167.747H297.522C294.893 167.747 292.762 166.318 292.762 164.554V151.343C292.762 149.579 294.893 148.151 297.522 148.151H401.636C404.266 148.151 406.397 149.579 406.397 151.343V164.554Z" fill="#8EA3A8"/>
<path d="M405.752 172.85C405.752 174.026 404.331 174.981 402.575 174.981H295.889C294.134 174.981 292.713 174.026 292.713 172.85C292.713 171.674 294.134 170.719 295.889 170.719H402.584C404.339 170.719 405.76 171.674 405.76 172.85H405.752Z" fill="#8EA3A8"/>
<path d="M269.344 177.129C269.341 177.409 269.282 177.687 269.172 177.944C269.061 178.202 268.901 178.436 268.7 178.632C268.499 178.827 268.261 178.981 268 179.085C267.74 179.189 267.461 179.24 267.18 179.235H239.157C238.877 179.24 238.598 179.189 238.338 179.085C238.077 178.981 237.839 178.827 237.638 178.632C237.437 178.436 237.277 178.202 237.166 177.944C237.055 177.687 236.997 177.409 236.994 177.129V159.255C236.997 158.975 237.055 158.698 237.166 158.44C237.277 158.182 237.437 157.948 237.638 157.753C237.839 157.557 238.077 157.403 238.338 157.299C238.598 157.195 238.877 157.144 239.157 157.149H267.189C267.469 157.144 267.748 157.195 268.008 157.299C268.269 157.403 268.507 157.557 268.708 157.753C268.909 157.948 269.069 158.182 269.18 158.44C269.291 158.698 269.349 158.975 269.352 159.255L269.344 177.129Z" fill="#724041"/>
<path d="M238.186 177.031C238.188 177.07 238.182 177.109 238.169 177.146C238.156 177.183 238.135 177.217 238.108 177.246C238.082 177.275 238.05 177.299 238.014 177.315C237.978 177.331 237.939 177.34 237.9 177.341C237.861 177.34 237.822 177.331 237.786 177.315C237.75 177.299 237.718 177.275 237.691 177.246C237.665 177.217 237.644 177.183 237.631 177.146C237.618 177.109 237.612 177.07 237.614 177.031V160.472C237.612 160.433 237.618 160.393 237.631 160.356C237.644 160.319 237.665 160.285 237.691 160.256C237.718 160.227 237.75 160.204 237.786 160.188C237.822 160.172 237.861 160.163 237.9 160.162C237.939 160.163 237.978 160.172 238.014 160.188C238.05 160.204 238.082 160.227 238.108 160.256C238.135 160.285 238.156 160.319 238.169 160.356C238.182 160.393 238.188 160.433 238.186 160.472V177.031Z" fill="#805355"/>
<path d="M252.116 175.692C238.308 175.692 227.122 182.224 227.122 190.201H277.109C277.109 182.191 265.923 175.692 252.116 175.692Z" fill="#19698C"/>
<path d="M254.247 176.427C258.272 176.403 262.277 176.99 266.127 178.166C261.659 176.493 256.919 175.663 252.148 175.716C238.341 175.716 227.155 182.248 227.155 190.226H229.286C229.914 182.518 240.839 176.427 254.247 176.427Z" fill="#0F435E"/>
<path d="M235.556 190.201L237.018 185.841L238.48 190.201H235.556Z" fill="#0F435E"/>
<path d="M266.65 190.201L268.111 185.841L269.581 190.201H266.65Z" fill="#0F435E"/>
<path d="M239.631 154.968C239.631 154.968 237.247 159.868 240.717 166.751C243.493 172.287 248.376 174.745 252.695 174.5C257.015 174.255 261.84 170.793 263.498 166.579C266.764 158.308 266.862 152.699 264.314 148.771C261.767 144.844 241.395 137.209 239.631 154.968Z" fill="#EE9E6A"/>
<path d="M239.68 156.765C239.016 160.085 239.548 163.533 241.182 166.498C243.811 171.732 248.425 174.059 252.516 173.846C256.606 173.634 261.162 170.335 262.738 166.359C263.448 164.85 263.979 163.263 264.322 161.631C261.824 159.631 258.607 155.426 258.607 152.543C251.176 160.472 242.774 157.532 239.68 156.765Z" fill="#F9AE7C"/>
<path d="M270.683 157.81C271.377 151.082 269.205 142.035 263.334 140.777C263.334 140.777 245.583 131.796 238.161 145.562C231.817 157.336 238.978 161.509 238.978 161.509C238.978 161.509 238.765 157.622 239.157 156.308C239.157 156.308 249.38 160.594 260.036 149.269C257.741 157.99 265.098 159.125 264.633 162.334C264.657 162.301 270.177 162.758 270.683 157.81Z" fill="#724041"/>
<path d="M239.843 155.875C239.843 155.875 248.009 159.361 259.489 149.073C259.489 149.041 248.409 156.953 239.843 155.875Z" fill="#805355"/>
<path d="M252.712 174.353C251.198 174.432 249.687 174.152 248.302 173.536C248.302 176.802 248.564 179.252 252.116 179.252C255.667 179.252 255.92 176.688 255.929 173.414C254.921 173.917 253.832 174.235 252.712 174.353Z" fill="#F9AE7C"/>
<path d="M255.929 173.904C255.929 173.773 255.929 173.642 255.929 173.504C255.635 173.642 255.333 173.757 255.031 173.863C255.341 173.895 255.635 173.904 255.929 173.904Z" fill="#EE9E6A"/>
<path d="M251.234 174.353C250.224 174.252 249.236 173.999 248.302 173.601C248.302 176.868 248.564 179.317 252.116 179.317C252.413 179.317 252.711 179.296 253.006 179.252C251.658 178.321 251.315 176.533 251.234 174.353Z" fill="#EE9E6A"/>
<path d="M239.043 161.77C238.703 161.849 238.382 161.997 238.102 162.206C237.822 162.415 237.589 162.68 237.417 162.985C237.246 163.289 237.139 163.625 237.105 163.973C237.07 164.321 237.109 164.672 237.217 165.004C237.326 165.336 237.503 165.642 237.736 165.901C237.97 166.161 238.255 166.37 238.573 166.513C238.892 166.657 239.237 166.733 239.586 166.736C239.936 166.739 240.282 166.669 240.603 166.53C239.858 165.026 239.333 163.423 239.043 161.77Z" fill="#F9AE7C"/>
<path d="M239.231 162.472C239.557 163.599 239.958 164.786 240.431 166.032C240.186 166.169 239.914 166.25 239.634 166.27C239.355 166.29 239.074 166.247 238.812 166.146C238.55 166.045 238.314 165.888 238.12 165.686C237.926 165.483 237.779 165.24 237.689 164.974C237.6 164.709 237.57 164.426 237.602 164.148C237.633 163.869 237.726 163.601 237.873 163.362C238.02 163.123 238.218 162.919 238.453 162.766C238.688 162.612 238.953 162.512 239.231 162.472Z" fill="#EE9E6A"/>
<path d="M265.678 162.529C265.435 162.433 265.179 162.375 264.918 162.358C264.532 163.681 264.045 165.088 263.457 166.579C263.408 166.694 263.359 166.816 263.31 166.93C263.6 167.138 263.931 167.281 264.281 167.35C264.631 167.419 264.992 167.413 265.34 167.333C265.687 167.252 266.013 167.098 266.297 166.881C266.58 166.665 266.815 166.39 266.984 166.076C267.153 165.762 267.254 165.416 267.279 165.06C267.304 164.704 267.253 164.347 267.129 164.012C267.006 163.678 266.813 163.373 266.562 163.119C266.312 162.864 266.01 162.666 265.678 162.538V162.529Z" fill="#F9AE7C"/>
<path d="M264.698 162.962C264.371 164.089 263.971 165.276 263.498 166.522C263.742 166.659 264.015 166.74 264.294 166.76C264.574 166.779 264.855 166.737 265.117 166.636C265.378 166.535 265.614 166.378 265.809 166.175C266.003 165.973 266.15 165.73 266.239 165.464C266.329 165.198 266.359 164.916 266.327 164.637C266.295 164.359 266.203 164.091 266.055 163.852C265.908 163.613 265.71 163.409 265.476 163.256C265.241 163.102 264.976 163.002 264.698 162.962Z" fill="#EE9E6A"/>
<path opacity="0.3" d="M260.861 166.677C261.541 166.677 262.093 166.125 262.093 165.444C262.093 164.764 261.541 164.212 260.861 164.212C260.18 164.212 259.628 164.764 259.628 165.444C259.628 166.125 260.18 166.677 260.861 166.677Z" fill="#EF4F4F"/>
<path opacity="0.3" d="M242.75 166.677C243.431 166.677 243.983 166.125 243.983 165.444C243.983 164.764 243.431 164.212 242.75 164.212C242.069 164.212 241.517 164.764 241.517 165.444C241.517 166.125 242.069 166.677 242.75 166.677Z" fill="#EF4F4F"/>
<path d="M248.711 158.676C248.711 158.676 246.098 155.042 243.109 158.676C243.109 158.676 244.628 156.618 248.711 158.676Z" fill="#4C2F22"/>
<path d="M254.941 158.676C254.941 158.676 257.554 155.042 260.542 158.676C260.542 158.676 259.024 156.618 254.941 158.676Z" fill="#4C2F22"/>
<path d="M246.555 176.851C246.553 177.5 246.727 178.138 247.057 178.696C247.387 179.255 247.861 179.714 248.43 180.026C249 180.338 249.642 180.49 250.291 180.468C250.939 180.445 251.57 180.248 252.116 179.897C252.662 180.248 253.292 180.445 253.941 180.468C254.589 180.49 255.232 180.338 255.801 180.026C256.37 179.714 256.845 179.255 257.175 178.696C257.505 178.138 257.678 177.5 257.676 176.851H246.555Z" fill="#EDEDED"/>
<path d="M247.282 176.851H246.555C246.555 177.811 246.936 178.731 247.615 179.409C248.293 180.087 249.213 180.468 250.172 180.468H250.523C249.631 180.373 248.806 179.951 248.207 179.283C247.609 178.615 247.279 177.748 247.282 176.851Z" fill="#D9D9DB"/>
<path d="M301.24 134.076H305.596V118.676H301.24V134.076ZM308.695 134.076H315.977C321.081 134.076 324.579 131.106 324.579 126.376C324.579 121.646 321.081 118.676 315.977 118.676H308.695V134.076ZM313.051 130.6V122.152H315.801C318.419 122.152 320.179 123.714 320.179 126.376C320.179 129.038 318.419 130.6 315.801 130.6H313.051ZM340.951 134.384C343.789 134.384 346.077 133.35 347.573 131.48L344.801 128.972C343.833 130.138 342.645 130.776 341.171 130.776C338.641 130.776 336.881 129.016 336.881 126.376C336.881 123.736 338.641 121.976 341.171 121.976C342.645 121.976 343.833 122.614 344.801 123.78L347.573 121.272C346.077 119.402 343.789 118.368 340.951 118.368C336.067 118.368 332.481 121.69 332.481 126.376C332.481 131.062 336.067 134.384 340.951 134.384ZM360.785 134.076H365.317L358.497 118.676H354.207L347.409 134.076H351.853L353.063 131.084H359.575L360.785 134.076ZM354.339 127.872L356.319 122.944L358.299 127.872H354.339ZM376.078 134.076H380.742L377.42 129.236C379.334 128.312 380.434 126.64 380.434 124.374C380.434 120.854 377.794 118.676 373.592 118.676H366.552V134.076H370.908V129.984H373.284L376.078 134.076ZM376.034 124.374C376.034 125.782 375.132 126.618 373.328 126.618H370.908V122.108H373.328C375.132 122.108 376.034 122.944 376.034 124.374ZM382.837 134.076H390.119C395.223 134.076 398.721 131.106 398.721 126.376C398.721 121.646 395.223 118.676 390.119 118.676H382.837V134.076ZM387.193 130.6V122.152H389.943C392.561 122.152 394.321 123.714 394.321 126.376C394.321 129.038 392.561 130.6 389.943 130.6H387.193Z" fill="white"/>
<path fill-rule="evenodd" clip-rule="evenodd" d="M245.265 233.607C238.815 241.03 229.523 251.056 222.403 258.266C231.637 252.444 243.697 240.629 250.246 227.279C248.7 229.476 247.037 231.589 245.265 233.607Z" fill="#C48B65"/>
<path fill-rule="evenodd" clip-rule="evenodd" d="M245.265 233.607C247.513 231.062 249.571 228.355 251.421 225.508C254.687 220.862 257.953 216.142 256.451 209.79C255.905 208.257 254.92 206.919 253.618 205.944C249.274 202.531 243.003 204.523 238.504 206.172C227.122 210.304 216.295 223.621 212.555 227.32C207.754 232.064 192.787 246.998 188.664 250.077L210.416 270.865C210.416 270.865 217.577 263.116 221.676 259.009C228.853 251.75 238.561 241.307 245.265 233.607Z" fill="#E2A379"/>
<path fill-rule="evenodd" clip-rule="evenodd" d="M240.439 223.017C237.173 219.416 233.523 215.668 235.997 212.803C238.471 209.937 246.612 202.392 252.769 207.332C258.925 212.272 254.206 219.498 249.584 223.458C244.963 227.418 243.844 226.561 240.439 223.017Z" fill="#F2E2D3"/>
<path d="M235.467 238.041C233.437 233.584 230.237 229.76 226.207 226.977C225.221 226.307 224.157 225.759 223.039 225.344C224.147 226.203 225.205 227.125 226.207 228.104C229.033 230.807 232.511 234.595 235.467 238.041Z" fill="#AD8666"/>
<path d="M218.475 231.664C219.838 235.322 223.039 239.184 226.183 241.658C227.158 242.445 228.221 243.117 229.351 243.659C228.534 242.842 227.408 241.683 226.183 240.393C223.643 237.739 220.598 234.424 218.475 231.664Z" fill="#AD8666"/>
<path d="M214.237 236.024C215.601 239.682 218.802 243.544 221.945 246.019C222.921 246.805 223.984 247.477 225.113 248.019C224.297 247.202 223.17 246.043 221.945 244.753C219.414 242.124 216.377 238.784 214.237 236.024Z" fill="#AD8666"/>
<path opacity="0.4" fill-rule="evenodd" clip-rule="evenodd" d="M245.886 225.899C244.904 223.281 243.389 220.895 241.436 218.894C239.706 216.924 237.627 215.291 235.304 214.076C234.569 216.722 237.639 219.931 240.439 223.058C242.693 225.361 243.95 226.52 245.886 225.899Z" fill="#AD8666"/>
<mask id="mask1_131_68" style="mask-type:luminance" maskUnits="userSpaceOnUse" x="108" y="280" width="98" height="92">
<path d="M205.272 280.19H108V371.338H205.272V280.19Z" fill="white"/>
</mask>
<g mask="url(#mask1_131_68)">
<path d="M125.856 294.828L81.9678 383.708L156.066 420.297L199.955 331.418L125.856 294.828Z" fill="#2C576B"/>
<path opacity="0.4" d="M125.838 294.869L81.9675 383.712L119.335 402.164L163.206 313.321L125.838 294.869Z" fill="#072E40"/>
<path opacity="0.4" d="M125.843 294.856L81.9685 383.707L109.028 397.069L152.902 308.218L125.843 294.856Z" fill="#072E40"/>
<path d="M190.858 343.382C191.941 341.191 191.183 338.606 189.165 337.61C187.148 336.613 184.635 337.581 183.552 339.773C182.469 341.964 183.227 344.548 185.245 345.545C187.262 346.542 189.775 345.573 190.858 343.382Z" fill="white"/>
<path d="M187.063 345.095C186.076 344.552 185.343 343.639 185.026 342.557C184.71 341.476 184.834 340.312 185.373 339.322C185.827 338.39 186.58 337.637 187.513 337.183C186.683 337.198 185.874 337.444 185.177 337.894C184.48 338.344 183.923 338.98 183.569 339.73C183.03 340.72 182.905 341.884 183.222 342.966C183.539 344.048 184.271 344.96 185.259 345.503C185.799 345.768 186.392 345.906 186.994 345.906C187.596 345.906 188.189 345.768 188.729 345.503C188.15 345.497 187.58 345.357 187.063 345.095Z" fill="#AAAAAA"/>
<path d="M185.691 353.827C186.773 351.635 186.015 349.051 183.997 348.054C181.979 347.058 179.467 348.027 178.384 350.219C177.302 352.41 178.061 354.994 180.078 355.991C182.096 356.987 184.609 356.018 185.691 353.827Z" fill="white"/>
<path d="M181.879 355.62C180.891 355.078 180.159 354.167 179.842 353.087C179.525 352.006 179.65 350.844 180.188 349.855C180.642 348.923 181.395 348.169 182.328 347.716C181.498 347.731 180.689 347.977 179.992 348.427C179.296 348.877 178.738 349.513 178.384 350.263C177.845 351.254 177.72 352.417 178.037 353.499C178.354 354.581 179.086 355.493 180.074 356.036C180.614 356.301 181.208 356.439 181.809 356.439C182.411 356.439 183.004 356.301 183.544 356.036C182.964 356.027 182.395 355.884 181.879 355.62Z" fill="#AAAAAA"/>
<path d="M135.726 284.032L129.504 296.632L195.227 329.085L201.448 316.486L135.726 284.032Z" fill="white"/>
<path opacity="0.5" d="M130.506 294.634L129.511 296.647L195.234 329.101L196.228 327.088L130.506 294.634Z" fill="#AAAAAA"/>
<path opacity="0.5" d="M131.548 292.541L129.404 296.883L195.127 329.337L197.27 324.995L131.548 292.541Z" fill="#AAAAAA"/>
</g>
<circle cx="408.5" cy="228.5" r="34.5" fill="#59C547"/>
<path d="M395.206 228.852L404.031 237.676L421.679 218.767" stroke="white" stroke-width="6" stroke-linecap="round" stroke-linejoin="round"/>
<g opacity="0.2">
<path d="M87.9187 172.912C99.5884 172.912 109.049 163.451 109.049 151.782C109.049 140.112 99.5884 130.652 87.9187 130.652C76.249 130.652 66.7888 140.112 66.7888 151.782C66.7888 163.451 76.249 172.912 87.9187 172.912Z" stroke="#263238" stroke-linecap="round" stroke-linejoin="round"/>
<path d="M451.143 91.6103C460.258 90.2831 471.498 94.5114 472.59 104.812C473.577 114.103 467.211 123.605 461.573 130.429C456.253 136.83 448.912 144.053 440.808 146.872C431.564 150.032 428.592 140.459 434.277 134.281C445.611 121.949 472.414 115.841 486.52 126.283C502.412 138.028 491.677 162.916 476.842 170.386C472.015 172.818 467.763 169.74 471.24 164.643C473.871 160.779 478.886 159.005 483.279 158.206C492.041 156.609 505.689 158.559 509.001 168.401" stroke="#263238" stroke-linecap="round" stroke-linejoin="round"/>
<path d="M431.964 99.7028C436.311 96.7385 441.056 94.4054 446.058 92.7731" stroke="#263238" stroke-linecap="round" stroke-linejoin="round"/>
<path d="M423.013 106.609C424.493 105.247 426.055 103.978 427.653 102.768" stroke="#263238" stroke-linecap="round" stroke-linejoin="round"/>
<path d="M276.878 14.7017L280.648 10.7787L234.677 15.2067L260.916 26.447" stroke="#263238" stroke-linecap="round" stroke-linejoin="round"/>
<path d="M263.03 27.3515L280.648 34.892L270.606 21.2321L275.398 16.2404" stroke="#263238" stroke-linecap="round" stroke-linejoin="round"/>
<path d="M362.642 16.7689V1.40598" stroke="#263238" stroke-linecap="round" stroke-linejoin="round"/>
<path d="M362.642 28.0679V21.3966" stroke="#263238" stroke-linecap="round" stroke-linejoin="round"/>
<path d="M379.003 30.1939L390.056 6.98505" stroke="#263238" stroke-linecap="round" stroke-linejoin="round"/>
<path d="M410.117 30.7811L415.214 26.8581" stroke="#263238" stroke-linecap="round" stroke-linejoin="round"/>
<path d="M392.652 44.2765L405.877 34.0933" stroke="#263238" stroke-linecap="round" stroke-linejoin="round"/>
<path d="M37.0259 262.035L13.5 255.904L17.2233 288.004L54.3856 266.569L39.1049 262.587" stroke="#263238" stroke-linecap="round" stroke-linejoin="round"/>
<path d="M497.972 250.267L524 259.252" stroke="#263238" stroke-linecap="round" stroke-linejoin="round"/>
<path d="M483.901 379.301C484.954 380.453 486.232 381.376 487.657 382.013C489.082 382.649 490.622 382.985 492.183 383C493.743 383.014 495.29 382.707 496.726 382.097C498.163 381.487 499.458 380.588 500.532 379.456C501.605 378.323 502.434 376.981 502.966 375.514C503.498 374.047 503.722 372.487 503.624 370.929C503.526 369.372 503.108 367.851 502.396 366.462C501.685 365.074 500.694 363.846 499.487 362.857" stroke="#263238" stroke-linecap="round" stroke-linejoin="round"/>
<path d="M497.479 361.518C495.268 360.351 492.733 359.946 490.269 360.366C487.804 360.786 485.547 362.007 483.847 363.841C482.147 365.675 481.1 368.018 480.868 370.507C480.635 372.997 481.231 375.493 482.562 377.61" stroke="#263238" stroke-linecap="round" stroke-linejoin="round"/>
<path d="M54.8085 336.172L44.7075 362.258" stroke="#263238" stroke-linecap="round" stroke-linejoin="round"/>
<path d="M58.1088 327.645L56.6406 331.439" stroke="#263238" stroke-linecap="round" stroke-linejoin="round"/>
<path d="M136.721 178.596L164.616 194.734" stroke="#263238" stroke-linecap="round" stroke-linejoin="round"/>
<path d="M105.807 82.0026L83.1733 96.649" stroke="#263238" stroke-linecap="round" stroke-linejoin="round"/>
<path d="M113.923 76.7759L110.399 79.0193" stroke="#263238" stroke-linecap="round" stroke-linejoin="round"/>
<path d="M503.551 91.3284V101.194L510.986 99.2565L503.551 91.3284Z" stroke="#263238" stroke-linecap="round" stroke-linejoin="round"/>
</g>
</svg>