<svg width="547" height="384" viewBox="0 0 547 384" fill="none" xmlns="http://www.w3.org/2000/svg">
<path d="M77.5897 372.4C10.6201 327.435 -31.4533 230.162 29.5472 182.371C90.5476 134.581 -27.5983 69.5556 165.406 18.0069C302.321 -18.569 330.535 82.5471 402.865 73.4711C492.037 62.2826 550.392 140.222 546.847 234.112C543.911 311.918 510.08 373 510.08 373L77.5897 372.4Z" fill="#FFEABE"/>
<path d="M169.126 332.765C171.675 332.765 173.741 330.699 173.741 328.151C173.741 325.602 171.675 323.536 169.126 323.536C166.578 323.536 164.512 325.602 164.512 328.151C164.512 330.699 166.578 332.765 169.126 332.765Z" fill="white"/>
<path opacity="0.5" d="M410.183 95.6234H214.078C207.347 95.6234 201.869 100.181 201.869 105.805V180.015C197.149 181.895 192.314 183.979 189.059 185.354C181.888 188.398 159.034 193.884 155.632 198.922C152.23 203.96 149.618 206.068 148.918 218.39C148.267 229.988 147.225 262.096 142.13 283.729L136.815 281.108L131.606 291.689L130.614 293.691L126.975 291.892L97 352.592V355.457H187.431L200.819 328.346L196.115 326.026L198.15 321.908L202.317 313.468L195.806 310.27C201.658 303.173 207.713 295.921 214.362 286.439C218.261 280.88 220.54 266.051 220.54 266.051C220.54 266.051 223.209 272.22 228.353 268.802C233.497 265.384 234.636 256.285 234.636 256.285C234.636 256.285 241.579 259.735 244.199 254.616C246.82 249.497 246.031 236.206 246.031 236.206C246.031 236.206 250.955 231.559 255.944 226.179H410.183C416.914 226.179 422.392 221.621 422.392 215.997V105.805C422.359 100.181 416.947 95.6234 410.183 95.6234Z" fill="#D5D5D5"/>
<path fill-rule="evenodd" clip-rule="evenodd" d="M182.198 299.404C188.505 291.721 195.016 284.062 202.227 273.783C206.126 268.224 208.405 253.395 208.405 253.395C208.405 253.395 211.074 259.564 216.218 256.146C221.362 252.728 222.501 243.629 222.501 243.629C222.501 243.629 229.444 247.079 232.064 241.96C234.685 236.841 233.896 223.55 233.896 223.55C233.896 223.55 241.156 216.697 246.967 210.015C249.208 207.479 251.259 204.78 253.103 201.941C253.746 201.014 254.357 200.094 254.918 199.166C256.359 198.767 263.244 196.659 262.699 192.468C262.431 190.4 260.575 188.398 258.206 186.526C257.687 184.897 256.667 183.474 255.293 182.457C253.857 181.372 252.084 180.83 250.287 180.927C249.807 180.577 249.36 180.227 248.944 179.877C244.566 176.223 236.736 172.357 227.124 169.891C217.512 167.424 208.152 161.483 203.603 162.419C199.053 163.355 184.07 169.687 176.891 172.731C169.713 175.775 146.859 181.236 143.481 186.274C140.103 191.312 137.466 193.42 136.766 205.742C136.067 218.064 134.943 253.566 128.969 275.028C127.439 280.424 182.198 299.404 182.198 299.404Z" fill="#E2A379"/>
<g opacity="0.4">
<path fill-rule="evenodd" clip-rule="evenodd" d="M234.75 172.495C235.515 172.69 236.264 172.902 237.005 173.113C233.783 171.807 230.476 170.719 227.108 169.858L226.498 169.687C229.187 170.796 231.943 171.734 234.75 172.495Z" fill="#C48B65"/>
<path fill-rule="evenodd" clip-rule="evenodd" d="M216.12 256.203L216.039 256.024V256.276L216.12 256.203Z" fill="#C48B65"/>
<path fill-rule="evenodd" clip-rule="evenodd" d="M136.579 277.665C142.553 256.203 143.685 220.693 144.376 208.379C145.068 196.065 147.681 193.949 151.091 188.911C154.501 183.873 177.355 178.387 184.517 175.344C191.679 172.3 206.679 165.968 211.229 165.032C212.206 164.877 213.205 164.916 214.167 165.146C209.756 163.331 206.028 161.89 203.587 162.403C199.029 163.339 184.053 169.671 176.875 172.715C169.696 175.759 146.859 181.236 143.481 186.274C140.103 191.312 137.466 193.42 136.766 205.742C136.067 218.064 134.943 253.566 128.969 275.028C127.464 280.424 182.222 299.404 182.222 299.404L182.279 299.331C167.279 293.894 135.432 281.792 136.579 277.665Z" fill="#C48B65"/>
</g>
<path fill-rule="evenodd" clip-rule="evenodd" d="M184.086 232.307C185.787 228.108 162.314 234.293 176.158 224.567C180.944 221.206 154.346 207.004 161.842 205.238C171.544 202.959 179.438 203.219 176.761 193.444C175.19 187.698 196.839 190.726 200.982 188.292C205.125 185.859 205.93 185.306 211.156 184.508C215.453 183.849 222.55 184.508 225.976 184.418C229.826 184.321 230.046 183.311 234.669 184.614C239.747 186.046 237.363 183.865 219.205 200.525C211.88 207.248 206.85 213.547 202.284 217.413C194.886 223.664 189.701 226.179 184.086 232.307Z" fill="#C48B65"/>
<path d="M410.175 203.333C410.175 208.957 404.722 213.515 397.967 213.515H201.894C195.163 213.515 189.685 208.957 189.685 203.333V93.1817C189.685 87.5578 195.138 83 201.894 83H397.991C404.722 83 410.2 87.5578 410.2 93.1817L410.175 203.333Z" fill="#D3D3D3"/>
<g opacity="0.3">
<mask id="mask0_131_64" style="mask-type:luminance" maskUnits="userSpaceOnUse" x="189" y="83" width="222" height="131">
<path d="M410.175 203.333C410.175 208.957 404.722 213.515 397.967 213.515H201.894C195.163 213.515 189.685 208.957 189.685 203.333V93.1817C189.685 87.5578 195.138 83 201.894 83H397.991C404.722 83 410.2 87.5578 410.2 93.1817L410.175 203.333Z" fill="white"/>
</mask>
<g mask="url(#mask0_131_64)">
<path d="M179.121 85.4417C184.647 85.4417 184.647 89.2588 190.182 89.2588C195.716 89.2588 195.708 85.4417 201.234 85.4417C206.761 85.4417 206.761 89.2588 212.287 89.2588C217.813 89.2588 217.813 85.4417 223.34 85.4417C228.866 85.4417 228.866 89.2588 234.392 89.2588C239.918 89.2588 239.918 85.4417 245.445 85.4417C250.971 85.4417 250.971 89.2588 256.505 89.2588C262.04 89.2588 262.032 85.4417 267.558 85.4417C273.084 85.4417 273.084 89.2588 278.611 89.2588C284.137 89.2588 284.137 85.4417 289.663 85.4417C295.189 85.4417 295.189 89.2588 300.716 89.2588C306.242 89.2588 306.242 85.4417 311.768 85.4417C317.295 85.4417 317.295 89.2588 322.829 89.2588C328.363 89.2588 328.355 85.4417 333.882 85.4417C339.408 85.4417 339.408 89.2588 344.942 89.2588C350.477 89.2588 350.469 85.4417 356.003 85.4417C361.537 85.4417 361.529 89.2588 367.064 89.2588C372.598 89.2588 372.59 85.4417 378.116 85.4417C383.643 85.4417 383.643 89.2588 389.177 89.2588C394.711 89.2588 394.703 85.4417 400.238 85.4417C405.772 85.4417 405.764 89.2588 411.298 89.2588C416.833 89.2588 416.825 85.4417 422.359 85.4417" stroke="#F9F9F9" stroke-width="1.69" stroke-miterlimit="10"/>
<path d="M179.121 91.8144C184.647 91.8144 184.647 95.6315 190.182 95.6315C195.716 95.6315 195.708 91.8144 201.234 91.8144C206.761 91.8144 206.761 95.6315 212.287 95.6315C217.813 95.6315 217.813 91.8144 223.34 91.8144C228.866 91.8144 228.866 95.6315 234.392 95.6315C239.918 95.6315 239.918 91.8144 245.445 91.8144C250.971 91.8144 250.971 95.6315 256.505 95.6315C262.04 95.6315 262.032 91.8144 267.558 91.8144C273.084 91.8144 273.101 95.6234 278.586 95.6234C284.072 95.6234 284.112 91.8063 289.639 91.8063C295.165 91.8063 295.165 95.6234 300.691 95.6234C306.218 95.6234 306.218 91.8063 311.744 91.8063C317.27 91.8063 317.27 95.6234 322.805 95.6234C328.339 95.6234 328.331 91.8063 333.857 91.8063C339.383 91.8063 339.383 95.6234 344.918 95.6234C350.452 95.6234 350.444 91.8063 355.979 91.8063C361.513 91.8063 361.505 95.6234 367.039 95.6234C372.574 95.6234 372.566 91.8063 378.092 91.8063C383.618 91.8063 383.659 95.6234 389.193 95.6234C394.728 95.6234 394.72 91.8063 400.254 91.8063C405.788 91.8063 405.78 95.6234 411.315 95.6234C416.849 95.6234 416.841 91.8063 422.375 91.8063" stroke="#F9F9F9" stroke-width="1.69" stroke-miterlimit="10"/>
<path d="M179.121 99.4568C184.647 99.4568 184.647 103.274 190.182 103.274C195.716 103.274 195.708 99.4568 201.234 99.4568C206.761 99.4568 206.761 103.274 212.287 103.274C217.813 103.274 217.813 99.4568 223.34 99.4568C228.866 99.4568 228.866 103.274 234.392 103.274C239.918 103.274 239.918 99.4568 245.445 99.4568C250.971 99.4568 250.971 103.274 256.505 103.274C262.04 103.274 262.032 99.4568 267.558 99.4568C273.084 99.4568 273.084 103.274 278.611 103.274C284.137 103.274 284.137 99.4568 289.663 99.4568C295.189 99.4568 295.189 103.274 300.716 103.274C306.242 103.274 306.242 99.4568 311.768 99.4568C317.295 99.4568 317.295 103.274 322.829 103.274C328.363 103.274 328.355 99.4568 333.882 99.4568C339.408 99.4568 339.408 103.274 344.942 103.274C350.477 103.274 350.469 99.4568 356.003 99.4568C361.537 99.4568 361.529 103.274 367.064 103.274C372.598 103.274 372.59 99.4568 378.116 99.4568C383.643 99.4568 383.643 103.274 389.177 103.274C394.711 103.274 394.703 99.4568 400.238 99.4568C405.772 99.4568 405.764 103.274 411.298 103.274C416.833 103.274 416.825 99.4568 422.359 99.4568" stroke="#F9F9F9" stroke-width="1.69" stroke-miterlimit="10"/>
<path d="M179.121 105.821C184.647 105.821 184.647 109.639 190.182 109.639C195.716 109.639 195.708 105.821 201.234 105.821C206.761 105.821 206.761 109.639 212.287 109.639C217.813 109.639 217.813 105.821 223.34 105.821C228.866 105.821 228.866 109.639 234.392 109.639C239.918 109.639 239.918 105.821 245.445 105.821C250.971 105.821 250.971 109.639 256.505 109.639C262.04 109.639 262.032 105.821 267.558 105.821C273.084 105.821 273.084 109.639 278.611 109.639C284.137 109.639 284.137 105.821 289.663 105.821C295.189 105.821 295.189 109.639 300.716 109.639C306.242 109.639 306.242 105.821 311.768 105.821C317.295 105.821 317.295 109.639 322.829 109.639C328.363 109.639 328.355 105.821 333.882 105.821C339.408 105.821 339.408 109.639 344.942 109.639C350.477 109.639 350.469 105.821 356.003 105.821C361.537 105.821 361.529 109.639 367.064 109.639C372.598 109.639 372.59 105.821 378.116 105.821C383.643 105.821 383.643 109.639 389.177 109.639C394.711 109.639 394.703 105.821 400.238 105.821C405.772 105.821 405.764 109.639 411.298 109.639C416.833 109.639 416.825 105.821 422.359 105.821" stroke="#F9F9F9" stroke-width="1.69" stroke-miterlimit="10"/>
<path d="M179.121 112.829C184.647 112.829 184.647 116.646 190.182 116.646C195.716 116.646 195.708 112.829 201.234 112.829C206.761 112.829 206.761 116.646 212.287 116.646C217.813 116.646 217.813 112.829 223.34 112.829C228.866 112.829 228.866 116.646 234.392 116.646C239.918 116.646 239.918 112.829 245.445 112.829C250.971 112.829 250.971 116.646 256.505 116.646C262.04 116.646 262.032 112.829 267.558 112.829C273.084 112.829 273.084 116.646 278.611 116.646C284.137 116.646 284.137 112.829 289.663 112.829C295.189 112.829 295.189 116.646 300.716 116.646C306.242 116.646 306.242 112.829 311.768 112.829C317.295 112.829 317.295 116.646 322.829 116.646C328.363 116.646 328.355 112.829 333.882 112.829C339.408 112.829 339.408 116.646 344.942 116.646C350.477 116.646 350.469 112.829 356.003 112.829C361.537 112.829 361.529 116.646 367.064 116.646C372.598 116.646 372.59 112.829 378.116 112.829C383.643 112.829 383.643 116.646 389.177 116.646C394.711 116.646 394.703 112.829 400.238 112.829C405.772 112.829 405.764 116.646 411.298 116.646C416.833 116.646 416.825 112.829 422.359 112.829" stroke="#F9F9F9" stroke-width="1.69" stroke-miterlimit="10"/>
<path d="M179.121 119.226C184.647 119.226 184.647 123.043 190.182 123.043C195.716 123.043 195.708 119.226 201.267 119.226C206.826 119.226 206.793 123.043 212.32 123.043C217.846 123.043 217.846 119.226 223.372 119.226C228.898 119.226 228.898 123.043 234.425 123.043C239.951 123.043 239.927 119.226 245.453 119.226C250.979 119.226 250.979 123.043 256.514 123.043C262.048 123.043 262.04 119.226 267.566 119.226C273.092 119.226 273.092 123.043 278.619 123.043C284.145 123.043 284.145 119.226 289.671 119.226C295.198 119.226 295.198 123.043 300.724 123.043C306.25 123.043 306.258 119.226 311.793 119.226C317.327 119.226 317.319 123.043 322.853 123.043C328.388 123.043 328.38 119.226 333.93 119.226C339.481 119.226 339.457 123.043 344.991 123.043C350.526 123.043 350.517 119.226 356.052 119.226C361.586 119.226 361.578 123.043 367.113 123.043C372.647 123.043 372.639 119.226 378.165 119.226C383.691 119.226 383.691 123.043 389.226 123.043C394.76 123.043 394.752 119.226 400.287 119.226C405.821 119.226 405.813 123.043 411.347 123.043C416.882 123.043 416.874 119.226 422.408 119.226" stroke="#F9F9F9" stroke-width="1.69" stroke-miterlimit="10"/>
<path d="M179.121 126.836C184.647 126.836 184.647 130.653 190.182 130.653C195.716 130.653 195.708 126.836 201.234 126.836C206.761 126.836 206.761 130.653 212.287 130.653C217.813 130.653 217.813 126.836 223.34 126.836C228.866 126.836 228.866 130.653 234.392 130.653C239.918 130.653 239.918 126.836 245.445 126.836C250.971 126.836 250.971 130.653 256.505 130.653C262.04 130.653 262.032 126.836 267.558 126.836C273.084 126.836 273.101 130.621 278.586 130.621C284.072 130.621 284.112 126.803 289.639 126.803C295.165 126.803 295.165 130.621 300.691 130.621C306.218 130.621 306.218 126.803 311.744 126.803C317.27 126.803 317.27 130.621 322.805 130.621C328.339 130.621 328.331 126.803 333.857 126.803C339.383 126.803 339.383 130.621 344.918 130.621C350.452 130.621 350.444 126.803 355.979 126.803C361.513 126.803 361.505 130.621 367.039 130.621C372.574 130.621 372.566 126.803 378.092 126.803C383.618 126.803 383.659 130.621 389.193 130.621C394.728 130.621 394.72 126.803 400.254 126.803C405.788 126.803 405.78 130.621 411.315 130.621C416.849 130.621 416.841 126.803 422.375 126.803" stroke="#F9F9F9" stroke-width="1.69" stroke-miterlimit="10"/>
<path d="M179.121 133.201C184.647 133.201 184.647 137.018 190.182 137.018C195.716 137.018 195.708 133.201 201.234 133.201C206.761 133.201 206.761 137.018 212.287 137.018C217.813 137.018 217.813 133.201 223.34 133.201C228.866 133.201 228.866 137.018 234.392 137.018C239.918 137.018 239.918 133.201 245.445 133.201C250.971 133.201 250.971 137.018 256.505 137.018C262.04 137.018 262.032 133.201 267.558 133.201C273.084 133.201 273.084 137.018 278.611 137.018C284.137 137.018 284.137 133.201 289.663 133.201C295.189 133.201 295.189 137.018 300.716 137.018C306.242 137.018 306.242 133.201 311.768 133.201C317.295 133.201 317.295 137.018 322.829 137.018C328.363 137.018 328.355 133.201 333.882 133.201C339.408 133.201 339.408 137.018 344.942 137.018C350.477 137.018 350.469 133.201 356.003 133.201C361.537 133.201 361.529 137.018 367.064 137.018C372.598 137.018 372.59 133.201 378.116 133.201C383.643 133.201 383.643 137.018 389.177 137.018C394.711 137.018 394.703 133.201 400.238 133.201C405.772 133.201 405.764 137.018 411.298 137.018C416.833 137.018 416.825 133.201 422.359 133.201" stroke="#F9F9F9" stroke-width="1.69" stroke-miterlimit="10"/>
<path d="M179.121 139.573C184.647 139.573 184.647 143.39 190.182 143.39C195.716 143.39 195.708 139.573 201.267 139.573C206.826 139.573 206.793 143.39 212.32 143.39C217.846 143.39 217.846 139.573 223.372 139.573C228.898 139.573 228.898 143.39 234.425 143.39C239.951 143.39 239.927 139.573 245.453 139.573C250.979 139.573 250.979 143.39 256.514 143.39C262.048 143.39 262.04 139.573 267.566 139.573C273.092 139.573 273.092 143.39 278.619 143.39C284.145 143.39 284.145 139.573 289.671 139.573C295.198 139.573 295.198 143.39 300.724 143.39C306.25 143.39 306.258 139.573 311.793 139.573C317.327 139.573 317.319 143.39 322.853 143.39C328.388 143.39 328.38 139.573 333.93 139.573C339.481 139.573 339.457 143.39 344.991 143.39C350.526 143.39 350.517 139.573 356.052 139.573C361.586 139.573 361.578 143.39 367.113 143.39C372.647 143.39 372.639 139.573 378.165 139.573C383.691 139.573 383.691 143.39 389.226 143.39C394.76 143.39 394.752 139.573 400.287 139.573C405.821 139.573 405.813 143.39 411.347 143.39C416.882 143.39 416.874 139.573 422.408 139.573" stroke="#F9F9F9" stroke-width="1.69" stroke-miterlimit="10"/>
<path d="M179.121 145.938C184.647 145.938 184.647 149.755 190.182 149.755C195.716 149.755 195.708 145.938 201.234 145.938C206.761 145.938 206.761 149.755 212.287 149.755C217.813 149.755 217.813 145.938 223.34 145.938C228.866 145.938 228.866 149.755 234.392 149.755C239.918 149.755 239.918 145.938 245.445 145.938C250.971 145.938 250.971 149.755 256.505 149.755C262.04 149.755 262.032 145.938 267.558 145.938C273.084 145.938 273.084 149.755 278.611 149.755C284.137 149.755 284.137 145.938 289.663 145.938C295.189 145.938 295.189 149.755 300.716 149.755C306.242 149.755 306.242 145.938 311.768 145.938C317.295 145.938 317.295 149.755 322.829 149.755C328.363 149.755 328.355 145.938 333.882 145.938C339.408 145.938 339.408 149.755 344.942 149.755C350.477 149.755 350.469 145.938 356.003 145.938C361.537 145.938 361.529 149.755 367.064 149.755C372.598 149.755 372.59 145.938 378.116 145.938C383.643 145.938 383.643 149.755 389.177 149.755C394.711 149.755 394.703 145.938 400.238 145.938C405.772 145.938 405.764 149.755 411.298 149.755C416.833 149.755 416.825 145.938 422.359 145.938" stroke="#F9F9F9" stroke-width="1.69" stroke-miterlimit="10"/>
<path d="M179.121 153.58C184.647 153.58 184.647 157.397 190.182 157.397C195.716 157.397 195.708 153.58 201.234 153.58C206.761 153.58 206.761 157.397 212.287 157.397C217.813 157.397 217.813 153.58 223.34 153.58C228.866 153.58 228.866 157.397 234.392 157.397C239.918 157.397 239.918 153.58 245.445 153.58C250.971 153.58 250.971 157.397 256.505 157.397C262.04 157.397 262.032 153.58 267.558 153.58C273.084 153.58 273.084 157.397 278.611 157.397C284.137 157.397 284.137 153.58 289.663 153.58C295.189 153.58 295.189 157.397 300.716 157.397C306.242 157.397 306.242 153.58 311.768 153.58C317.295 153.58 317.295 157.397 322.829 157.397C328.363 157.397 328.355 153.58 333.882 153.58C339.408 153.58 339.408 157.397 344.942 157.397C350.477 157.397 350.469 153.58 356.003 153.58C361.537 153.58 361.529 157.397 367.064 157.397C372.598 157.397 372.59 153.58 378.116 153.58C383.643 153.58 383.643 157.397 389.177 157.397C394.711 157.397 394.703 153.58 400.238 153.58C405.772 153.58 405.764 157.397 411.298 157.397C416.833 157.397 416.825 153.58 422.359 153.58" stroke="#F9F9F9" stroke-width="1.69" stroke-miterlimit="10"/>
<path d="M179.121 159.92C184.647 159.92 184.647 163.738 190.182 163.738C195.716 163.738 195.708 159.92 201.267 159.92C206.826 159.92 206.793 163.738 212.32 163.738C217.846 163.738 217.846 159.92 223.372 159.92C228.898 159.92 228.898 163.738 234.425 163.738C239.951 163.738 239.927 159.92 245.453 159.92C250.979 159.92 250.979 163.738 256.514 163.738C262.048 163.738 262.04 159.92 267.566 159.92C273.092 159.92 273.092 163.738 278.619 163.738C284.145 163.738 284.145 159.92 289.671 159.92C295.198 159.92 295.198 163.738 300.724 163.738C306.25 163.738 306.258 159.92 311.793 159.92C317.327 159.92 317.319 163.738 322.853 163.738C328.388 163.738 328.38 159.92 333.93 159.92C339.481 159.92 339.457 163.738 344.991 163.738C350.526 163.738 350.517 159.92 356.052 159.92C361.586 159.92 361.578 163.738 367.113 163.738C372.647 163.738 372.639 159.92 378.165 159.92C383.691 159.92 383.691 163.738 389.226 163.738C394.76 163.738 394.752 159.92 400.287 159.92C405.821 159.92 405.813 163.738 411.347 163.738C416.882 163.738 416.874 159.92 422.408 159.92" stroke="#F9F9F9" stroke-width="1.69" stroke-miterlimit="10"/>
<path d="M179.121 166.952C184.647 166.952 184.647 170.77 190.182 170.77C195.716 170.77 195.708 166.952 201.234 166.952C206.761 166.952 206.761 170.77 212.287 170.77C217.813 170.77 217.813 166.952 223.34 166.952C228.866 166.952 228.866 170.77 234.392 170.77C239.918 170.77 239.918 166.952 245.445 166.952C250.971 166.952 250.971 170.77 256.505 170.77C262.04 170.77 262.032 166.952 267.558 166.952C273.084 166.952 273.084 170.77 278.611 170.77C284.137 170.77 284.137 166.952 289.663 166.952C295.189 166.952 295.189 170.77 300.716 170.77C306.242 170.77 306.242 166.952 311.768 166.952C317.295 166.952 317.295 170.77 322.829 170.77C328.363 170.77 328.355 166.952 333.882 166.952C339.408 166.952 339.408 170.77 344.942 170.77C350.477 170.77 350.469 166.952 356.003 166.952C361.537 166.952 361.529 170.77 367.064 170.77C372.598 170.77 372.59 166.952 378.116 166.952C383.643 166.952 383.643 170.77 389.177 170.77C394.711 170.77 394.703 166.952 400.238 166.952C405.772 166.952 405.764 170.77 411.298 170.77C416.833 170.77 416.825 166.952 422.359 166.952" stroke="#F9F9F9" stroke-width="1.69" stroke-miterlimit="10"/>
<path d="M179.121 173.317C184.647 173.317 184.647 177.134 190.182 177.134C195.716 177.134 195.708 173.317 201.234 173.317C206.761 173.317 206.761 177.134 212.287 177.134C217.813 177.134 217.813 173.317 223.34 173.317C228.866 173.317 228.866 177.134 234.392 177.134C239.918 177.134 239.918 173.317 245.445 173.317C250.971 173.317 250.971 177.134 256.505 177.134C262.04 177.134 262.032 173.317 267.558 173.317C273.084 173.317 273.084 177.134 278.611 177.134C284.137 177.134 284.137 173.317 289.663 173.317C295.189 173.317 295.189 177.134 300.716 177.134C306.242 177.134 306.242 173.317 311.768 173.317C317.295 173.317 317.295 177.134 322.829 177.134C328.363 177.134 328.355 173.317 333.882 173.317C339.408 173.317 339.408 177.134 344.942 177.134C350.477 177.134 350.469 173.317 356.003 173.317C361.537 173.317 361.529 177.134 367.064 177.134C372.598 177.134 372.59 173.317 378.116 173.317C383.643 173.317 383.643 177.134 389.177 177.134C394.711 177.134 394.703 173.317 400.238 173.317C405.772 173.317 405.764 177.134 411.298 177.134C416.833 177.134 416.825 173.317 422.359 173.317" stroke="#F9F9F9" stroke-width="1.69" stroke-miterlimit="10"/>
<path d="M179.121 180.959C184.647 180.959 184.647 184.777 190.182 184.777C195.716 184.777 195.708 180.959 201.234 180.959C206.761 180.959 206.761 184.777 212.287 184.777C217.813 184.777 217.813 180.959 223.34 180.959C228.866 180.959 228.866 184.777 234.392 184.777C239.918 184.777 239.918 180.959 245.445 180.959C250.971 180.959 250.971 184.777 256.505 184.777C262.04 184.777 262.032 180.959 267.558 180.959C273.084 180.959 273.084 184.777 278.611 184.777C284.137 184.777 284.137 180.959 289.663 180.959C295.189 180.959 295.189 184.777 300.716 184.777C306.242 184.777 306.242 180.959 311.768 180.959C317.295 180.959 317.295 184.777 322.829 184.777C328.363 184.777 328.355 180.959 333.882 180.959C339.408 180.959 339.408 184.777 344.942 184.777C350.477 184.777 350.469 180.959 356.003 180.959C361.537 180.959 361.529 184.777 367.064 184.777C372.598 184.777 372.59 180.959 378.116 180.959C383.643 180.959 383.643 184.777 389.177 184.777C394.711 184.777 394.703 180.959 400.238 180.959C405.772 180.959 405.764 184.777 411.298 184.777C416.833 184.777 416.825 180.959 422.359 180.959" stroke="#F9F9F9" stroke-width="1.69" stroke-miterlimit="10"/>
<path d="M179.121 187.332C184.647 187.332 184.647 191.149 190.182 191.149C195.716 191.149 195.708 187.332 201.234 187.332C206.761 187.332 206.761 191.149 212.287 191.149C217.813 191.149 217.813 187.332 223.34 187.332C228.866 187.332 228.866 191.149 234.392 191.149C239.918 191.149 239.918 187.332 245.445 187.332C250.971 187.332 250.971 191.149 256.505 191.149C262.04 191.149 262.032 187.332 267.558 187.332C273.084 187.332 273.084 191.149 278.611 191.149C284.137 191.149 284.137 187.332 289.663 187.332C295.189 187.332 295.189 191.149 300.716 191.149C306.242 191.149 306.242 187.332 311.768 187.332C317.295 187.332 317.295 191.149 322.829 191.149C328.363 191.149 328.355 187.332 333.882 187.332C339.408 187.332 339.408 191.149 344.942 191.149C350.477 191.149 350.469 187.332 356.003 187.332C361.537 187.332 361.529 191.149 367.064 191.149C372.598 191.149 372.59 187.332 378.116 187.332C383.643 187.332 383.643 191.149 389.177 191.149C394.711 191.149 394.703 187.332 400.238 187.332C405.772 187.332 405.764 191.149 411.298 191.149C416.833 191.149 416.825 187.332 422.359 187.332" stroke="#F9F9F9" stroke-width="1.69" stroke-miterlimit="10"/>
<path d="M179.121 194.332C184.647 194.332 184.647 198.149 190.182 198.149C195.716 198.149 195.708 194.332 201.234 194.332C206.761 194.332 206.761 198.149 212.287 198.149C217.813 198.149 217.813 194.332 223.34 194.332C228.866 194.332 228.866 198.149 234.392 198.149C239.918 198.149 239.918 194.332 245.445 194.332C250.971 194.332 250.971 198.149 256.505 198.149C262.04 198.149 262.032 194.332 267.558 194.332C273.084 194.332 273.101 198.173 278.586 198.173C284.072 198.173 284.112 194.356 289.639 194.356C295.165 194.356 295.165 198.173 300.691 198.173C306.218 198.173 306.218 194.356 311.744 194.356C317.27 194.356 317.27 198.173 322.805 198.173C328.339 198.173 328.331 194.356 333.857 194.356C339.383 194.356 339.383 198.173 344.918 198.173C350.452 198.173 350.444 194.356 355.979 194.356C361.513 194.356 361.505 198.173 367.039 198.173C372.574 198.173 372.566 194.356 378.092 194.356C383.618 194.356 383.659 198.173 389.193 198.173C394.728 198.173 394.72 194.356 400.254 194.356C405.788 194.356 405.78 198.173 411.315 198.173C416.849 198.173 416.841 194.356 422.375 194.356" stroke="#F9F9F9" stroke-width="1.69" stroke-miterlimit="10"/>
<path d="M179.121 201.339C184.647 201.339 184.647 205.156 190.182 205.156C195.716 205.156 195.708 201.339 201.234 201.339C206.761 201.339 206.761 205.156 212.287 205.156C217.813 205.156 217.813 201.339 223.34 201.339C228.866 201.339 228.866 205.156 234.392 205.156C239.918 205.156 239.918 201.339 245.445 201.339C250.971 201.339 250.971 205.156 256.505 205.156C262.04 205.156 262.032 201.339 267.558 201.339C273.084 201.339 273.084 205.156 278.611 205.156C284.137 205.156 284.137 201.339 289.663 201.339C295.189 201.339 295.189 205.156 300.716 205.156C306.242 205.156 306.242 201.339 311.768 201.339C317.295 201.339 317.295 205.156 322.829 205.156C328.363 205.156 328.355 201.339 333.882 201.339C339.408 201.339 339.408 205.156 344.942 205.156C350.477 205.156 350.469 201.339 356.003 201.339C361.537 201.339 361.529 205.156 367.064 205.156C372.598 205.156 372.59 201.339 378.116 201.339C383.643 201.339 383.643 205.156 389.177 205.156C394.711 205.156 394.703 201.339 400.238 201.339C405.772 201.339 405.764 205.156 411.298 205.156C416.833 205.156 416.825 201.339 422.359 201.339" stroke="#F9F9F9" stroke-width="1.69" stroke-miterlimit="10"/>
<path d="M179.121 207.704C184.647 207.704 184.647 211.521 190.182 211.521C195.716 211.521 195.708 207.704 201.234 207.704C206.761 207.704 206.761 211.521 212.287 211.521C217.813 211.521 217.813 207.704 223.34 207.704C228.866 207.704 228.866 211.521 234.392 211.521C239.918 211.521 239.918 207.704 245.445 207.704C250.971 207.704 250.971 211.521 256.505 211.521C262.04 211.521 262.032 207.704 267.558 207.704C273.084 207.704 273.084 211.521 278.611 211.521C284.137 211.521 284.137 207.704 289.663 207.704C295.189 207.704 295.189 211.521 300.716 211.521C306.242 211.521 306.242 207.704 311.768 207.704C317.295 207.704 317.295 211.521 322.829 211.521C328.363 211.521 328.355 207.704 333.882 207.704C339.408 207.704 339.408 211.521 344.942 211.521C350.477 211.521 350.469 207.704 356.003 207.704C361.537 207.704 361.529 211.521 367.064 211.521C372.598 211.521 372.59 207.704 378.116 207.704C383.643 207.704 383.643 211.521 389.177 211.521C394.711 211.521 394.703 207.704 400.238 207.704C405.772 207.704 405.764 211.521 411.298 211.521C416.833 211.521 416.825 207.704 422.359 207.704" stroke="#F9F9F9" stroke-width="1.69" stroke-miterlimit="10"/>
</g>
</g>
<path d="M406.13 94.3619H195.358V126.201H406.13V94.3619Z" fill="#8EA3A8"/>
<path d="M402.207 126.201V101.695C402.207 99.9858 400.579 98.6103 398.618 98.6103H202.895C200.917 98.6103 199.305 99.9939 199.305 101.695V126.201H402.207Z" fill="#24C2FF"/>
<path d="M268.274 110.916H211.383C209.626 110.916 208.201 112.341 208.201 114.099V175.238C208.201 176.995 209.626 178.42 211.383 178.42H268.274C270.032 178.42 271.456 176.995 271.456 175.238V114.099C271.456 112.341 270.032 110.916 268.274 110.916Z" fill="#D9D9DB"/>
<path d="M265.214 114.538H214.436C212.867 114.538 211.595 115.81 211.595 117.379V171.95C211.595 173.518 212.867 174.79 214.436 174.79H265.214C266.783 174.79 268.055 173.518 268.055 171.95V117.379C268.055 115.81 266.783 114.538 265.214 114.538Z" fill="#F2F1F2"/>
<path d="M259.224 185.151C259.224 185.425 259.115 185.688 258.921 185.882C258.727 186.076 258.464 186.184 258.19 186.184C257.916 186.184 257.653 186.076 257.459 185.882C257.265 185.688 257.156 185.425 257.156 185.151V180.504C257.156 180.229 257.265 179.967 257.459 179.773C257.653 179.579 257.916 179.47 258.19 179.47C258.464 179.47 258.727 179.579 258.921 179.773C259.115 179.967 259.224 180.229 259.224 180.504V185.151Z" fill="#24C2FF"/>
<path d="M258.19 189.57C258.855 189.57 259.395 189.031 259.395 188.366C259.395 187.7 258.855 187.161 258.19 187.161C257.525 187.161 256.986 187.7 256.986 188.366C256.986 189.031 257.525 189.57 258.19 189.57Z" fill="#24C2FF"/>
<path d="M259.224 196.033C259.224 196.307 259.115 196.57 258.921 196.763C258.727 196.957 258.464 197.066 258.19 197.066C257.916 197.066 257.653 196.957 257.459 196.763C257.265 196.57 257.156 196.307 257.156 196.033V191.385C257.156 191.25 257.183 191.115 257.235 190.99C257.287 190.864 257.363 190.75 257.459 190.654C257.555 190.558 257.669 190.482 257.795 190.43C257.92 190.378 258.054 190.352 258.19 190.352C258.326 190.352 258.46 190.378 258.586 190.43C258.711 190.482 258.825 190.558 258.921 190.654C259.017 190.75 259.093 190.864 259.145 190.99C259.197 191.115 259.224 191.25 259.224 191.385V196.033Z" fill="#24C2FF"/>
<path d="M259.224 206.882C259.224 207.156 259.115 207.419 258.921 207.613C258.727 207.806 258.464 207.915 258.19 207.915C257.916 207.915 257.653 207.806 257.459 207.613C257.265 207.419 257.156 207.156 257.156 206.882V202.242C257.156 201.968 257.265 201.705 257.459 201.512C257.653 201.318 257.916 201.209 258.19 201.209C258.464 201.209 258.727 201.318 258.921 201.512C259.115 201.705 259.224 201.968 259.224 202.242V206.882Z" fill="#24C2FF"/>
<path d="M258.19 200.419C258.855 200.419 259.395 199.88 259.395 199.215C259.395 198.55 258.855 198.01 258.19 198.01C257.525 198.01 256.986 198.55 256.986 199.215C256.986 199.88 257.525 200.419 258.19 200.419Z" fill="#24C2FF"/>
<path d="M311.443 185.151C311.443 185.425 311.334 185.688 311.14 185.882C310.946 186.076 310.683 186.184 310.409 186.184C310.135 186.184 309.872 186.076 309.678 185.882C309.484 185.688 309.375 185.425 309.375 185.151V180.504C309.375 180.229 309.484 179.967 309.678 179.773C309.872 179.579 310.135 179.47 310.409 179.47C310.683 179.47 310.946 179.579 311.14 179.773C311.334 179.967 311.443 180.229 311.443 180.504V185.151Z" fill="#24C2FF"/>
<path d="M310.409 189.57C311.074 189.57 311.614 189.031 311.614 188.366C311.614 187.7 311.074 187.161 310.409 187.161C309.744 187.161 309.205 187.7 309.205 188.366C309.205 189.031 309.744 189.57 310.409 189.57Z" fill="#24C2FF"/>
<path d="M311.443 196.033C311.443 196.307 311.334 196.57 311.14 196.763C310.946 196.957 310.683 197.066 310.409 197.066C310.135 197.066 309.872 196.957 309.678 196.763C309.484 196.57 309.375 196.307 309.375 196.033V191.385C309.375 191.25 309.402 191.115 309.454 190.99C309.506 190.864 309.582 190.75 309.678 190.654C309.774 190.558 309.888 190.482 310.014 190.43C310.139 190.378 310.273 190.352 310.409 190.352C310.683 190.352 310.946 190.461 311.14 190.654C311.334 190.848 311.443 191.111 311.443 191.385V196.033Z" fill="#24C2FF"/>
<path d="M311.443 206.882C311.446 207.019 311.422 207.156 311.371 207.285C311.321 207.413 311.245 207.53 311.149 207.628C311.052 207.727 310.937 207.805 310.81 207.859C310.683 207.912 310.547 207.94 310.409 207.94C310.135 207.94 309.872 207.831 309.678 207.637C309.484 207.443 309.375 207.18 309.375 206.906V202.242C309.375 201.968 309.484 201.705 309.678 201.512C309.872 201.318 310.135 201.209 310.409 201.209C310.683 201.209 310.946 201.318 311.14 201.512C311.334 201.705 311.443 201.968 311.443 202.242V206.882Z" fill="#24C2FF"/>
<path d="M310.409 200.419C311.074 200.419 311.614 199.88 311.614 199.215C311.614 198.55 311.074 198.01 310.409 198.01C309.744 198.01 309.205 198.55 309.205 199.215C309.205 199.88 309.744 200.419 310.409 200.419Z" fill="#24C2FF"/>
<path d="M372.574 185.151C372.574 185.425 372.465 185.688 372.271 185.882C372.077 186.076 371.814 186.184 371.54 186.184C371.266 186.184 371.003 186.076 370.809 185.882C370.615 185.688 370.506 185.425 370.506 185.151V180.504C370.506 180.229 370.615 179.967 370.809 179.773C371.003 179.579 371.266 179.47 371.54 179.47C371.814 179.47 372.077 179.579 372.271 179.773C372.465 179.967 372.574 180.229 372.574 180.504V185.151Z" fill="#24C2FF"/>
<path d="M371.54 189.57C372.205 189.57 372.745 189.031 372.745 188.366C372.745 187.7 372.205 187.161 371.54 187.161C370.875 187.161 370.335 187.7 370.335 188.366C370.335 189.031 370.875 189.57 371.54 189.57Z" fill="#24C2FF"/>
<path d="M372.574 196.033C372.574 196.307 372.465 196.57 372.271 196.763C372.077 196.957 371.814 197.066 371.54 197.066C371.266 197.066 371.003 196.957 370.809 196.763C370.615 196.57 370.506 196.307 370.506 196.033V191.385C370.506 191.25 370.533 191.115 370.585 190.99C370.637 190.864 370.713 190.75 370.809 190.654C370.905 190.558 371.019 190.482 371.144 190.43C371.27 190.378 371.404 190.352 371.54 190.352C371.676 190.352 371.81 190.378 371.936 190.43C372.061 190.482 372.175 190.558 372.271 190.654C372.367 190.75 372.443 190.864 372.495 190.99C372.547 191.115 372.574 191.25 372.574 191.385V196.033Z" fill="#24C2FF"/>
<path d="M372.574 206.882C372.574 207.156 372.465 207.419 372.271 207.613C372.077 207.806 371.814 207.915 371.54 207.915C371.266 207.915 371.003 207.806 370.809 207.613C370.615 207.419 370.506 207.156 370.506 206.882V202.242C370.506 201.968 370.615 201.705 370.809 201.512C371.003 201.318 371.266 201.209 371.54 201.209C371.814 201.209 372.077 201.318 372.271 201.512C372.465 201.705 372.574 201.968 372.574 202.242V206.882Z" fill="#24C2FF"/>
<path d="M371.54 200.419C372.205 200.419 372.745 199.88 372.745 199.215C372.745 198.55 372.205 198.01 371.54 198.01C370.875 198.01 370.335 198.55 370.335 199.215C370.335 199.88 370.875 200.419 371.54 200.419Z" fill="#24C2FF"/>
<path d="M242.588 188.398H208.201C206.444 188.398 205.019 189.823 205.019 191.581V192.435C205.019 194.193 206.444 195.617 208.201 195.617H242.588C244.346 195.617 245.77 194.193 245.77 192.435V191.581C245.77 189.823 244.346 188.398 242.588 188.398Z" fill="#8EA3A8"/>
<path d="M242.588 198.588H208.201C206.444 198.588 205.019 200.013 205.019 201.77V202.625C205.019 204.383 206.444 205.807 208.201 205.807H242.588C244.346 205.807 245.77 204.383 245.77 202.625V201.77C245.77 200.013 244.346 198.588 242.588 198.588Z" fill="#8EA3A8"/>
<path d="M300.219 192.427C300.219 194.185 299.218 195.609 297.981 195.609H273.8C272.563 195.609 271.562 194.185 271.562 192.427V191.613C271.562 189.855 272.563 188.431 273.8 188.431H297.981C299.218 188.431 300.219 189.855 300.219 191.613V192.427Z" fill="#8EA3A8"/>
<path d="M300.219 202.617C300.219 204.375 299.218 205.799 297.981 205.799H273.8C272.563 205.799 271.562 204.375 271.562 202.617V201.803C271.562 200.045 272.563 198.621 273.8 198.621H297.981C299.218 198.621 300.219 200.045 300.219 201.803V202.617Z" fill="#8EA3A8"/>
<path d="M359.332 194.551H324.945C323.187 194.551 321.763 195.976 321.763 197.734V198.588C321.763 200.346 323.187 201.77 324.945 201.77H359.332C361.089 201.77 362.514 200.346 362.514 198.588V197.734C362.514 195.976 361.089 194.551 359.332 194.551Z" fill="#8EA3A8"/>
<path d="M399.025 185.004H384.163C382.406 185.004 380.981 186.429 380.981 188.187V203.471C380.981 205.229 382.406 206.654 384.163 206.654H399.025C400.783 206.654 402.207 205.229 402.207 203.471V188.187C402.207 186.429 400.783 185.004 399.025 185.004Z" fill="#8EA3A8"/>
<path d="M394.435 149.34C394.435 151.098 392.311 152.522 389.69 152.522H285.911C283.29 152.522 281.166 151.098 281.166 149.34V136.171C281.166 134.413 283.29 132.989 285.911 132.989H389.69C392.311 132.989 394.435 134.413 394.435 136.171V149.34Z" fill="#8EA3A8"/>
<path d="M393.792 157.609C393.792 158.781 392.375 159.733 390.626 159.733H284.283C282.533 159.733 281.117 158.781 281.117 157.609C281.117 156.437 282.533 155.485 284.283 155.485H390.634C392.384 155.485 393.8 156.437 393.8 157.609H393.792Z" fill="#8EA3A8"/>
<path d="M257.824 161.874C257.821 162.153 257.762 162.43 257.652 162.687C257.542 162.944 257.382 163.177 257.182 163.372C256.981 163.567 256.744 163.72 256.484 163.824C256.224 163.927 255.947 163.978 255.667 163.974H227.734C227.455 163.978 227.177 163.927 226.917 163.824C226.657 163.72 226.42 163.567 226.22 163.372C226.02 163.177 225.86 162.944 225.749 162.687C225.639 162.43 225.581 162.153 225.578 161.874V144.058C225.581 143.778 225.639 143.502 225.749 143.245C225.86 142.988 226.02 142.755 226.22 142.56C226.42 142.365 226.657 142.211 226.917 142.108C227.177 142.005 227.455 141.954 227.734 141.958H255.675C255.955 141.954 256.233 142.005 256.492 142.108C256.752 142.211 256.989 142.365 257.19 142.56C257.39 142.755 257.55 142.988 257.66 143.245C257.77 143.502 257.829 143.778 257.832 144.058L257.824 161.874Z" fill="#724041"/>
<path d="M226.766 161.776C226.768 161.815 226.762 161.854 226.749 161.891C226.736 161.928 226.716 161.962 226.689 161.991C226.662 162.02 226.63 162.043 226.595 162.059C226.559 162.075 226.52 162.084 226.481 162.085C226.442 162.084 226.403 162.075 226.368 162.059C226.332 162.043 226.3 162.02 226.273 161.991C226.247 161.962 226.226 161.928 226.213 161.891C226.2 161.854 226.194 161.815 226.196 161.776V145.27C226.194 145.231 226.2 145.192 226.213 145.155C226.226 145.118 226.247 145.084 226.273 145.056C226.3 145.027 226.332 145.003 226.368 144.987C226.403 144.971 226.442 144.962 226.481 144.961C226.52 144.962 226.559 144.971 226.595 144.987C226.63 145.003 226.662 145.027 226.689 145.056C226.716 145.084 226.736 145.118 226.749 145.155C226.762 145.192 226.768 145.231 226.766 145.27V161.776Z" fill="#805355"/>
<path d="M240.651 160.441C226.888 160.441 215.738 166.952 215.738 174.904H265.564C265.564 166.92 254.414 160.441 240.651 160.441Z" fill="#19698C"/>
<path d="M242.775 161.174C246.787 161.151 250.78 161.735 254.617 162.907C250.163 161.24 245.439 160.412 240.684 160.466C226.921 160.466 215.771 166.977 215.771 174.928H217.895C218.521 167.245 229.411 161.174 242.775 161.174Z" fill="#0F435E"/>
<path d="M224.145 174.904L225.602 170.558L227.059 174.904H224.145Z" fill="#0F435E"/>
<path d="M255.138 174.904L256.595 170.558L258.06 174.904H255.138Z" fill="#0F435E"/>
<path d="M228.207 139.785C228.207 139.785 225.83 144.668 229.289 151.529C232.056 157.047 236.923 159.497 241.229 159.253C245.534 159.009 250.344 155.558 251.996 151.358C255.252 143.114 255.35 137.522 252.81 133.607C250.271 129.693 229.965 122.083 228.207 139.785Z" fill="#EE9E6A"/>
<path d="M228.255 141.575C227.593 144.885 228.124 148.321 229.753 151.277C232.374 156.494 236.972 158.814 241.05 158.602C245.127 158.39 249.669 155.102 251.24 151.139C251.946 149.634 252.476 148.053 252.818 146.426C250.328 144.432 247.121 140.241 247.121 137.368C239.715 145.27 231.34 142.34 228.255 141.575Z" fill="#F9AE7C"/>
<path d="M259.159 142.617C259.85 135.911 257.685 126.893 251.834 125.64C251.834 125.64 234.14 116.687 226.742 130.409C220.418 142.145 227.555 146.304 227.555 146.304C227.555 146.304 227.344 142.43 227.734 141.12C227.734 141.12 237.924 145.393 248.546 134.104C246.259 142.796 253.592 143.928 253.128 147.126C253.152 147.094 258.654 147.549 259.159 142.617Z" fill="#724041"/>
<path d="M228.418 140.688C228.418 140.688 236.557 144.164 248 133.909C248 133.876 236.956 141.763 228.418 140.688Z" fill="#805355"/>
<path d="M241.245 159.106C239.736 159.185 238.231 158.906 236.85 158.293C236.85 161.548 237.111 163.99 240.651 163.99C244.191 163.99 244.444 161.434 244.452 158.171C243.448 158.673 242.362 158.99 241.245 159.106Z" fill="#F9AE7C"/>
<path d="M244.452 158.659C244.452 158.529 244.452 158.398 244.452 158.26C244.159 158.398 243.858 158.512 243.556 158.618C243.866 158.651 244.159 158.659 244.452 158.659Z" fill="#EE9E6A"/>
<path d="M239.772 159.107C238.766 159.006 237.781 158.754 236.85 158.358C236.85 161.613 237.111 164.055 240.651 164.055C240.948 164.055 241.244 164.033 241.538 163.99C240.195 163.062 239.853 161.28 239.772 159.107Z" fill="#EE9E6A"/>
<path d="M227.621 146.565C227.281 146.643 226.962 146.791 226.683 146.999C226.404 147.207 226.171 147.472 226 147.775C225.829 148.078 225.723 148.414 225.688 148.76C225.654 149.107 225.692 149.457 225.801 149.788C225.909 150.119 226.085 150.424 226.318 150.683C226.551 150.942 226.835 151.149 227.153 151.293C227.47 151.436 227.814 151.511 228.162 151.514C228.51 151.517 228.855 151.447 229.175 151.309C228.433 149.81 227.91 148.212 227.621 146.565Z" fill="#F9AE7C"/>
<path d="M227.808 147.264C228.133 148.388 228.532 149.57 229.004 150.813C228.76 150.949 228.489 151.03 228.21 151.05C227.931 151.069 227.651 151.027 227.39 150.927C227.13 150.826 226.894 150.669 226.701 150.467C226.507 150.265 226.361 150.023 226.271 149.758C226.182 149.493 226.152 149.212 226.184 148.934C226.216 148.657 226.308 148.389 226.455 148.151C226.601 147.913 226.799 147.71 227.032 147.557C227.266 147.404 227.531 147.304 227.808 147.264Z" fill="#EE9E6A"/>
<path d="M254.17 147.321C253.928 147.226 253.672 147.168 253.413 147.151C253.027 148.469 252.542 149.872 251.956 151.358C251.907 151.472 251.858 151.594 251.809 151.708C252.099 151.915 252.429 152.057 252.778 152.126C253.127 152.195 253.486 152.19 253.833 152.109C254.179 152.029 254.504 151.875 254.787 151.659C255.069 151.443 255.303 151.17 255.472 150.857C255.64 150.544 255.74 150.198 255.765 149.844C255.79 149.489 255.74 149.133 255.617 148.799C255.493 148.466 255.301 148.162 255.051 147.909C254.802 147.655 254.501 147.458 254.17 147.33V147.321Z" fill="#F9AE7C"/>
<path d="M253.193 147.753C252.867 148.876 252.469 150.059 251.997 151.301C252.241 151.438 252.512 151.518 252.791 151.538C253.07 151.558 253.349 151.516 253.61 151.415C253.871 151.314 254.107 151.158 254.3 150.956C254.493 150.754 254.64 150.512 254.729 150.247C254.819 149.982 254.849 149.7 254.817 149.423C254.785 149.145 254.693 148.877 254.546 148.639C254.4 148.401 254.202 148.198 253.968 148.045C253.735 147.892 253.47 147.792 253.193 147.753Z" fill="#EE9E6A"/>
<path opacity="0.3" d="M249.368 151.456C250.046 151.456 250.597 150.906 250.597 150.227C250.597 149.548 250.046 148.998 249.368 148.998C248.689 148.998 248.139 149.548 248.139 150.227C248.139 150.906 248.689 151.456 249.368 151.456Z" fill="#EF4F4F"/>
<path opacity="0.3" d="M231.316 151.456C231.994 151.456 232.545 150.906 232.545 150.227C232.545 149.548 231.994 148.998 231.316 148.998C230.637 148.998 230.087 149.548 230.087 150.227C230.087 150.906 230.637 151.456 231.316 151.456Z" fill="#EF4F4F"/>
<path d="M237.257 143.48C237.257 143.48 234.653 139.858 231.674 143.48C231.674 143.48 233.188 141.429 237.257 143.48Z" fill="#4C2F22"/>
<path d="M243.467 143.48C243.467 143.48 246.071 139.858 249.05 143.48C249.05 143.48 247.536 141.429 243.467 143.48Z" fill="#4C2F22"/>
<path d="M235.108 161.597C235.107 162.244 235.279 162.879 235.608 163.436C235.937 163.993 236.41 164.451 236.978 164.762C237.545 165.073 238.186 165.225 238.832 165.202C239.478 165.179 240.107 164.983 240.651 164.633C241.195 164.983 241.823 165.179 242.47 165.202C243.116 165.225 243.757 165.073 244.324 164.762C244.892 164.451 245.365 163.993 245.694 163.436C246.023 162.879 246.195 162.244 246.194 161.597H235.108Z" fill="#EDEDED"/>
<path d="M235.833 161.597H235.108C235.108 162.553 235.488 163.47 236.164 164.146C236.841 164.823 237.758 165.203 238.714 165.203H239.064C238.175 165.108 237.352 164.687 236.755 164.021C236.158 163.355 235.83 162.491 235.833 161.597Z" fill="#D9D9DB"/>
<path d="M289.622 119.027H293.978V103.627H289.622V119.027ZM297.077 119.027H304.359C309.463 119.027 312.961 116.057 312.961 111.327C312.961 106.597 309.463 103.627 304.359 103.627H297.077V119.027ZM301.433 115.551V107.103H304.183C306.801 107.103 308.561 108.665 308.561 111.327C308.561 113.989 306.801 115.551 304.183 115.551H301.433ZM329.333 119.335C332.171 119.335 334.459 118.301 335.955 116.431L333.183 113.923C332.215 115.089 331.027 115.727 329.553 115.727C327.023 115.727 325.263 113.967 325.263 111.327C325.263 108.687 327.023 106.927 329.553 106.927C331.027 106.927 332.215 107.565 333.183 108.731L335.955 106.223C334.459 104.353 332.171 103.319 329.333 103.319C324.449 103.319 320.863 106.641 320.863 111.327C320.863 116.013 324.449 119.335 329.333 119.335ZM349.167 119.027H353.699L346.879 103.627H342.589L335.791 119.027H340.235L341.445 116.035H347.957L349.167 119.027ZM342.721 112.823L344.701 107.895L346.681 112.823H342.721ZM364.46 119.027H369.124L365.802 114.187C367.716 113.263 368.816 111.591 368.816 109.325C368.816 105.805 366.176 103.627 361.974 103.627H354.934V119.027H359.29V114.935H361.666L364.46 119.027ZM364.416 109.325C364.416 110.733 363.514 111.569 361.71 111.569H359.29V107.059H361.71C363.514 107.059 364.416 107.895 364.416 109.325ZM371.219 119.027H378.501C383.605 119.027 387.103 116.057 387.103 111.327C387.103 106.597 383.605 103.627 378.501 103.627H371.219V119.027ZM375.575 115.551V107.103H378.325C380.943 107.103 382.703 108.665 382.703 111.327C382.703 113.989 380.943 115.551 378.325 115.551H375.575Z" fill="white"/>
<path fill-rule="evenodd" clip-rule="evenodd" d="M233.823 218.17C227.393 225.568 218.131 235.563 211.034 242.75C220.239 236.947 232.26 225.17 238.787 211.863C237.246 214.053 235.589 216.158 233.823 218.17Z" fill="#C48B65"/>
<path fill-rule="evenodd" clip-rule="evenodd" d="M233.822 218.17C236.064 215.633 238.115 212.935 239.959 210.096C243.215 205.465 246.47 200.761 244.973 194.429C244.429 192.901 243.446 191.568 242.148 190.596C237.819 187.194 231.568 189.18 227.083 190.824C215.738 194.942 204.946 208.216 201.218 211.903C196.432 216.632 181.514 231.518 177.404 234.586L199.086 255.308C199.086 255.308 206.224 247.584 210.309 243.49C217.463 236.255 227.14 225.845 233.822 218.17Z" fill="#E2A379"/>
<path fill-rule="evenodd" clip-rule="evenodd" d="M229.012 207.614C225.757 204.025 222.119 200.289 224.585 197.432C227.051 194.576 235.165 187.055 241.302 191.979C247.439 196.903 242.734 204.106 238.128 208.054C233.521 212.001 232.406 211.146 229.012 207.614Z" fill="#F2E2D3"/>
<path d="M224.056 222.59C222.033 218.147 218.843 214.335 214.826 211.561C213.843 210.894 212.783 210.347 211.668 209.934C212.773 210.79 213.827 211.708 214.826 212.685C217.642 215.379 221.11 219.155 224.056 222.59Z" fill="#AD8666"/>
<path d="M207.119 216.233C208.478 219.879 211.668 223.729 214.802 226.195C215.774 226.98 216.833 227.649 217.96 228.189C217.146 227.375 216.023 226.22 214.802 224.934C212.271 222.288 209.235 218.984 207.119 216.233Z" fill="#AD8666"/>
<path d="M202.895 220.579C204.254 224.226 207.444 228.075 210.578 230.541C211.55 231.326 212.61 231.995 213.736 232.535C212.922 231.721 211.799 230.566 210.578 229.28C208.055 226.659 205.027 223.33 202.895 220.579Z" fill="#AD8666"/>
<path opacity="0.4" fill-rule="evenodd" clip-rule="evenodd" d="M234.441 210.487C233.463 207.877 231.952 205.499 230.005 203.504C228.281 201.54 226.209 199.913 223.893 198.702C223.161 201.339 226.221 204.538 229.012 207.655C231.259 209.95 232.512 211.106 234.441 210.487Z" fill="#AD8666"/>
<mask id="mask1_131_64" style="mask-type:luminance" maskUnits="userSpaceOnUse" x="97" y="264" width="97" height="92">
<path d="M193.958 264.602H97V355.457H193.958V264.602Z" fill="white"/>
</mask>
<g mask="url(#mask1_131_64)">
<path d="M114.799 279.194L71.0518 367.787L144.911 404.258L188.658 315.665L114.799 279.194Z" fill="#2C576B"/>
<path opacity="0.4" d="M114.781 279.234L71.0515 367.791L108.299 386.184L152.028 297.627L114.781 279.234Z" fill="#072E40"/>
<path opacity="0.4" d="M114.785 279.222L71.0525 367.786L98.0246 381.104L141.757 292.54L114.785 279.222Z" fill="#072E40"/>
<path d="M179.591 327.591C180.67 325.407 179.915 322.831 177.904 321.837C175.893 320.844 173.388 321.809 172.309 323.993C171.23 326.178 171.985 328.754 173.996 329.747C176.007 330.741 178.512 329.775 179.591 327.591Z" fill="white"/>
<path d="M175.809 329.298C174.824 328.757 174.094 327.847 173.778 326.769C173.462 325.691 173.587 324.531 174.124 323.544C174.576 322.615 175.327 321.864 176.256 321.412C175.429 321.426 174.623 321.672 173.929 322.121C173.234 322.569 172.679 323.203 172.325 323.951C171.788 324.938 171.664 326.098 171.979 327.176C172.295 328.254 173.025 329.164 174.01 329.705C174.548 329.97 175.14 330.107 175.739 330.107C176.339 330.107 176.931 329.97 177.469 329.705C176.892 329.699 176.323 329.56 175.809 329.298Z" fill="#AAAAAA"/>
<path d="M174.441 338.002C175.519 335.817 174.764 333.241 172.752 332.248C170.741 331.255 168.236 332.221 167.158 334.405C166.079 336.59 166.835 339.166 168.846 340.159C170.857 341.152 173.362 340.186 174.441 338.002Z" fill="white"/>
<path d="M170.641 339.789C169.656 339.249 168.926 338.342 168.611 337.264C168.295 336.187 168.419 335.029 168.956 334.043C169.408 333.114 170.159 332.363 171.088 331.911C170.261 331.926 169.455 332.171 168.761 332.62C168.066 333.069 167.511 333.703 167.157 334.45C166.62 335.437 166.496 336.597 166.811 337.675C167.127 338.754 167.857 339.663 168.842 340.204C169.38 340.469 169.972 340.606 170.571 340.606C171.171 340.606 171.763 340.469 172.301 340.204C171.723 340.195 171.155 340.053 170.641 339.789Z" fill="#AAAAAA"/>
<path d="M124.637 268.432L118.435 280.991L183.946 313.34L190.147 300.781L124.637 268.432Z" fill="white"/>
<path opacity="0.5" d="M119.433 279L118.442 281.007L183.953 313.356L184.944 311.349L119.433 279Z" fill="#AAAAAA"/>
<path opacity="0.5" d="M120.472 276.914L118.335 281.242L183.846 313.591L185.983 309.263L120.472 276.914Z" fill="#AAAAAA"/>
</g>
<g opacity="0.2">
<path d="M87.9187 172.912C99.5884 172.912 109.049 163.451 109.049 151.782C109.049 140.112 99.5884 130.652 87.9187 130.652C76.249 130.652 66.7888 140.112 66.7888 151.782C66.7888 163.451 76.249 172.912 87.9187 172.912Z" stroke="#263238" stroke-linecap="round" stroke-linejoin="round"/>
<path d="M451.143 91.6103C460.258 90.2831 471.498 94.5114 472.59 104.812C473.577 114.103 467.211 123.605 461.573 130.429C456.253 136.83 448.912 144.053 440.808 146.872C431.564 150.032 428.592 140.459 434.277 134.281C445.611 121.949 472.414 115.841 486.52 126.283C502.412 138.028 491.677 162.916 476.842 170.386C472.015 172.818 467.763 169.74 471.24 164.643C473.871 160.779 478.886 159.005 483.279 158.206C492.041 156.609 505.689 158.559 509.001 168.401" stroke="#263238" stroke-linecap="round" stroke-linejoin="round"/>
<path d="M431.964 99.7028C436.311 96.7385 441.056 94.4054 446.058 92.7731" stroke="#263238" stroke-linecap="round" stroke-linejoin="round"/>
<path d="M423.013 106.609C424.493 105.247 426.055 103.978 427.653 102.768" stroke="#263238" stroke-linecap="round" stroke-linejoin="round"/>
<path d="M276.878 14.7017L280.648 10.7787L234.677 15.2067L260.916 26.447" stroke="#263238" stroke-linecap="round" stroke-linejoin="round"/>
<path d="M263.03 27.3515L280.648 34.892L270.606 21.2321L275.398 16.2404" stroke="#263238" stroke-linecap="round" stroke-linejoin="round"/>
<path d="M362.642 16.7689V1.40598" stroke="#263238" stroke-linecap="round" stroke-linejoin="round"/>
<path d="M362.642 28.0679V21.3966" stroke="#263238" stroke-linecap="round" stroke-linejoin="round"/>
<path d="M379.003 30.1939L390.056 6.98505" stroke="#263238" stroke-linecap="round" stroke-linejoin="round"/>
<path d="M410.117 30.7811L415.214 26.8581" stroke="#263238" stroke-linecap="round" stroke-linejoin="round"/>
<path d="M392.652 44.2765L405.877 34.0933" stroke="#263238" stroke-linecap="round" stroke-linejoin="round"/>
<path d="M37.0259 262.035L13.5 255.904L17.2233 288.004L54.3856 266.569L39.1049 262.587" stroke="#263238" stroke-linecap="round" stroke-linejoin="round"/>
<path d="M497.972 250.267L524 259.252" stroke="#263238" stroke-linecap="round" stroke-linejoin="round"/>
<path d="M483.901 379.301C484.954 380.453 486.232 381.376 487.657 382.013C489.082 382.649 490.622 382.985 492.183 383C493.743 383.014 495.29 382.707 496.726 382.097C498.163 381.487 499.458 380.588 500.532 379.456C501.605 378.323 502.434 376.981 502.966 375.514C503.498 374.047 503.722 372.487 503.624 370.929C503.526 369.372 503.108 367.851 502.396 366.462C501.685 365.074 500.694 363.846 499.487 362.857" stroke="#263238" stroke-linecap="round" stroke-linejoin="round"/>
<path d="M497.479 361.518C495.268 360.351 492.733 359.946 490.269 360.366C487.804 360.786 485.547 362.007 483.847 363.841C482.147 365.675 481.1 368.018 480.868 370.507C480.635 372.997 481.231 375.493 482.562 377.61" stroke="#263238" stroke-linecap="round" stroke-linejoin="round"/>
<path d="M54.8085 336.172L44.7075 362.258" stroke="#263238" stroke-linecap="round" stroke-linejoin="round"/>
<path d="M58.1088 327.645L56.6406 331.439" stroke="#263238" stroke-linecap="round" stroke-linejoin="round"/>
<path d="M136.721 178.596L164.616 194.734" stroke="#263238" stroke-linecap="round" stroke-linejoin="round"/>
<path d="M105.807 82.0026L83.1733 96.649" stroke="#263238" stroke-linecap="round" stroke-linejoin="round"/>
<path d="M113.923 76.7759L110.399 79.0193" stroke="#263238" stroke-linecap="round" stroke-linejoin="round"/>
<path d="M503.551 91.3284V101.194L510.986 99.2565L503.551 91.3284Z" stroke="#263238" stroke-linecap="round" stroke-linejoin="round"/>
</g>
</svg>