<svg width="547" height="374" viewBox="0 0 547 374" fill="none" xmlns="http://www.w3.org/2000/svg">
<path d="M77.5897 362.4C10.6201 317.435 -31.4533 220.162 29.5472 172.371C90.5476 124.581 -27.5983 59.5556 165.406 8.00693C302.321 -28.569 330.535 72.5471 402.865 63.4711C492.037 52.2826 550.392 130.222 546.847 224.112C543.911 301.918 510.08 363 510.08 363L77.5897 362.4Z" fill="#FFEABE"/>
<ellipse cx="277" cy="194" rx="112" ry="137" fill="white"/>
<mask id="mask0_131_70" style="mask-type:alpha" maskUnits="userSpaceOnUse" x="167" y="49" width="222" height="289">
<ellipse cx="278.455" cy="193.37" rx="110.545" ry="143.781" fill="#949191"/>
</mask>
<g mask="url(#mask0_131_70)">
<path d="M342.922 246.305C348.487 244.439 408.968 231.23 416.497 224.114C424.027 216.997 480.083 135.397 480.083 135.397C480.083 135.397 465.223 117.978 464.694 115.584C464.166 113.189 462.498 104.62 469.252 106.684C469.252 106.684 481.156 112.281 488.471 112.496C495.786 112.711 518.621 116.871 518.621 116.871C518.621 116.871 517.895 144.941 507.459 154.6C497.024 164.259 505.808 155.244 505.808 155.244C505.808 155.244 450.412 242.062 445.673 249.195C429.393 273.747 357.122 292.9 357.122 292.9L342.922 246.305Z" fill="#EDC7A0"/>
<g style="mix-blend-mode:multiply" opacity="0.4">
<path d="M479.241 110.614C476.901 111.877 475.108 113.957 474.205 116.459C473.468 118.488 473.141 120.644 473.243 122.801C473.345 124.958 473.874 127.073 474.8 129.024C477.722 132.557 480.133 135.414 480.133 135.414C482.013 136.944 484.097 138.205 486.325 139.162L504.966 145.37C504.966 145.37 453.12 225.088 446.136 237.405C439.151 249.723 404.642 266.317 404.642 266.317C387.702 272.058 371.285 279.239 355.57 287.782L357.221 292.967C357.221 292.967 429.509 273.813 445.772 249.261C450.082 242.755 496.562 170.005 504.669 157.226C505.395 156.582 506.32 155.756 507.492 154.666C517.928 145.073 518.654 116.938 518.654 116.938C518.654 116.938 495.819 112.777 488.504 112.562C485.344 112.322 482.23 111.667 479.241 110.614Z" fill="#EDC7A0"/>
</g>
<path d="M157.317 289.417C157.317 289.417 192.866 315.835 205.348 330.448C205.348 330.448 219.284 313.936 225.658 312.78C225.658 312.78 226.434 475.138 219.499 497.924C219.499 497.924 323.373 519.108 393.431 494.192L368.664 291.613L408.159 278.668L396.469 227.482C396.469 227.482 346.489 238.693 308.413 231.659C308.413 231.659 293.19 267.572 261.19 236.2C261.19 236.2 239.362 243.184 222.768 246.685C206.174 250.185 157.317 289.417 157.317 289.417Z" fill="#9CCE54"/>
<g style="mix-blend-mode:multiply" opacity="0.4">
<path d="M226.533 387.561C226.169 318.741 245.537 296.021 245.537 296.021C245.537 296.021 227.622 311.146 225.724 312.764C225.724 312.764 226.5 475.121 219.565 497.907C219.565 497.907 323.439 519.091 393.497 494.175L368.664 291.613L408.159 278.668L406.624 271.947C392.06 280.998 374.777 284.639 357.799 282.234C357.799 282.234 398.186 445.995 361.217 485.325C338.943 508.97 227.656 487.373 227.656 487.373C227.656 487.373 228.613 485.259 228.498 476.294C229.76 476.886 231.144 477.174 232.537 477.134C233.931 477.094 235.296 476.727 236.522 476.062C240.634 473.767 239.148 469.755 244.415 467.46C252.126 464.158 246.677 455.043 254.767 450.734C254.767 450.734 258.763 446.589 257.756 443.815C255.345 437.211 270.618 419.213 270.618 419.213L274.664 421.228L277.966 408.663L274.664 407.309L275.143 402.537L240.468 389.328L226.533 387.561Z" fill="#9CCE54"/>
</g>
<path d="M253.711 215.082C253.711 215.082 261.801 230.091 253.711 249.756C253.711 249.756 283.745 280.93 318.386 243.977C318.386 243.977 292.05 204.812 301.066 180.457C301.066 180.424 274.416 207.569 253.711 215.082Z" fill="#EDC7A0"/>
<g style="mix-blend-mode:multiply" opacity="0.3">
<path d="M301.066 180.424C301.066 180.424 274.416 207.569 253.711 215.082C255.732 219.416 256.908 224.095 257.178 228.869C271.659 236.283 287.064 238.99 298.457 233.822C302.238 232.066 305.747 229.775 308.876 227.02C302.486 213.447 295.881 194.476 301.066 180.424Z" fill="#EDC7A0"/>
</g>
<path d="M327.253 149.432C337.028 180.54 323.785 216.816 298.985 228.076C274.878 239.023 233.187 214.867 219.647 185.642C206.025 155.624 229.356 127.852 256.319 113.553C284.323 98.7584 316.752 115.782 327.253 149.432Z" fill="#EDC7A0"/>
<path d="M238.537 194.492C238.537 194.492 240.006 211.813 246.924 216.716C236.842 211.856 228.655 203.79 223.643 193.782C223.643 193.782 198.315 183.743 197.225 150.225C196.35 122.155 205.596 113.454 205.596 113.454C199.318 118.18 194.895 124.957 193.097 132.607C193.097 132.607 194.897 109.276 209.84 106.288C209.84 106.288 214.033 79.6711 233.765 80.2655C253.496 80.8599 297.763 82.0653 305.524 69.5V82.7092C308.195 82.1789 310.676 80.9416 312.706 79.1262C312.706 79.1262 324.066 100.591 313.895 115.006C313.895 115.006 325.255 120.388 321.061 135.348C321.061 135.348 310.196 116.145 302.172 115.534C302.172 115.534 267.415 138.353 233.831 133.135C233.831 133.135 227.771 168.784 236.737 178.955C236.737 178.955 221.216 162.592 219.103 177.155C216.989 191.718 238.537 194.492 238.537 194.492Z" fill="#5C3A0D"/>
<g style="mix-blend-mode:multiply" opacity="0.3">
<path d="M302.188 115.534C310.213 116.112 321.078 135.348 321.078 135.348C325.255 120.405 313.912 115.006 313.912 115.006C324.083 100.657 312.723 79.1262 312.723 79.1262C310.692 80.9416 308.212 82.1789 305.54 82.7092V69.5C299.976 78.4988 275.687 80.4306 255.098 80.5957C270.817 88.3231 300.058 82.4615 300.058 82.4615C299.249 91.2457 289.574 93.3756 289.574 93.3756C302.155 96.4303 304.665 95.0268 305.16 94.2177C298.044 119.167 276.48 123.509 276.48 123.509C279.535 121.759 280.839 114.345 280.839 114.345C262.065 128.314 230.628 128.76 230.628 128.76C223.23 135.728 228.448 162.823 223.23 164.986C218.013 167.149 210.137 162.361 210.137 162.361C208.832 168.965 215.817 176.775 211.441 177.221C207.066 177.667 199.883 164.342 199.074 163.005C205.002 186.352 223.66 193.815 223.66 193.815C228.671 203.823 236.859 211.889 246.941 216.749C240.023 211.796 238.553 194.525 238.553 194.525C238.553 194.525 217.006 191.751 219.119 177.188C221.233 162.625 236.753 178.988 236.753 178.988C227.771 168.784 233.847 133.102 233.847 133.102C267.415 138.336 302.188 115.534 302.188 115.534Z" fill="#5C3A0D"/>
</g>
<path d="M197.72 322.572C160.223 361.076 159.001 360.664 160.487 366.046C161.692 370.471 213.026 418.041 213.026 418.041C213.026 418.041 217.121 418.751 230.529 424.332C243.936 429.913 250.887 435.89 252.852 440.018C254.817 444.146 254.602 448.472 250.392 450.47C247.337 451.873 247.255 453.772 246.726 457.272C246.549 459.069 245.818 460.766 244.635 462.129C243.452 463.493 241.875 464.455 240.122 464.884C237.364 465.743 239.461 469.243 234.359 470.696C229.257 472.149 207.941 462.16 204.424 453.722C200.907 445.285 201.287 442.164 197.06 440.513C192.833 438.862 132.665 392.778 128.801 386.405C124.938 380.032 114.833 367.433 134.828 341.147C154.823 314.861 168.181 297.788 168.181 297.788L197.72 322.572Z" fill="#EDC7A0"/>
<g style="mix-blend-mode:multiply" opacity="0.4">
<path d="M160.487 366.046C159.017 360.664 160.256 361.093 197.753 322.572L190.604 316.545C190.604 316.545 154.559 354.125 156.739 362.397C158.918 370.67 213.043 418.041 213.043 418.041C213.043 418.041 161.676 370.488 160.487 366.046Z" fill="#EDC7A0"/>
</g>
</g>
<g opacity="0.2">
<path d="M87.9186 162.912C99.5884 162.912 109.049 153.451 109.049 141.782C109.049 130.112 99.5884 120.652 87.9186 120.652C76.2489 120.652 66.7888 130.112 66.7888 141.782C66.7888 153.451 76.2489 162.912 87.9186 162.912Z" stroke="#263238" stroke-linecap="round" stroke-linejoin="round"/>
<path d="M451.143 81.6103C460.258 80.2831 471.498 84.5114 472.59 94.8121C473.577 104.103 467.211 113.605 461.573 120.429C456.253 126.83 448.912 134.053 440.808 136.872C431.564 140.032 428.592 130.459 434.277 124.281C445.611 111.949 472.414 105.841 486.52 116.283C502.412 128.028 491.677 152.916 476.842 160.386C472.015 162.818 467.763 159.74 471.24 154.643C473.871 150.779 478.886 149.005 483.279 148.206C492.041 146.609 505.689 148.559 509.001 158.401" stroke="#263238" stroke-linecap="round" stroke-linejoin="round"/>
<path d="M431.964 93.7028C436.619 89.0274 441.701 85.3475 447.058 82.7731" stroke="#263238" stroke-linecap="round" stroke-linejoin="round"/>
<path d="M426 101.841C427.799 99.0593 429.698 96.4697 431.639 94" stroke="#263238" stroke-linecap="round" stroke-linejoin="round"/>
<path d="M276.878 4.7017L280.648 0.778748L234.677 5.20675L260.916 16.447" stroke="#263238" stroke-linecap="round" stroke-linejoin="round"/>
<path d="M263.03 17.3515L280.648 24.892L270.606 11.2321L275.398 6.24037" stroke="#263238" stroke-linecap="round" stroke-linejoin="round"/>
<path d="M332.642 63.7689V44.406" stroke="#263238" stroke-linecap="round" stroke-linejoin="round"/>
<path d="M332.642 75.0679V64.3966" stroke="#263238" stroke-linecap="round" stroke-linejoin="round"/>
<path d="M349.003 73.1939L360.056 49.985" stroke="#263238" stroke-linecap="round" stroke-linejoin="round"/>
<path d="M377.117 76.7811L383.214 68.8581" stroke="#263238" stroke-linecap="round" stroke-linejoin="round"/>
<path d="M362.652 91.2765L376.877 77.0933" stroke="#263238" stroke-linecap="round" stroke-linejoin="round"/>
<path d="M37.0259 252.035L13.5 245.904L17.2233 278.004L54.3856 256.569L39.1049 252.587" stroke="#263238" stroke-linecap="round" stroke-linejoin="round"/>
<path d="M497.972 240.267L524 249.252" stroke="#263238" stroke-linecap="round" stroke-linejoin="round"/>
<path d="M483.901 369.301C484.954 370.453 486.232 371.376 487.657 372.013C489.082 372.649 490.622 372.985 492.183 373C493.743 373.014 495.29 372.707 496.726 372.097C498.163 371.487 499.458 370.588 500.532 369.456C501.605 368.323 502.434 366.981 502.966 365.514C503.498 364.047 503.722 362.487 503.624 360.929C503.526 359.372 503.108 357.851 502.396 356.462C501.685 355.074 500.694 353.846 499.487 352.857" stroke="#263238" stroke-linecap="round" stroke-linejoin="round"/>
<path d="M497.479 351.518C495.268 350.351 492.733 349.946 490.269 350.366C487.804 350.786 485.547 352.007 483.847 353.841C482.147 355.675 481.1 358.018 480.868 360.507C480.635 362.997 481.231 365.493 482.562 367.61" stroke="#263238" stroke-linecap="round" stroke-linejoin="round"/>
<path d="M54.8084 326.172L44.7074 352.258" stroke="#263238" stroke-linecap="round" stroke-linejoin="round"/>
<path d="M58.1088 317.645L56.6406 321.439" stroke="#263238" stroke-linecap="round" stroke-linejoin="round"/>
<path d="M136.721 168.596L164.616 184.734" stroke="#263238" stroke-linecap="round" stroke-linejoin="round"/>
<path d="M105.807 72.0026L83.1735 86.649" stroke="#263238" stroke-linecap="round" stroke-linejoin="round"/>
<path d="M113.923 66.7759L110.399 69.0193" stroke="#263238" stroke-linecap="round" stroke-linejoin="round"/>
<path d="M503.551 81.3284V91.1945L510.986 89.2565L503.551 81.3284Z" stroke="#263238" stroke-linecap="round" stroke-linejoin="round"/>
</g>
</svg>