<?xml version="1.0" encoding="UTF-8"?><svg id="Layer_1" xmlns="http://www.w3.org/2000/svg" viewBox="0 0 34.45 34.45"><defs><style>.cls-1{stroke-width:2px;}.cls-1,.cls-2{fill:#222a41;stroke:#222a41;stroke-miterlimit:10;}</style></defs><rect class="cls-2" x="7.96" y="9.87" width="3.49" height="4.81" rx="1.73" ry="1.73"/><path class="cls-2" d="m25.29,14.42c-.44,0-.8-.36-.8-.8v-.46c0-.8-.65-1.46-1.46-1.46-.85,0-1.5.65-1.5,1.46v.46c0,.44-.36.8-.8.8s-.8-.36-.8-.8v-.46c0-1.68,1.37-3.05,3.05-3.05s3.09,1.37,3.09,3.05v.46c0,.44-.36.8-.8.8Z"/><path class="cls-2" d="m16.36,24.98c-3.75,0-5.71-2.7-6.22-4.13-.15-.41.07-.87.48-1.02.41-.15.87.07,1.01.48.05.14,1.18,3.08,4.72,3.08s4.71-3.04,4.72-3.07c.15-.41.6-.63,1.02-.48.41.15.63.6.48,1.02-.51,1.43-2.46,4.13-6.22,4.13Z"/><g id="frame"><polygon class="cls-1" points="2.17 9.93 1.92 9.93 1.92 2.32 9.54 2.32 9.54 2.57 2.17 2.57 2.17 9.93"/><polygon class="cls-1" points="9.54 32.52 1.92 32.52 1.92 24.91 2.17 24.91 2.17 32.28 9.54 32.28 9.54 32.52"/><polygon class="cls-1" points="32.13 32.52 24.51 32.52 24.51 32.28 31.88 32.28 31.88 24.91 32.13 24.91 32.13 32.52"/><polygon class="cls-1" points="32.13 9.93 31.88 9.93 31.88 2.57 24.51 2.57 24.51 2.32 32.13 2.32 32.13 9.93"/></g></svg>